SplineFontDB: 3.2
FontName: Readerly-Bold
FullName: Readerly Bold
FamilyName: Readerly
Weight: Bold
Copyright: Copyright 2020 The Newsreader Project Authors (http://github.com/productiontype/Newsreader)
Version: 1.003
ItalicAngle: 0
UnderlinePosition: -303
UnderlineWidth: 96
Ascent: 1470
Descent: 530
InvalidEm: 0
sfntRevision: 0x000100c5
LayerCount: 2
Layer: 0 1 "Back" 1
Layer: 1 1 "Fore" 0
XUID: [1021 301 -1444420827 14866826]
StyleMap: 0x0040
FSType: 0
OS2Version: 4
OS2_WeightWidthSlopeOnly: 0
OS2_UseTypoMetrics: 1
CreationTime: 1606394360
ModificationTime: 1772410134
PfmFamily: 17
TTFWeight: 550
TTFWidth: 5
LineGap: 0
VLineGap: 0
Panose: 2 0 0 0 0 0 0 0 0 0
OS2TypoAscent: 1470
OS2TypoAOffset: 0
OS2TypoDescent: -530
OS2TypoDOffset: 0
OS2TypoLinegap: 0
OS2WinAscent: 2326
OS2WinAOffset: 0
OS2WinDescent: 531
OS2WinDOffset: 0
HheadAscent: 1470
HheadAOffset: 0
HheadDescent: -530
HheadDOffset: 0
OS2SubXSize: 1300
OS2SubYSize: 1200
OS2SubXOff: 0
OS2SubYOff: 150
OS2SupXSize: 1300
OS2SupYSize: 1200
OS2SupXOff: 0
OS2SupYOff: 700
OS2StrikeYSize: 130
OS2StrikeYPos: 501
OS2CapHeight: 1340
OS2XHeight: 852
OS2Vendor: 'PROD'
OS2CodePages: 20000193.00000000
OS2UnicodeRanges: 00000047.00000001.00000000.00000000
Lookup: 1 0 0 "'locl' Localized Forms in Latin lookup 0" { "'locl' Localized Forms in Latin lookup 0 subtable"  } ['locl' ('latn' <'MOL ' > ) ]
Lookup: 1 0 0 "'locl' Localized Forms in Latin lookup 1" { "'locl' Localized Forms in Latin lookup 1 subtable"  } ['locl' ('latn' <'ROM ' > ) ]
Lookup: 6 0 0 "'ordn' Ordinals in Latin lookup 2" { "'ordn' Ordinals in Latin lookup 2 contextual 0"  "'ordn' Ordinals in Latin lookup 2 contextual 1"  } ['ordn' ('DFLT' <'dflt' > 'latn' <'MOL ' 'ROM ' 'dflt' > ) ]
Lookup: 1 0 0 "Single Substitution lookup 3" { "Single Substitution lookup 3 subtable"  } []
Lookup: 4 0 0 "'ordn' Ordinals in Latin lookup 4" { "'ordn' Ordinals in Latin lookup 4 subtable"  } ['ordn' ('DFLT' <'dflt' > 'latn' <'MOL ' 'ROM ' 'dflt' > ) ]

StartChar: .notdef
Encoding: 65536 -1 0
Width: 1000
GlyphClass: 1
Flags: W
LayerCount: 2
Fore
SplineSet
100 -481 m 1,0,-1
 100 1519 l 1,1,-1
 900 1519 l 1,2,-1
 900 -481 l 1,3,-1
 100 -481 l 1,0,-1
200 -381 m 1,4,-1
 800 -381 l 1,5,-1
 800 1419 l 1,6,-1
 200 1419 l 1,7,-1
 200 -381 l 1,4,-1
EndSplineSet
EndChar

StartChar: A
Encoding: 65 65 5
Width: 1669
GlyphClass: 2
Flags: W
AnchorPoint: "Anchor-4" 788 0 basechar 0
AnchorPoint: "Anchor-3" 1498 0 basechar 0
LayerCount: 2
Fore
SplineSet
420 447 m 1,0,-1
 420 615 l 1,1,-1
 1135 615 l 1,2,-1
 1135 447 l 1,3,-1
 420 447 l 1,0,-1
1492 147 m 1,4,-1
 1668 97 l 1,5,-1
 1668 0 l 1,6,-1
 996 0 l 1,7,-1
 996 97 l 1,8,-1
 1171 142 l 1,9,-1
 733 1259 l 1,10,-1
 780 1259 l 1,11,-1
 375 143 l 1,12,-1
 547 97 l 1,13,-1
 547 0 l 1,14,-1
 11 0 l 1,15,-1
 11 97 l 1,16,-1
 175 142 l 1,17,-1
 665 1409 l 1,18,-1
 980 1409 l 1,19,-1
 1492 147 l 1,4,-1
EndSplineSet
Substitution2: "Single Substitution lookup 3 subtable" ordfeminine
EndChar

StartChar: B
Encoding: 66 66 6
Width: 1502
GlyphClass: 2
Flags: W
AnchorPoint: "Anchor-4" 787 0 basechar 0
LayerCount: 2
Fore
SplineSet
440 1228 m 1,0,-1
 441 1396 l 1,1,-1
 885 1396 l 2,2,3
 1049 1396 1049 1396 1147 1354.5 c 128,-1,4
 1245 1313 1245 1313 1288 1239 c 128,-1,5
 1331 1165 1331 1165 1331 1067 c 0,6,7
 1331 929 1331 929 1248.5 844 c 128,-1,8
 1166 759 1166 759 1012 746 c 1,9,-1
 1012 764 l 1,10,11
 1199 754 1199 754 1300.5 658.5 c 128,-1,12
 1402 563 1402 563 1402 410 c 0,13,14
 1402 285 1402 285 1349 192.5 c 128,-1,15
 1296 100 1296 100 1180.5 50 c 128,-1,16
 1065 0 1065 0 874 0 c 2,17,-1
 442 0 l 1,18,-1
 440 168 l 1,19,-1
 820 168 l 2,20,21
 914 168 914 168 975 191.5 c 128,-1,22
 1036 215 1036 215 1066.5 271 c 128,-1,23
 1097 327 1097 327 1097 422 c 0,24,25
 1097 495 1097 495 1070 548 c 128,-1,26
 1043 601 1043 601 984 630 c 128,-1,27
 925 659 925 659 828 659 c 2,28,-1
 437 659 l 1,29,-1
 441 817 l 1,30,-1
 825 817 l 2,31,32
 928 817 928 817 983.5 867 c 128,-1,33
 1039 917 1039 917 1039 1030 c 0,34,35
 1039 1095 1039 1095 1016 1138.5 c 128,-1,36
 993 1182 993 1182 942 1205 c 128,-1,37
 891 1228 891 1228 806 1228 c 2,38,-1
 440 1228 l 1,0,-1
102 0 m 1,39,-1
 102 97 l 1,40,-1
 275 145 l 1,41,-1
 275 1250 l 1,42,-1
 102 1299 l 1,43,-1
 102 1396 l 1,44,-1
 572 1396 l 1,45,-1
 572 0 l 1,46,-1
 102 0 l 1,39,-1
EndSplineSet
EndChar

StartChar: C
Encoding: 67 67 7
Width: 1533
GlyphClass: 2
Flags: W
AnchorPoint: "Anchor-4" 856 0 basechar 0
AnchorPoint: "Anchor-3" 1385 0 basechar 0
LayerCount: 2
Fore
SplineSet
954 150 m 0,0,1
 1036 150 1036 150 1122 166 c 128,-1,2
 1208 182 1208 182 1286 213 c 1,3,-1
 1145 102 l 1,4,-1
 1306 450 l 1,5,-1
 1429 450 l 1,6,-1
 1386 59 l 1,7,8
 1298 21 1298 21 1175.5 -1 c 128,-1,9
 1053 -23 1053 -23 914 -23 c 0,10,11
 717 -23 717 -23 566 22 c 128,-1,12
 415 67 415 67 312 156.5 c 128,-1,13
 209 246 209 246 156.5 378.5 c 128,-1,14
 104 511 104 511 105 686 c 0,15,16
 107 913 107 913 200.5 1077 c 128,-1,17
 294 1241 294 1241 475 1330 c 128,-1,18
 656 1419 656 1419 918 1419 c 0,19,20
 1012 1419 1012 1419 1095.5 1404.5 c 128,-1,21
 1179 1390 1179 1390 1267 1365 c 1,22,-1
 1186 1356 l 1,23,-1
 1293 1471 l 1,24,-1
 1397 1471 l 1,25,-1
 1413 934 l 1,26,-1
 1273 931 l 1,27,-1
 1152 1266 l 1,28,-1
 1244 1154 l 1,29,30
 1158 1202 1158 1202 1082 1220.5 c 128,-1,31
 1006 1239 1006 1239 913 1239 c 0,32,33
 783 1239 783 1239 689 1208.5 c 128,-1,34
 595 1178 595 1178 534 1115.5 c 128,-1,35
 473 1053 473 1053 442.5 959.5 c 128,-1,36
 412 866 412 866 409 739 c 0,37,38
 407 590 407 590 443.5 479.5 c 128,-1,39
 480 369 480 369 551.5 295.5 c 128,-1,40
 623 222 623 222 725 186 c 128,-1,41
 827 150 827 150 954 150 c 0,0,1
EndSplineSet
EndChar

StartChar: D
Encoding: 68 68 8
Width: 1680
GlyphClass: 2
Flags: W
AnchorPoint: "Anchor-4" 843 0 basechar 0
LayerCount: 2
Fore
SplineSet
1267 714 m 0,0,1
 1267 974 1267 974 1141.5 1096.5 c 128,-1,2
 1016 1219 1016 1219 754 1219 c 2,3,-1
 424 1219 l 1,4,-1
 409 1396 l 1,5,-1
 816 1396 l 2,6,7
 1068 1396 1068 1396 1236 1320.5 c 128,-1,8
 1404 1245 1404 1245 1488.5 1096.5 c 128,-1,9
 1573 948 1573 948 1573 730 c 0,10,11
 1573 494 1573 494 1477 331 c 128,-1,12
 1381 168 1381 168 1209.5 84 c 128,-1,13
 1038 0 1038 0 810 0 c 2,14,-1
 409 0 l 1,15,-1
 424 176 l 1,16,-1
 796 176 l 2,17,18
 949 176 949 176 1053.5 231.5 c 128,-1,19
 1158 287 1158 287 1212.5 405.5 c 128,-1,20
 1267 524 1267 524 1267 714 c 0,0,1
98 0 m 1,21,-1
 98 97 l 1,22,-1
 276 145 l 1,23,-1
 276 1250 l 1,24,-1
 98 1299 l 1,25,-1
 98 1396 l 1,26,-1
 573 1396 l 1,27,-1
 573 0 l 1,28,-1
 98 0 l 1,21,-1
EndSplineSet
EndChar

StartChar: E
Encoding: 69 69 9
Width: 1491
GlyphClass: 2
Flags: W
AnchorPoint: "Anchor-4" 753 0 basechar 0
AnchorPoint: "Anchor-3" 1254 0 basechar 0
LayerCount: 2
Fore
SplineSet
1049 984 m 1,0,-1
 1049 727 l 1,1,-1
 1049 470 l 1,2,-1
 917 470 l 1,3,-1
 898 649 l 1,4,-1
 417 649 l 1,5,-1
 417 808 l 1,6,-1
 898 808 l 1,7,-1
 917 984 l 1,8,-1
 1049 984 l 1,0,-1
1363 999 m 1,9,-1
 1230 996 l 1,10,-1
 1106 1320 l 1,11,-1
 1199 1228 l 1,12,-1
 417 1228 l 1,13,-1
 417 1396 l 1,14,-1
 1149 1396 l 1,15,-1
 1249 1469 l 1,16,-1
 1345 1469 l 1,17,-1
 1363 999 l 1,9,-1
1099 77 m 1,18,-1
 1282 449 l 1,19,-1
 1413 446 l 1,20,-1
 1330 -78 l 1,21,-1
 1220 -78 l 1,22,-1
 1143 0 l 1,23,-1
 417 0 l 1,24,-1
 417 168 l 1,25,-1
 1179 168 l 1,26,-1
 1099 77 l 1,18,-1
98 0 m 1,27,-1
 98 97 l 1,28,-1
 276 145 l 1,29,-1
 276 1250 l 1,30,-1
 98 1299 l 1,31,-1
 98 1396 l 1,32,-1
 573 1396 l 1,33,-1
 573 0 l 1,34,-1
 98 0 l 1,27,-1
EndSplineSet
EndChar

StartChar: F
Encoding: 70 70 10
Width: 1388
GlyphClass: 2
Flags: W
AnchorPoint: "Anchor-4" 425 0 basechar 0
LayerCount: 2
Fore
SplineSet
1043 925 m 1,0,-1
 1043 658 l 1,1,-1
 1043 392 l 1,2,-1
 911 392 l 1,3,-1
 893 581 l 1,4,-1
 418 581 l 1,5,-1
 418 739 l 1,6,-1
 893 739 l 1,7,-1
 911 925 l 1,8,-1
 1043 925 l 1,0,-1
1213 1469 m 1,9,-1
 1308 1469 l 1,10,-1
 1326 978 l 1,11,-1
 1194 975 l 1,12,-1
 1069 1320 l 1,13,-1
 1176 1228 l 1,14,-1
 412 1228 l 1,15,-1
 412 1396 l 1,16,-1
 1113 1396 l 1,17,-1
 1213 1469 l 1,9,-1
573 1396 m 1,18,-1
 573 145 l 1,19,-1
 751 97 l 1,20,-1
 751 0 l 1,21,-1
 98 0 l 1,22,-1
 98 97 l 1,23,-1
 276 145 l 1,24,-1
 276 1250 l 1,25,-1
 98 1299 l 1,26,-1
 98 1396 l 1,27,-1
 573 1396 l 1,18,-1
EndSplineSet
EndChar

StartChar: G
Encoding: 71 71 11
Width: 1663
GlyphClass: 2
Flags: W
AnchorPoint: "Anchor-4" 905 0 basechar 0
LayerCount: 2
Fore
SplineSet
1444 217 m 1,0,-1
 1547 193 l 1,1,-1
 1547 110 l 1,2,3
 1461 68 1461 68 1355.5 38.5 c 128,-1,4
 1250 9 1250 9 1136.5 -7 c 128,-1,5
 1023 -23 1023 -23 913 -23 c 0,6,7
 716 -23 716 -23 565 22.5 c 128,-1,8
 414 68 414 68 311 157 c 128,-1,9
 208 246 208 246 156 378.5 c 128,-1,10
 104 511 104 511 105 686 c 0,11,12
 107 913 107 913 201.5 1077 c 128,-1,13
 296 1241 296 1241 479 1330 c 128,-1,14
 662 1419 662 1419 928 1419 c 0,15,16
 1024 1419 1024 1419 1108.5 1404.5 c 128,-1,17
 1193 1390 1193 1390 1280 1364 c 1,18,-1
 1197 1356 l 1,19,-1
 1304 1471 l 1,20,-1
 1408 1471 l 1,21,-1
 1424 944 l 1,22,-1
 1284 942 l 1,23,-1
 1161 1270 l 1,24,-1
 1263 1148 l 1,25,26
 1178 1199 1178 1199 1100 1219 c 128,-1,27
 1022 1239 1022 1239 923 1239 c 0,28,29
 791 1239 791 1239 695 1208.5 c 128,-1,30
 599 1178 599 1178 536.5 1115.5 c 128,-1,31
 474 1053 474 1053 443 959 c 128,-1,32
 412 865 412 865 409 738 c 0,33,34
 406 541 406 541 470.5 411 c 128,-1,35
 535 281 535 281 657 217 c 128,-1,36
 779 153 779 153 947 153 c 0,37,38
 1006 153 1006 153 1064.5 161.5 c 128,-1,39
 1123 170 1123 170 1178 189 c 128,-1,40
 1233 208 1233 208 1278 238 c 1,41,-1
 1148 39 l 1,42,-1
 1148 514 l 1,43,-1
 951 565 l 1,44,-1
 951 658 l 1,45,-1
 1585 658 l 1,46,-1
 1585 565 l 1,47,-1
 1444 512 l 1,48,-1
 1444 217 l 1,0,-1
EndSplineSet
EndChar

StartChar: H
Encoding: 72 72 12
Width: 1811
GlyphClass: 2
Flags: W
AnchorPoint: "Anchor-4" 906 0 basechar 0
LayerCount: 2
Fore
SplineSet
573 145 m 1,0,-1
 751 97 l 1,1,-1
 751 0 l 1,2,-1
 98 0 l 1,3,-1
 98 97 l 1,4,-1
 276 145 l 1,5,-1
 276 1250 l 1,6,-1
 98 1299 l 1,7,-1
 98 1396 l 1,8,-1
 751 1396 l 1,9,-1
 751 1299 l 1,10,-1
 573 1250 l 1,11,-1
 573 145 l 1,0,-1
1535 145 m 1,12,-1
 1713 97 l 1,13,-1
 1713 0 l 1,14,-1
 1060 0 l 1,15,-1
 1060 97 l 1,16,-1
 1239 145 l 1,17,-1
 1239 1250 l 1,18,-1
 1060 1299 l 1,19,-1
 1060 1396 l 1,20,-1
 1713 1396 l 1,21,-1
 1713 1299 l 1,22,-1
 1535 1250 l 1,23,-1
 1535 145 l 1,12,-1
410 623 m 1,24,-1
 410 800 l 1,25,-1
 1403 800 l 1,26,-1
 1403 623 l 1,27,-1
 410 623 l 1,24,-1
EndSplineSet
EndChar

StartChar: I
Encoding: 73 73 13
Width: 849
GlyphClass: 2
Flags: W
AnchorPoint: "Anchor-4" 425 0 basechar 0
AnchorPoint: "Anchor-3" 589 0 basechar 0
LayerCount: 2
Fore
SplineSet
751 97 m 1,0,-1
 751 0 l 1,1,-1
 98 0 l 1,2,-1
 98 97 l 1,3,-1
 276 145 l 1,4,-1
 276 1250 l 1,5,-1
 98 1299 l 1,6,-1
 98 1396 l 1,7,-1
 751 1396 l 1,8,-1
 751 1299 l 1,9,-1
 573 1250 l 1,10,-1
 573 145 l 1,11,-1
 751 97 l 1,0,-1
EndSplineSet
EndChar

StartChar: J
Encoding: 74 74 14
Width: 1131
GlyphClass: 2
Flags: W
AnchorPoint: "Anchor-4" 511 0 basechar 0
LayerCount: 2
Fore
SplineSet
887 430 m 2,0,1
 887 327 887 327 853.5 244 c 128,-1,2
 820 161 820 161 753 102 c 128,-1,3
 686 43 686 43 584.5 11.5 c 128,-1,4
 483 -20 483 -20 347 -20 c 0,5,6
 227 -20 227 -20 156 3 c 128,-1,7
 85 26 85 26 54 67 c 128,-1,8
 23 108 23 108 23 161 c 0,9,10
 23 216 23 216 54 250.5 c 128,-1,11
 85 285 85 285 138 285 c 0,12,13
 156 285 156 285 178.5 265.5 c 128,-1,14
 201 246 201 246 230 221 c 128,-1,15
 259 196 259 196 297.5 176.5 c 128,-1,16
 336 157 336 157 386 157 c 0,17,18
 488 157 488 157 539 207.5 c 128,-1,19
 590 258 590 258 590 381 c 2,20,-1
 590 1250 l 1,21,-1
 410 1299 l 1,22,-1
 410 1396 l 1,23,-1
 1064 1396 l 1,24,-1
 1064 1299 l 1,25,-1
 886 1250 l 1,26,-1
 887 430 l 2,0,1
EndSplineSet
EndChar

StartChar: K
Encoding: 75 75 15
Width: 1684
GlyphClass: 2
Flags: W
AnchorPoint: "Anchor-4" 903 0 basechar 0
LayerCount: 2
Fore
SplineSet
1516 142 m 1,0,-1
 1670 97 l 1,1,-1
 1670 0 l 1,2,-1
 1130 0 l 1,3,-1
 1130 71 l 1,4,-1
 1165 105 l 1,5,-1
 725 633 l 1,6,-1
 476 633 l 1,7,-1
 476 808 l 1,8,-1
 743 808 l 1,9,-1
 1192 1258 l 1,10,-1
 1030 1299 l 1,11,-1
 1030 1396 l 1,12,-1
 1576 1396 l 1,13,-1
 1576 1299 l 1,14,-1
 1413 1250 l 1,15,-1
 858 706 l 1,16,-1
 919 856 l 1,17,-1
 1516 142 l 1,0,-1
573 1250 m 1,18,-1
 573 145 l 1,19,-1
 750 97 l 1,20,-1
 750 0 l 1,21,-1
 98 0 l 1,22,-1
 98 97 l 1,23,-1
 276 145 l 1,24,-1
 276 1250 l 1,25,-1
 98 1299 l 1,26,-1
 98 1396 l 1,27,-1
 751 1396 l 1,28,-1
 751 1299 l 1,29,-1
 573 1250 l 1,18,-1
EndSplineSet
EndChar

StartChar: L
Encoding: 76 76 16
Width: 1398
GlyphClass: 2
Flags: W
AnchorPoint: "Anchor-4" 702 0 basechar 0
AnchorPoint: "Anchor-3" 810 1395 basechar 0
LayerCount: 2
Fore
SplineSet
1259 -79 m 1,0,-1
 1148 -79 l 1,1,-1
 1069 0 l 1,2,-1
 417 0 l 1,3,-1
 420 176 l 1,4,-1
 1124 176 l 1,5,-1
 1018 90 l 1,6,-1
 1220 502 l 1,7,-1
 1352 499 l 1,8,-1
 1259 -79 l 1,0,-1
573 1250 m 1,9,-1
 573 0 l 1,10,-1
 98 0 l 1,11,-1
 98 97 l 1,12,-1
 276 145 l 1,13,-1
 276 1250 l 1,14,-1
 98 1299 l 1,15,-1
 98 1396 l 1,16,-1
 751 1396 l 1,17,-1
 751 1299 l 1,18,-1
 573 1250 l 1,9,-1
EndSplineSet
EndChar

StartChar: M
Encoding: 77 77 17
Width: 2222
GlyphClass: 2
Flags: W
AnchorPoint: "Anchor-4" 1061 0 basechar 0
LayerCount: 2
Fore
SplineSet
1974 148 m 1,0,-1
 2150 97 l 1,1,-1
 2150 0 l 1,2,-1
 1511 0 l 1,3,-1
 1511 97 l 1,4,-1
 1675 144 l 1,5,-1
 1604 1216 l 1,6,-1
 1617 1214 l 1,7,-1
 1189 -3 l 1,8,-1
 904 -3 l 1,9,-1
 480 1203 l 1,10,-1
 491 1205 l 1,11,-1
 425 146 l 1,12,-1
 588 97 l 1,13,-1
 588 0 l 1,14,-1
 79 0 l 1,15,-1
 79 97 l 1,16,-1
 245 147 l 1,17,-1
 319 1233 l 1,18,-1
 128 1299 l 1,19,-1
 128 1396 l 1,20,-1
 725 1396 l 1,21,-1
 1120 247 l 1,22,-1
 1101 247 l 1,23,-1
 1497 1396 l 1,24,-1
 2080 1396 l 1,25,-1
 2080 1299 l 1,26,-1
 1902 1241 l 1,27,-1
 1974 148 l 1,0,-1
EndSplineSet
EndChar

StartChar: N
Encoding: 78 78 18
Width: 1729
GlyphClass: 2
Flags: W
AnchorPoint: "Anchor-4" 901 0 basechar 0
LayerCount: 2
Fore
SplineSet
277 145 m 1,0,-1
 277 1242 l 1,1,-1
 96 1299 l 1,2,-1
 96 1396 l 1,3,-1
 646 1396 l 1,4,-1
 1357 214 l 1,5,-1
 1293 140 l 1,6,-1
 1293 1251 l 1,7,-1
 1106 1299 l 1,8,-1
 1106 1396 l 1,9,-1
 1648 1396 l 1,10,-1
 1648 1299 l 1,11,-1
 1473 1251 l 1,12,-1
 1473 -3 l 1,13,-1
 1155 -3 l 1,14,-1
 395 1263 l 1,15,-1
 458 1281 l 1,16,-1
 458 145 l 1,17,-1
 645 97 l 1,18,-1
 645 0 l 1,19,-1
 103 0 l 1,20,-1
 103 97 l 1,21,-1
 277 145 l 1,0,-1
EndSplineSet
EndChar

StartChar: O
Encoding: 79 79 19
Width: 1680
GlyphClass: 2
Flags: W
AnchorPoint: "Anchor-4" 840 0 basechar 0
AnchorPoint: "Anchor-3" 1038 0 basechar 0
AnchorPoint: "Anchor-2" 1163 1396 basechar 0
LayerCount: 2
Fore
SplineSet
848 1419 m 0,0,1
 1017 1419 1017 1419 1151.5 1367.5 c 128,-1,2
 1286 1316 1286 1316 1381 1221.5 c 128,-1,3
 1476 1127 1476 1127 1526 994.5 c 128,-1,4
 1576 862 1576 862 1576 700 c 0,5,6
 1576 537 1576 537 1523.5 404 c 128,-1,7
 1471 271 1471 271 1373.5 175.5 c 128,-1,8
 1276 80 1276 80 1139 28.5 c 128,-1,9
 1002 -23 1002 -23 831 -23 c 0,10,11
 663 -23 663 -23 528.5 28.5 c 128,-1,12
 394 80 394 80 299 174.5 c 128,-1,13
 204 269 204 269 154 401.5 c 128,-1,14
 104 534 104 534 104 696 c 0,15,16
 104 859 104 859 156 992 c 128,-1,17
 208 1125 208 1125 306 1220.5 c 128,-1,18
 404 1316 404 1316 541 1367.5 c 128,-1,19
 678 1419 678 1419 848 1419 c 0,0,1
847 162 m 0,20,21
 984 162 984 162 1078.5 219 c 128,-1,22
 1173 276 1173 276 1222 386 c 128,-1,23
 1271 496 1271 496 1271 655 c 0,24,25
 1271 844 1271 844 1221 972.5 c 128,-1,26
 1171 1101 1171 1101 1073.5 1167 c 128,-1,27
 976 1233 976 1233 833 1233 c 0,28,29
 696 1233 696 1233 601.5 1176.5 c 128,-1,30
 507 1120 507 1120 458 1010.5 c 128,-1,31
 409 901 409 901 409 741 c 0,32,33
 409 553 409 553 459 424 c 128,-1,34
 509 295 509 295 606.5 228.5 c 128,-1,35
 704 162 704 162 847 162 c 0,20,21
EndSplineSet
Substitution2: "Single Substitution lookup 3 subtable" ordmasculine
EndChar

StartChar: P
Encoding: 80 80 20
Width: 1434
GlyphClass: 2
Flags: W
AnchorPoint: "Anchor-4" 425 0 basechar 0
LayerCount: 2
Fore
SplineSet
1073 970 m 0,0,1
 1073 1053 1073 1053 1044 1108.5 c 128,-1,2
 1015 1164 1015 1164 945 1191.5 c 128,-1,3
 875 1219 875 1219 751 1219 c 2,4,-1
 414 1219 l 1,5,-1
 379 1396 l 1,6,-1
 822 1396 l 2,7,8
 1021 1396 1021 1396 1141 1343.5 c 128,-1,9
 1261 1291 1261 1291 1314.5 1196.5 c 128,-1,10
 1368 1102 1368 1102 1368 975 c 0,11,12
 1368 851 1368 851 1316 754 c 128,-1,13
 1264 657 1264 657 1149.5 601 c 128,-1,14
 1035 545 1035 545 848 545 c 2,15,-1
 371 545 l 1,16,-1
 414 718 l 1,17,-1
 812 718 l 2,18,19
 894 718 894 718 952.5 744.5 c 128,-1,20
 1011 771 1011 771 1042 827 c 128,-1,21
 1073 883 1073 883 1073 970 c 0,0,1
573 1396 m 1,22,-1
 573 145 l 1,23,-1
 751 97 l 1,24,-1
 751 0 l 1,25,-1
 98 0 l 1,26,-1
 98 97 l 1,27,-1
 276 145 l 1,28,-1
 276 1250 l 1,29,-1
 98 1299 l 1,30,-1
 98 1396 l 1,31,-1
 573 1396 l 1,22,-1
EndSplineSet
EndChar

StartChar: Q
Encoding: 81 81 21
Width: 1680
GlyphClass: 2
Flags: W
AnchorPoint: "Anchor-4" 847 -400 basechar 0
LayerCount: 2
Fore
SplineSet
743 -240 m 2,0,-1
 355 118 l 2,1,2
 273 193 273 193 217 280.5 c 128,-1,3
 161 368 161 368 132.5 470.5 c 128,-1,4
 104 573 104 573 104 696 c 0,5,6
 104 859 104 859 156 992 c 128,-1,7
 208 1125 208 1125 306 1220.5 c 128,-1,8
 404 1316 404 1316 541 1367.5 c 128,-1,9
 678 1419 678 1419 848 1419 c 0,10,11
 1017 1419 1017 1419 1151.5 1367.5 c 128,-1,12
 1286 1316 1286 1316 1381 1221.5 c 128,-1,13
 1476 1127 1476 1127 1526 994.5 c 128,-1,14
 1576 862 1576 862 1576 700 c 0,15,16
 1576 521 1576 521 1505 378.5 c 128,-1,17
 1434 236 1434 236 1308 145 c 128,-1,18
 1182 54 1182 54 1015.5 28 c 128,-1,19
 849 2 849 2 658 56 c 1,20,-1
 671 108 l 1,21,-1
 1045 -158 l 2,22,23
 1113 -206 1113 -206 1162.5 -235 c 128,-1,24
 1212 -264 1212 -264 1257 -278.5 c 128,-1,25
 1302 -293 1302 -293 1354.5 -295.5 c 128,-1,26
 1407 -298 1407 -298 1479 -293 c 1,27,-1
 1479 -419 l 1,28,29
 1442 -427 1442 -427 1403.5 -433.5 c 128,-1,30
 1365 -440 1365 -440 1319.5 -444 c 128,-1,31
 1274 -448 1274 -448 1211 -448 c 0,32,33
 1133 -448 1133 -448 1073.5 -437.5 c 128,-1,34
 1014 -427 1014 -427 962.5 -403.5 c 128,-1,35
 911 -380 911 -380 858.5 -340 c 128,-1,36
 806 -300 806 -300 743 -240 c 2,0,-1
847 166 m 0,37,38
 984 166 984 166 1078.5 222.5 c 128,-1,39
 1173 279 1173 279 1222 388 c 128,-1,40
 1271 497 1271 497 1271 655 c 0,41,42
 1271 844 1271 844 1221 972.5 c 128,-1,43
 1171 1101 1171 1101 1073.5 1167 c 128,-1,44
 976 1233 976 1233 833 1233 c 0,45,46
 696 1233 696 1233 601.5 1176.5 c 128,-1,47
 507 1120 507 1120 458 1010.5 c 128,-1,48
 409 901 409 901 409 741 c 0,49,50
 409 554 409 554 459 425.5 c 128,-1,51
 509 297 509 297 606.5 231.5 c 128,-1,52
 704 166 704 166 847 166 c 0,37,38
EndSplineSet
EndChar

StartChar: R
Encoding: 82 82 22
Width: 1560
GlyphClass: 2
Flags: W
AnchorPoint: "Anchor-4" 852 0 basechar 0
LayerCount: 2
Fore
SplineSet
837 771 m 2,0,1
 953 771 953 771 1017.5 824.5 c 128,-1,2
 1082 878 1082 878 1082 996 c 0,3,4
 1082 1071 1082 1071 1055 1120.5 c 128,-1,5
 1028 1170 1028 1170 962.5 1194.5 c 128,-1,6
 897 1219 897 1219 781 1219 c 2,7,-1
 404 1219 l 1,8,-1
 411 1396 l 1,9,-1
 893 1396 l 2,10,11
 1071 1396 1071 1396 1176.5 1352 c 128,-1,12
 1282 1308 1282 1308 1328.5 1229 c 128,-1,13
 1375 1150 1375 1150 1375 1045 c 0,14,15
 1375 950 1375 950 1335.5 875 c 128,-1,16
 1296 800 1296 800 1215.5 752.5 c 128,-1,17
 1135 705 1135 705 1010 688 c 1,18,-1
 1010 695 l 1,19,20
 1110 689 1110 689 1167 663.5 c 128,-1,21
 1224 638 1224 638 1253.5 590.5 c 128,-1,22
 1283 543 1283 543 1298 470 c 2,23,-1
 1349 259 l 2,24,25
 1363 198 1363 198 1380 168 c 128,-1,26
 1397 138 1397 138 1426.5 129 c 128,-1,27
 1456 120 1456 120 1509 120 c 1,28,-1
 1509 0 l 1,29,30
 1375 -8 1375 -8 1292 -4 c 128,-1,31
 1209 0 1209 0 1162 21 c 128,-1,32
 1115 42 1115 42 1091.5 85 c 128,-1,33
 1068 128 1068 128 1053 198 c 2,34,-1
 1004 423 l 2,35,36
 988 498 988 498 966.5 539 c 128,-1,37
 945 580 945 580 904.5 596.5 c 128,-1,38
 864 613 864 613 789 613 c 2,39,-1
 410 613 l 1,40,-1
 403 771 l 1,41,-1
 837 771 l 2,0,1
573 1396 m 1,42,-1
 573 145 l 1,43,-1
 744 97 l 1,44,-1
 744 0 l 1,45,-1
 98 0 l 1,46,-1
 98 97 l 1,47,-1
 276 145 l 1,48,-1
 276 1250 l 1,49,-1
 98 1299 l 1,50,-1
 98 1396 l 1,51,-1
 573 1396 l 1,42,-1
EndSplineSet
EndChar

StartChar: S
Encoding: 83 83 23
Width: 1316
GlyphClass: 2
Flags: W
AnchorPoint: "Anchor-4" 663 0 basechar 0
LayerCount: 2
Fore
SplineSet
1075 1335 m 1,0,-1
 924 1352 l 1,1,-1
 1028 1471 l 1,2,-1
 1134 1471 l 1,3,-1
 1152 980 l 1,4,-1
 1012 978 l 1,5,-1
 893 1264 l 1,6,-1
 965 1184 l 1,7,8
 906 1224 906 1224 837.5 1240.5 c 128,-1,9
 769 1257 769 1257 685 1257 c 0,10,11
 548 1257 548 1257 472.5 1215 c 128,-1,12
 397 1173 397 1173 397 1074 c 0,13,14
 397 1013 397 1013 426 975 c 128,-1,15
 455 937 455 937 506.5 913.5 c 128,-1,16
 558 890 558 890 624.5 874.5 c 128,-1,17
 691 859 691 859 766 842 c 0,18,19
 841 826 841 826 918 802 c 128,-1,20
 995 778 995 778 1060 734 c 128,-1,21
 1125 690 1125 690 1164.5 614.5 c 128,-1,22
 1204 539 1204 539 1204 420 c 0,23,24
 1204 267 1204 267 1130.5 169 c 128,-1,25
 1057 71 1057 71 919.5 24 c 128,-1,26
 782 -23 782 -23 587 -23 c 0,27,28
 466 -23 466 -23 369.5 -13 c 128,-1,29
 273 -3 273 -3 173 30 c 1,30,-1
 113 433 l 1,31,-1
 248 433 l 1,32,-1
 464 38 l 1,33,-1
 225 217 l 1,34,35
 313 176 313 176 389 159 c 128,-1,36
 465 142 465 142 567 142 c 0,37,38
 695 142 695 142 775.5 164.5 c 128,-1,39
 856 187 856 187 893.5 235.5 c 128,-1,40
 931 284 931 284 931 362 c 0,41,42
 931 431 931 431 896 473.5 c 128,-1,43
 861 516 861 516 802 540 c 128,-1,44
 743 564 743 564 670.5 580 c 128,-1,45
 598 596 598 596 524 613 c 0,46,47
 449 630 449 630 379 655.5 c 128,-1,48
 309 681 309 681 253 724.5 c 128,-1,49
 197 768 197 768 164 838 c 128,-1,50
 131 908 131 908 131 1014 c 0,51,52
 131 1147 131 1147 197 1237 c 128,-1,53
 263 1327 263 1327 389 1373 c 128,-1,54
 515 1419 515 1419 692 1419 c 0,55,56
 799 1419 799 1419 890 1399.5 c 128,-1,57
 981 1380 981 1380 1075 1335 c 1,0,-1
EndSplineSet
EndChar

StartChar: T
Encoding: 84 84 24
Width: 1542
GlyphClass: 2
Flags: W
AnchorPoint: "Anchor-4" 771 0 basechar 0
LayerCount: 2
Fore
SplineSet
622 1334 m 1,0,-1
 918 1334 l 1,1,-1
 918 145 l 1,2,-1
 1107 97 l 1,3,-1
 1107 0 l 1,4,-1
 433 0 l 1,5,-1
 433 97 l 1,6,-1
 622 145 l 1,7,-1
 622 1334 l 1,0,-1
1289 1219 m 1,8,-1
 248 1219 l 1,9,-1
 334 1280 l 1,10,-1
 190 931 l 1,11,-1
 52 933 l 1,12,-1
 118 1483 l 1,13,-1
 218 1483 l 1,14,-1
 326 1367 l 1,15,-1
 198 1396 l 1,16,-1
 1339 1396 l 1,17,-1
 1215 1367 l 1,18,-1
 1324 1483 l 1,19,-1
 1424 1483 l 1,20,-1
 1490 933 l 1,21,-1
 1352 931 l 1,22,-1
 1207 1280 l 1,23,-1
 1289 1219 l 1,8,-1
EndSplineSet
EndChar

StartChar: U
Encoding: 85 85 25
Width: 1696
GlyphClass: 2
Flags: W
AnchorPoint: "Anchor-4" 875 0 basechar 0
AnchorPoint: "Anchor-3" 1076 0 basechar 0
AnchorPoint: "Anchor-2" 1479 1396 basechar 0
LayerCount: 2
Fore
SplineSet
1278 530 m 2,0,-1
 1278 1251 l 1,1,-1
 1098 1299 l 1,2,-1
 1098 1396 l 1,3,-1
 1637 1396 l 1,4,-1
 1637 1299 l 1,5,-1
 1459 1251 l 1,6,-1
 1459 531 l 2,7,8
 1459 347 1459 347 1390.5 223.5 c 128,-1,9
 1322 100 1322 100 1190.5 38.5 c 128,-1,10
 1059 -23 1059 -23 868 -23 c 0,11,12
 659 -23 659 -23 519 36 c 128,-1,13
 379 95 379 95 308 217.5 c 128,-1,14
 237 340 237 340 237 529 c 2,15,-1
 237 1251 l 1,16,-1
 59 1299 l 1,17,-1
 59 1396 l 1,18,-1
 712 1396 l 1,19,-1
 712 1299 l 1,20,-1
 534 1251 l 1,21,-1
 534 536 l 2,22,23
 534 418 534 418 575.5 342 c 128,-1,24
 617 266 617 266 701 229.5 c 128,-1,25
 785 193 785 193 910 193 c 0,26,27
 1032 193 1032 193 1113.5 229 c 128,-1,28
 1195 265 1195 265 1236.5 339.5 c 128,-1,29
 1278 414 1278 414 1278 530 c 2,0,-1
EndSplineSet
EndChar

StartChar: V
Encoding: 86 86 26
Width: 1633
GlyphClass: 2
Flags: W
AnchorPoint: "Anchor-4" 838 0 basechar 0
LayerCount: 2
Fore
SplineSet
173 1249 m 1,0,-1
 -4 1299 l 1,1,-1
 -4 1396 l 1,2,-1
 670 1396 l 1,3,-1
 670 1299 l 1,4,-1
 494 1254 l 1,5,-1
 928 136 l 1,6,-1
 880 136 l 1,7,-1
 1263 1252 l 1,8,-1
 1090 1299 l 1,9,-1
 1090 1396 l 1,10,-1
 1620 1396 l 1,11,-1
 1620 1299 l 1,12,-1
 1457 1254 l 1,13,-1
 995 -14 l 1,14,-1
 680 -14 l 1,15,-1
 173 1249 l 1,0,-1
EndSplineSet
EndChar

StartChar: W
Encoding: 87 87 27
Width: 2262
GlyphClass: 2
Flags: W
AnchorPoint: "Anchor-4" 1162 0 basechar 0
LayerCount: 2
Fore
SplineSet
1172 1150 m 1,0,-1
 796 -3 l 1,1,-1
 466 -3 l 1,2,-1
 187 1249 l 1,3,-1
 11 1299 l 1,4,-1
 11 1396 l 1,5,-1
 674 1396 l 1,6,-1
 674 1299 l 1,7,-1
 505 1255 l 1,8,-1
 733 148 l 1,9,-1
 672 144 l 1,10,-1
 1059 1399 l 1,11,-1
 1344 1399 l 1,12,-1
 1756 123 l 1,13,-1
 1672 108 l 1,14,-1
 1893 1253 l 1,15,-1
 1726 1299 l 1,16,-1
 1726 1396 l 1,17,-1
 2245 1396 l 1,18,-1
 2245 1299 l 1,19,-1
 2083 1255 l 1,20,-1
 1804 -3 l 1,21,-1
 1488 -3 l 1,22,-1
 1119 1144 l 1,23,-1
 1172 1150 l 1,0,-1
EndSplineSet
EndChar

StartChar: X
Encoding: 88 88 28
Width: 1691
GlyphClass: 2
Flags: W
AnchorPoint: "Anchor-4" 838 0 basechar 0
LayerCount: 2
Fore
SplineSet
825 646 m 1,0,-1
 419 143 l 1,1,-1
 580 97 l 1,2,-1
 580 0 l 1,3,-1
 41 0 l 1,4,-1
 41 97 l 1,5,-1
 199 146 l 1,6,-1
 717 768 l 1,7,-1
 870 799 l 1,8,-1
 1223 1252 l 1,9,-1
 1067 1299 l 1,10,-1
 1067 1396 l 1,11,-1
 1594 1396 l 1,12,-1
 1594 1299 l 1,13,-1
 1436 1250 l 1,14,-1
 966 672 l 1,15,-1
 825 646 l 1,0,-1
1122 146 m 1,16,-1
 729 633 l 1,17,-1
 694 673 l 1,18,-1
 226 1248 l 1,19,-1
 65 1299 l 1,20,-1
 65 1396 l 1,21,-1
 788 1396 l 1,22,-1
 788 1299 l 1,23,-1
 618 1250 l 1,24,-1
 951 834 l 1,25,-1
 984 796 l 1,26,-1
 1513 148 l 1,27,-1
 1675 97 l 1,28,-1
 1675 0 l 1,29,-1
 952 0 l 1,30,-1
 952 97 l 1,31,-1
 1122 146 l 1,16,-1
EndSplineSet
EndChar

StartChar: Y
Encoding: 89 89 29
Width: 1579
GlyphClass: 2
Flags: W
AnchorPoint: "Anchor-4" 811 0 basechar 0
LayerCount: 2
Fore
SplineSet
160 1252 m 1,0,-1
 2 1299 l 1,1,-1
 2 1396 l 1,2,-1
 692 1396 l 1,3,-1
 692 1299 l 1,4,-1
 524 1252 l 1,5,-1
 925 703 l 1,6,-1
 846 702 l 1,7,-1
 1206 1252 l 1,8,-1
 1035 1299 l 1,9,-1
 1035 1396 l 1,10,-1
 1552 1396 l 1,11,-1
 1552 1299 l 1,12,-1
 1408 1252 l 1,13,-1
 959 593 l 1,14,-1
 959 145 l 1,15,-1
 1138 97 l 1,16,-1
 1138 0 l 1,17,-1
 485 0 l 1,18,-1
 485 97 l 1,19,-1
 663 145 l 1,20,-1
 663 587 l 1,21,-1
 160 1252 l 1,0,-1
EndSplineSet
EndChar

StartChar: Z
Encoding: 90 90 30
Width: 1415
GlyphClass: 2
Flags: W
AnchorPoint: "Anchor-4" 685 0 basechar 0
LayerCount: 2
Fore
SplineSet
1272 1396 m 1,0,-1
 1272 1253 l 1,1,-1
 436 117 l 1,2,-1
 323 176 l 1,3,-1
 1073 176 l 1,4,-1
 1223 456 l 1,5,-1
 1343 454 l 1,6,-1
 1262 -76 l 1,7,-1
 1154 -76 l 1,8,-1
 1079 0 l 1,9,-1
 119 0 l 1,10,-1
 119 143 l 1,11,-1
 952 1278 l 1,12,-1
 1083 1219 l 1,13,-1
 342 1219 l 1,14,-1
 236 955 l 1,15,-1
 115 958 l 1,16,-1
 135 1469 l 1,17,-1
 230 1469 l 1,18,-1
 332 1396 l 1,19,-1
 1272 1396 l 1,0,-1
EndSplineSet
EndChar

StartChar: Aogonek
Encoding: 260 260 39
Width: 1669
GlyphClass: 1
Flags: W
LayerCount: 2
Fore
SplineSet
420 447 m 1,0,-1
 420 615 l 1,1,-1
 1135 615 l 1,2,-1
 1135 447 l 1,3,-1
 420 447 l 1,0,-1
1492 147 m 1,4,-1
 1668 97 l 1,5,-1
 1668 0 l 1,6,-1
 996 0 l 1,7,-1
 996 97 l 1,8,-1
 1171 142 l 1,9,-1
 733 1259 l 1,10,-1
 780 1259 l 1,11,-1
 375 143 l 1,12,-1
 547 97 l 1,13,-1
 547 0 l 1,14,-1
 11 0 l 1,15,-1
 11 97 l 1,16,-1
 175 142 l 1,17,-1
 665 1409 l 1,18,-1
 980 1409 l 1,19,-1
 1492 147 l 1,4,-1
1350 -83 m 2,20,21
 1312 -153 1312 -153 1299.5 -192.5 c 128,-1,22
 1287 -232 1287 -232 1287 -267 c 0,23,24
 1287 -310 1287 -310 1312 -333 c 128,-1,25
 1337 -356 1337 -356 1379 -356 c 0,26,27
 1409 -356 1409 -356 1436 -348 c 128,-1,28
 1463 -340 1463 -340 1504 -314 c 1,29,-1
 1512 -385 l 1,30,31
 1472 -421 1472 -421 1439 -442 c 128,-1,32
 1406 -463 1406 -463 1374 -472 c 128,-1,33
 1342 -481 1342 -481 1303 -481 c 0,34,35
 1211 -481 1211 -481 1167.5 -437.5 c 128,-1,36
 1124 -394 1124 -394 1124 -320 c 0,37,38
 1124 -287 1124 -287 1132.5 -254 c 128,-1,39
 1141 -221 1141 -221 1166.5 -178 c 128,-1,40
 1192 -135 1192 -135 1242 -73 c 2,41,-1
 1346 57 l 1,42,-1
 1429 57 l 1,43,-1
 1350 -83 l 2,20,21
EndSplineSet
EndChar

StartChar: AE
Encoding: 198 198 55
Width: 2319
GlyphClass: 2
Flags: W
AnchorPoint: "Anchor-4" 1205 0 basechar 0
LayerCount: 2
Fore
SplineSet
532 462 m 1,0,-1
 532 630 l 1,1,-1
 1176 630 l 1,2,-1
 1176 462 l 1,3,-1
 532 462 l 1,0,-1
1015 1396 m 1,4,-1
 1151 1396 l 1,5,-1
 1151 1292 l 1,6,-1
 372 143 l 1,7,-1
 545 97 l 1,8,-1
 545 0 l 1,9,-1
 -5 0 l 1,10,-1
 -5 97 l 1,11,-1
 160 142 l 1,12,-1
 1015 1396 l 1,4,-1
717 1299 m 1,13,-1
 717 1396 l 1,14,-1
 1049 1396 l 1,15,-1
 988 1225 l 1,16,-1
 717 1299 l 1,13,-1
1877 984 m 1,17,-1
 1877 727 l 1,18,-1
 1877 470 l 1,19,-1
 1745 470 l 1,20,-1
 1726 649 l 1,21,-1
 1245 649 l 1,22,-1
 1245 808 l 1,23,-1
 1726 808 l 1,24,-1
 1745 984 l 1,25,-1
 1877 984 l 1,17,-1
2191 999 m 1,26,-1
 2058 996 l 1,27,-1
 1934 1320 l 1,28,-1
 2027 1228 l 1,29,-1
 1245 1228 l 1,30,-1
 1245 1396 l 1,31,-1
 1977 1396 l 1,32,-1
 2077 1469 l 1,33,-1
 2173 1469 l 1,34,-1
 2191 999 l 1,26,-1
1927 77 m 1,35,-1
 2110 449 l 1,36,-1
 2241 446 l 1,37,-1
 2158 -78 l 1,38,-1
 2048 -78 l 1,39,-1
 1971 0 l 1,40,-1
 1245 0 l 1,41,-1
 1245 168 l 1,42,-1
 2007 168 l 1,43,-1
 1927 77 l 1,35,-1
926 0 m 1,44,-1
 926 97 l 1,45,-1
 1104 145 l 1,46,-1
 1104 1396 l 1,47,-1
 1401 1396 l 1,48,-1
 1401 0 l 1,49,-1
 926 0 l 1,44,-1
EndSplineSet
EndChar

StartChar: Ccedilla
Encoding: 199 199 57
Width: 1533
GlyphClass: 1
Flags: W
LayerCount: 2
Fore
SplineSet
954 150 m 0,0,1
 1036 150 1036 150 1122 166 c 128,-1,2
 1208 182 1208 182 1286 213 c 1,3,-1
 1145 102 l 1,4,-1
 1306 450 l 1,5,-1
 1429 450 l 1,6,-1
 1386 59 l 1,7,8
 1298 21 1298 21 1175.5 -1 c 128,-1,9
 1053 -23 1053 -23 914 -23 c 0,10,11
 717 -23 717 -23 566 22 c 128,-1,12
 415 67 415 67 312 156.5 c 128,-1,13
 209 246 209 246 156.5 378.5 c 128,-1,14
 104 511 104 511 105 686 c 0,15,16
 107 913 107 913 200.5 1077 c 128,-1,17
 294 1241 294 1241 475 1330 c 128,-1,18
 656 1419 656 1419 918 1419 c 0,19,20
 1012 1419 1012 1419 1095.5 1404.5 c 128,-1,21
 1179 1390 1179 1390 1267 1365 c 1,22,-1
 1186 1356 l 1,23,-1
 1293 1471 l 1,24,-1
 1397 1471 l 1,25,-1
 1413 934 l 1,26,-1
 1273 931 l 1,27,-1
 1152 1266 l 1,28,-1
 1244 1154 l 1,29,30
 1158 1202 1158 1202 1082 1220.5 c 128,-1,31
 1006 1239 1006 1239 913 1239 c 0,32,33
 783 1239 783 1239 689 1208.5 c 128,-1,34
 595 1178 595 1178 534 1115.5 c 128,-1,35
 473 1053 473 1053 442.5 959.5 c 128,-1,36
 412 866 412 866 409 739 c 0,37,38
 407 590 407 590 443.5 479.5 c 128,-1,39
 480 369 480 369 551.5 295.5 c 128,-1,40
 623 222 623 222 725 186 c 128,-1,41
 827 150 827 150 954 150 c 0,0,1
764 -481 m 0,42,43
 670 -481 670 -481 636 -458 c 128,-1,44
 602 -435 602 -435 602 -395 c 0,45,46
 602 -365 602 -365 620 -348.5 c 128,-1,47
 638 -332 638 -332 658 -332 c 0,48,49
 672 -332 672 -332 692.5 -348 c 128,-1,50
 713 -364 713 -364 739.5 -380 c 128,-1,51
 766 -396 766 -396 798 -396 c 0,52,53
 847 -396 847 -396 870 -377.5 c 128,-1,54
 893 -359 893 -359 893 -324 c 0,55,56
 893 -299 893 -299 877 -281.5 c 128,-1,57
 861 -264 861 -264 813 -250 c 128,-1,58
 765 -236 765 -236 670 -222 c 1,59,-1
 670 -196 l 1,60,-1
 852 36 l 1,61,-1
 967 36 l 1,62,-1
 788 -188 l 1,63,-1
 781 -94 l 1,64,65
 891 -113 891 -113 948 -140.5 c 128,-1,66
 1005 -168 1005 -168 1025.5 -203.5 c 128,-1,67
 1046 -239 1046 -239 1046 -283 c 0,68,69
 1046 -349 1046 -349 1010 -393 c 128,-1,70
 974 -437 974 -437 910.5 -459 c 128,-1,71
 847 -481 847 -481 764 -481 c 0,42,43
EndSplineSet
EndChar

StartChar: Dcroat
Encoding: 272 272 63
Width: 1683
GlyphClass: 1
Flags: W
LayerCount: 2
Fore
SplineSet
102 632 m 1,0,-1
 102 777 l 1,1,-1
 870 777 l 1,2,-1
 870 632 l 1,3,-1
 102 632 l 1,0,-1
1271 714 m 0,4,5
 1271 974 1271 974 1145.5 1096.5 c 128,-1,6
 1020 1219 1020 1219 757 1219 c 2,7,-1
 428 1219 l 1,8,-1
 412 1396 l 1,9,-1
 820 1396 l 2,10,11
 1071 1396 1071 1396 1239.5 1320.5 c 128,-1,12
 1408 1245 1408 1245 1492.5 1096.5 c 128,-1,13
 1577 948 1577 948 1577 730 c 0,14,15
 1577 494 1577 494 1481 331 c 128,-1,16
 1385 168 1385 168 1213.5 84 c 128,-1,17
 1042 0 1042 0 814 0 c 2,18,-1
 412 0 l 1,19,-1
 428 176 l 1,20,-1
 800 176 l 2,21,22
 952 176 952 176 1057 231.5 c 128,-1,23
 1162 287 1162 287 1216.5 405.5 c 128,-1,24
 1271 524 1271 524 1271 714 c 0,4,5
102 0 m 1,25,-1
 102 97 l 1,26,-1
 280 145 l 1,27,-1
 280 1250 l 1,28,-1
 102 1299 l 1,29,-1
 102 1396 l 1,30,-1
 576 1396 l 1,31,-1
 576 0 l 1,32,-1
 102 0 l 1,25,-1
EndSplineSet
EndChar

StartChar: Eogonek
Encoding: 280 280 71
Width: 1491
GlyphClass: 1
Flags: W
LayerCount: 2
Fore
SplineSet
1049 984 m 1,0,-1
 1049 727 l 1,1,-1
 1049 470 l 1,2,-1
 917 470 l 1,3,-1
 898 649 l 1,4,-1
 417 649 l 1,5,-1
 417 808 l 1,6,-1
 898 808 l 1,7,-1
 917 984 l 1,8,-1
 1049 984 l 1,0,-1
1363 999 m 1,9,-1
 1230 996 l 1,10,-1
 1106 1320 l 1,11,-1
 1199 1228 l 1,12,-1
 417 1228 l 1,13,-1
 417 1396 l 1,14,-1
 1149 1396 l 1,15,-1
 1249 1469 l 1,16,-1
 1345 1469 l 1,17,-1
 1363 999 l 1,9,-1
1099 77 m 1,18,-1
 1282 449 l 1,19,-1
 1413 446 l 1,20,-1
 1330 -78 l 1,21,-1
 1220 -78 l 1,22,-1
 1143 0 l 1,23,-1
 417 0 l 1,24,-1
 417 168 l 1,25,-1
 1179 168 l 1,26,-1
 1099 77 l 1,18,-1
98 0 m 1,27,-1
 98 97 l 1,28,-1
 276 145 l 1,29,-1
 276 1250 l 1,30,-1
 98 1299 l 1,31,-1
 98 1396 l 1,32,-1
 573 1396 l 1,33,-1
 573 0 l 1,34,-1
 98 0 l 1,27,-1
1114 -82 m 2,35,36
 1087 -127 1087 -127 1071.5 -159.5 c 128,-1,37
 1056 -192 1056 -192 1049.5 -216.5 c 128,-1,38
 1043 -241 1043 -241 1043 -264 c 0,39,40
 1043 -309 1043 -309 1067.5 -332.5 c 128,-1,41
 1092 -356 1092 -356 1135 -356 c 0,42,43
 1166 -356 1166 -356 1192.5 -348 c 128,-1,44
 1219 -340 1219 -340 1260 -314 c 1,45,-1
 1268 -385 l 1,46,47
 1228 -421 1228 -421 1195 -442 c 128,-1,48
 1162 -463 1162 -463 1130 -472 c 128,-1,49
 1098 -481 1098 -481 1059 -481 c 0,50,51
 967 -481 967 -481 923.5 -437.5 c 128,-1,52
 880 -394 880 -394 880 -320 c 0,53,54
 880 -287 880 -287 889.5 -253 c 128,-1,55
 899 -219 899 -219 925.5 -176 c 128,-1,56
 952 -133 952 -133 1004 -71 c 2,57,-1
 1112 57 l 1,58,-1
 1195 57 l 1,59,-1
 1114 -82 l 2,35,36
EndSplineSet
EndChar

StartChar: Hbar
Encoding: 294 294 89
Width: 1817
GlyphClass: 1
Flags: W
LayerCount: 2
Fore
SplineSet
576 145 m 1,0,-1
 754 97 l 1,1,-1
 754 0 l 1,2,-1
 101 0 l 1,3,-1
 101 97 l 1,4,-1
 279 145 l 1,5,-1
 279 1250 l 1,6,-1
 101 1299 l 1,7,-1
 101 1396 l 1,8,-1
 754 1396 l 1,9,-1
 754 1299 l 1,10,-1
 576 1250 l 1,11,-1
 576 145 l 1,0,-1
1538 145 m 1,12,-1
 1716 97 l 1,13,-1
 1716 0 l 1,14,-1
 1063 0 l 1,15,-1
 1063 97 l 1,16,-1
 1242 145 l 1,17,-1
 1242 1250 l 1,18,-1
 1063 1299 l 1,19,-1
 1063 1396 l 1,20,-1
 1716 1396 l 1,21,-1
 1716 1299 l 1,22,-1
 1538 1250 l 1,23,-1
 1538 145 l 1,12,-1
101 978 m 1,24,-1
 101 1123 l 1,25,-1
 1716 1123 l 1,26,-1
 1716 978 l 1,27,-1
 101 978 l 1,24,-1
413 623 m 1,28,-1
 413 800 l 1,29,-1
 1405 800 l 1,30,-1
 1405 623 l 1,31,-1
 413 623 l 1,28,-1
EndSplineSet
EndChar

StartChar: Iogonek
Encoding: 302 302 97
Width: 849
GlyphClass: 1
Flags: W
LayerCount: 2
Fore
SplineSet
751 97 m 1,0,-1
 751 0 l 1,1,-1
 98 0 l 1,2,-1
 98 97 l 1,3,-1
 276 145 l 1,4,-1
 276 1250 l 1,5,-1
 98 1299 l 1,6,-1
 98 1396 l 1,7,-1
 751 1396 l 1,8,-1
 751 1299 l 1,9,-1
 573 1250 l 1,10,-1
 573 145 l 1,11,-1
 751 97 l 1,0,-1
436 -79 m 2,12,13
 412 -125 412 -125 399.5 -158.5 c 128,-1,14
 387 -192 387 -192 382.5 -218 c 128,-1,15
 378 -244 378 -244 378 -267 c 0,16,17
 378 -310 378 -310 403 -333 c 128,-1,18
 428 -356 428 -356 470 -356 c 0,19,20
 501 -356 501 -356 527.5 -348 c 128,-1,21
 554 -340 554 -340 595 -314 c 1,22,-1
 603 -385 l 1,23,24
 563 -421 563 -421 530 -442 c 128,-1,25
 497 -463 497 -463 465 -472 c 128,-1,26
 433 -481 433 -481 394 -481 c 0,27,28
 302 -481 302 -481 258.5 -437.5 c 128,-1,29
 215 -394 215 -394 215 -320 c 0,30,31
 215 -287 215 -287 223 -253.5 c 128,-1,32
 231 -220 231 -220 255 -176.5 c 128,-1,33
 279 -133 279 -133 325 -71 c 2,34,-1
 420 57 l 1,35,-1
 504 57 l 1,36,-1
 436 -79 l 2,12,13
EndSplineSet
EndChar

StartChar: Lslash
Encoding: 321 321 107
Width: 1426
GlyphClass: 1
Flags: W
LayerCount: 2
Fore
SplineSet
395 581 m 1,0,-1
 117 430 l 1,1,-1
 117 586 l 1,2,-1
 395 737 l 1,3,-1
 510 768 l 1,4,-1
 920 991 l 1,5,-1
 920 835 l 1,6,-1
 510 612 l 1,7,-1
 395 581 l 1,0,-1
1288 -79 m 1,8,-1
 1176 -79 l 1,9,-1
 1097 0 l 1,10,-1
 445 0 l 1,11,-1
 448 176 l 1,12,-1
 1152 176 l 1,13,-1
 1046 90 l 1,14,-1
 1248 502 l 1,15,-1
 1380 499 l 1,16,-1
 1288 -79 l 1,8,-1
601 1250 m 1,17,-1
 601 0 l 1,18,-1
 126 0 l 1,19,-1
 126 97 l 1,20,-1
 305 145 l 1,21,-1
 305 1250 l 1,22,-1
 126 1299 l 1,23,-1
 126 1396 l 1,24,-1
 779 1396 l 1,25,-1
 779 1299 l 1,26,-1
 601 1250 l 1,17,-1
EndSplineSet
EndChar

StartChar: Eng
Encoding: 330 330 114
Width: 1729
GlyphClass: 1
Flags: W
LayerCount: 2
Fore
SplineSet
1342 398 m 1,0,-1
 1336 -91 l 1,1,-1
 395 1263 l 1,2,-1
 458 1281 l 1,3,-1
 458 145 l 1,4,-1
 645 97 l 1,5,-1
 645 0 l 1,6,-1
 103 0 l 1,7,-1
 103 97 l 1,8,-1
 277 145 l 1,9,-1
 277 1242 l 1,10,-1
 96 1299 l 1,11,-1
 96 1396 l 1,12,-1
 650 1396 l 1,13,-1
 1342 398 l 1,0,-1
1473 -72 m 2,14,15
 1473 -213 1473 -213 1427.5 -303.5 c 128,-1,16
 1382 -394 1382 -394 1291.5 -437.5 c 128,-1,17
 1201 -481 1201 -481 1065 -481 c 0,18,19
 919 -481 919 -481 859.5 -437 c 128,-1,20
 800 -393 800 -393 800 -324 c 0,21,22
 800 -277 800 -277 828 -242 c 128,-1,23
 856 -207 856 -207 899 -207 c 0,24,25
 913 -207 913 -207 934.5 -221.5 c 128,-1,26
 956 -236 956 -236 983 -254.5 c 128,-1,27
 1010 -273 1010 -273 1040.5 -287.5 c 128,-1,28
 1071 -302 1071 -302 1103 -302 c 0,29,30
 1166 -302 1166 -302 1208 -281 c 128,-1,31
 1250 -260 1250 -260 1271.5 -210 c 128,-1,32
 1293 -160 1293 -160 1293 -73 c 2,33,-1
 1293 1251 l 1,34,-1
 1106 1299 l 1,35,-1
 1106 1396 l 1,36,-1
 1648 1396 l 1,37,-1
 1648 1299 l 1,38,-1
 1473 1251 l 1,39,-1
 1473 -72 l 2,14,15
EndSplineSet
EndChar

StartChar: Ohorn
Encoding: 416 416 123
Width: 1690
GlyphClass: 2
Flags: W
AnchorPoint: "Anchor-4" 840 0 basechar 0
LayerCount: 2
Fore
SplineSet
847 162 m 0,0,1
 984 162 984 162 1078.5 219 c 128,-1,2
 1173 276 1173 276 1222 386 c 128,-1,3
 1271 496 1271 496 1271 655 c 0,4,5
 1271 844 1271 844 1221 972.5 c 128,-1,6
 1171 1101 1171 1101 1073.5 1167 c 128,-1,7
 976 1233 976 1233 833 1233 c 0,8,9
 696 1233 696 1233 601.5 1176.5 c 128,-1,10
 507 1120 507 1120 458 1010.5 c 128,-1,11
 409 901 409 901 409 741 c 0,12,13
 409 553 409 553 459 424 c 128,-1,14
 509 295 509 295 606.5 228.5 c 128,-1,15
 704 162 704 162 847 162 c 0,0,1
848 1419 m 0,16,17
 921 1419 921 1419 977.5 1412.5 c 128,-1,18
 1034 1406 1034 1406 1085.5 1399 c 128,-1,19
 1137 1392 1137 1392 1192 1392 c 0,20,21
 1283 1392 1283 1392 1319.5 1420 c 128,-1,22
 1356 1448 1356 1448 1356 1492 c 0,23,24
 1356 1523 1356 1523 1346.5 1546 c 128,-1,25
 1337 1569 1337 1569 1327.5 1585.5 c 128,-1,26
 1318 1602 1318 1602 1318 1611 c 0,27,28
 1319 1642 1319 1642 1351.5 1664.5 c 128,-1,29
 1384 1687 1384 1687 1426 1687 c 0,30,31
 1482 1687 1482 1687 1519.5 1654.5 c 128,-1,32
 1557 1622 1557 1622 1557 1547 c 0,33,34
 1557 1433 1557 1433 1487 1366.5 c 128,-1,35
 1417 1300 1417 1300 1265 1294 c 1,36,-1
 1265 1309 l 1,37,38
 1368 1248 1368 1248 1437 1154.5 c 128,-1,39
 1506 1061 1506 1061 1541 945.5 c 128,-1,40
 1576 830 1576 830 1576 700 c 0,41,42
 1576 537 1576 537 1523.5 404 c 128,-1,43
 1471 271 1471 271 1373.5 175.5 c 128,-1,44
 1276 80 1276 80 1139 28.5 c 128,-1,45
 1002 -23 1002 -23 831 -23 c 0,46,47
 663 -23 663 -23 528.5 28.5 c 128,-1,48
 394 80 394 80 299 174.5 c 128,-1,49
 204 269 204 269 154 401.5 c 128,-1,50
 104 534 104 534 104 696 c 0,51,52
 104 859 104 859 156 992 c 128,-1,53
 208 1125 208 1125 306 1220.5 c 128,-1,54
 404 1316 404 1316 541 1367.5 c 128,-1,55
 678 1419 678 1419 848 1419 c 0,16,17
EndSplineSet
EndChar

StartChar: uni01EA
Encoding: 490 490 124
Width: 1680
GlyphClass: 1
Flags: W
LayerCount: 2
Fore
SplineSet
848 1419 m 0,0,1
 1017 1419 1017 1419 1151.5 1367.5 c 128,-1,2
 1286 1316 1286 1316 1381 1221.5 c 128,-1,3
 1476 1127 1476 1127 1526 994.5 c 128,-1,4
 1576 862 1576 862 1576 700 c 0,5,6
 1576 537 1576 537 1523.5 404 c 128,-1,7
 1471 271 1471 271 1373.5 175.5 c 128,-1,8
 1276 80 1276 80 1139 28.5 c 128,-1,9
 1002 -23 1002 -23 831 -23 c 0,10,11
 663 -23 663 -23 528.5 28.5 c 128,-1,12
 394 80 394 80 299 174.5 c 128,-1,13
 204 269 204 269 154 401.5 c 128,-1,14
 104 534 104 534 104 696 c 0,15,16
 104 859 104 859 156 992 c 128,-1,17
 208 1125 208 1125 306 1220.5 c 128,-1,18
 404 1316 404 1316 541 1367.5 c 128,-1,19
 678 1419 678 1419 848 1419 c 0,0,1
847 162 m 0,20,21
 984 162 984 162 1078.5 219 c 128,-1,22
 1173 276 1173 276 1222 386 c 128,-1,23
 1271 496 1271 496 1271 655 c 0,24,25
 1271 844 1271 844 1221 972.5 c 128,-1,26
 1171 1101 1171 1101 1073.5 1167 c 128,-1,27
 976 1233 976 1233 833 1233 c 0,28,29
 696 1233 696 1233 601.5 1176.5 c 128,-1,30
 507 1120 507 1120 458 1010.5 c 128,-1,31
 409 901 409 901 409 741 c 0,32,33
 409 553 409 553 459 424 c 128,-1,34
 509 295 509 295 606.5 228.5 c 128,-1,35
 704 162 704 162 847 162 c 0,20,21
892 -83 m 2,36,37
 865 -128 865 -128 851 -160.5 c 128,-1,38
 837 -193 837 -193 832 -217.5 c 128,-1,39
 827 -242 827 -242 827 -265 c 0,40,41
 827 -310 827 -310 851.5 -333 c 128,-1,42
 876 -356 876 -356 919 -356 c 0,43,44
 950 -356 950 -356 976.5 -348 c 128,-1,45
 1003 -340 1003 -340 1044 -314 c 1,46,-1
 1052 -385 l 1,47,48
 1012 -421 1012 -421 979 -442 c 128,-1,49
 946 -463 946 -463 914 -472 c 128,-1,50
 882 -481 882 -481 843 -481 c 0,51,52
 751 -481 751 -481 707.5 -437.5 c 128,-1,53
 664 -394 664 -394 664 -320 c 0,54,55
 664 -287 664 -287 672.5 -253.5 c 128,-1,56
 681 -220 681 -220 707 -177 c 128,-1,57
 733 -134 733 -134 785 -73 c 2,58,-1
 892 57 l 1,59,-1
 976 57 l 1,60,-1
 892 -83 l 2,36,37
EndSplineSet
EndChar

StartChar: Oslash
Encoding: 216 216 142
Width: 1714
GlyphClass: 2
Flags: W
AnchorPoint: "Anchor-4" 857 0 basechar 0
LayerCount: 2
Fore
SplineSet
429 327 m 1,0,-1
 1189 1172 l 1,1,-1
 1255 1237 l 1,2,-1
 1401 1396 l 1,3,-1
 1602 1396 l 1,4,-1
 1362 1137 l 1,5,-1
 1287 1068 l 1,6,-1
 527 223 l 1,7,-1
 461 159 l 1,8,-1
 315 0 l 1,9,-1
 114 0 l 1,10,-1
 354 259 l 1,11,-1
 429 327 l 1,0,-1
866 1419 m 0,12,13
 1034 1419 1034 1419 1168.5 1367.5 c 128,-1,14
 1303 1316 1303 1316 1398 1221.5 c 128,-1,15
 1493 1127 1493 1127 1543 994.5 c 128,-1,16
 1593 862 1593 862 1593 700 c 0,17,18
 1593 537 1593 537 1541 404 c 128,-1,19
 1489 271 1489 271 1391 175.5 c 128,-1,20
 1293 80 1293 80 1156 28.5 c 128,-1,21
 1019 -23 1019 -23 849 -23 c 0,22,23
 680 -23 680 -23 545.5 28.5 c 128,-1,24
 411 80 411 80 316.5 174.5 c 128,-1,25
 222 269 222 269 171.5 401.5 c 128,-1,26
 121 534 121 534 121 696 c 0,27,28
 121 859 121 859 173.5 992 c 128,-1,29
 226 1125 226 1125 323.5 1220.5 c 128,-1,30
 421 1316 421 1316 558 1367.5 c 128,-1,31
 695 1419 695 1419 866 1419 c 0,12,13
864 162 m 0,32,33
 1001 162 1001 162 1095.5 219 c 128,-1,34
 1190 276 1190 276 1239 386 c 128,-1,35
 1288 496 1288 496 1288 655 c 0,36,37
 1288 844 1288 844 1238.5 972.5 c 128,-1,38
 1189 1101 1189 1101 1091.5 1167 c 128,-1,39
 994 1233 994 1233 851 1233 c 0,40,41
 714 1233 714 1233 619 1176.5 c 128,-1,42
 524 1120 524 1120 475 1010.5 c 128,-1,43
 426 901 426 901 426 741 c 0,44,45
 426 553 426 553 476 424 c 128,-1,46
 526 295 526 295 623.5 228.5 c 128,-1,47
 721 162 721 162 864 162 c 0,32,33
EndSplineSet
EndChar

StartChar: OE
Encoding: 338 338 144
Width: 2330
GlyphClass: 1
Flags: W
LayerCount: 2
Fore
SplineSet
1887 984 m 1,0,-1
 1887 727 l 1,1,-1
 1887 470 l 1,2,-1
 1755 470 l 1,3,-1
 1737 649 l 1,4,-1
 1256 649 l 1,5,-1
 1256 808 l 1,6,-1
 1737 808 l 1,7,-1
 1755 984 l 1,8,-1
 1887 984 l 1,0,-1
1115 1396 m 1,9,-1
 1411 1396 l 1,10,-1
 1411 0 l 1,11,-1
 1115 0 l 1,12,-1
 1115 1396 l 1,9,-1
865 0 m 2,13,14
 615 0 615 0 446 76.5 c 128,-1,15
 277 153 277 153 191.5 303 c 128,-1,16
 106 453 106 453 106 671 c 0,17,18
 106 848 106 848 161.5 983 c 128,-1,19
 217 1118 217 1118 319 1210 c 128,-1,20
 421 1302 421 1302 561 1349 c 128,-1,21
 701 1396 701 1396 871 1396 c 2,22,-1
 1988 1396 l 1,23,-1
 2088 1469 l 1,24,-1
 2184 1469 l 1,25,-1
 2202 999 l 1,26,-1
 2069 996 l 1,27,-1
 1944 1320 l 1,28,-1
 2038 1228 l 1,29,-1
 890 1228 l 2,30,31
 737 1228 737 1228 630.5 1172 c 128,-1,32
 524 1116 524 1116 468.5 996 c 128,-1,33
 413 876 413 876 413 682 c 0,34,35
 413 506 413 506 469.5 392 c 128,-1,36
 526 278 526 278 641.5 223 c 128,-1,37
 757 168 757 168 933 168 c 2,38,-1
 2018 168 l 1,39,-1
 1937 77 l 1,40,-1
 2121 449 l 1,41,-1
 2252 446 l 1,42,-1
 2169 -78 l 1,43,-1
 2059 -78 l 1,44,-1
 1982 0 l 1,45,-1
 865 0 l 2,13,14
EndSplineSet
EndChar

StartChar: Scedilla
Encoding: 350 350 152
Width: 1316
GlyphClass: 1
Flags: W
LayerCount: 2
Fore
SplineSet
1075 1335 m 1,0,-1
 924 1352 l 1,1,-1
 1028 1471 l 1,2,-1
 1134 1471 l 1,3,-1
 1152 980 l 1,4,-1
 1012 978 l 1,5,-1
 893 1264 l 1,6,-1
 965 1184 l 1,7,8
 906 1224 906 1224 837.5 1240.5 c 128,-1,9
 769 1257 769 1257 685 1257 c 0,10,11
 548 1257 548 1257 472.5 1215 c 128,-1,12
 397 1173 397 1173 397 1074 c 0,13,14
 397 1013 397 1013 426 975 c 128,-1,15
 455 937 455 937 506.5 913.5 c 128,-1,16
 558 890 558 890 624.5 874.5 c 128,-1,17
 691 859 691 859 766 842 c 0,18,19
 841 826 841 826 918 802 c 128,-1,20
 995 778 995 778 1060 734 c 128,-1,21
 1125 690 1125 690 1164.5 614.5 c 128,-1,22
 1204 539 1204 539 1204 420 c 0,23,24
 1204 267 1204 267 1130.5 169 c 128,-1,25
 1057 71 1057 71 919.5 24 c 128,-1,26
 782 -23 782 -23 587 -23 c 0,27,28
 466 -23 466 -23 369.5 -13 c 128,-1,29
 273 -3 273 -3 173 30 c 1,30,-1
 113 433 l 1,31,-1
 248 433 l 1,32,-1
 464 38 l 1,33,-1
 225 217 l 1,34,35
 313 176 313 176 389 159 c 128,-1,36
 465 142 465 142 567 142 c 0,37,38
 695 142 695 142 775.5 164.5 c 128,-1,39
 856 187 856 187 893.5 235.5 c 128,-1,40
 931 284 931 284 931 362 c 0,41,42
 931 431 931 431 896 473.5 c 128,-1,43
 861 516 861 516 802 540 c 128,-1,44
 743 564 743 564 670.5 580 c 128,-1,45
 598 596 598 596 524 613 c 0,46,47
 449 630 449 630 379 655.5 c 128,-1,48
 309 681 309 681 253 724.5 c 128,-1,49
 197 768 197 768 164 838 c 128,-1,50
 131 908 131 908 131 1014 c 0,51,52
 131 1147 131 1147 197 1237 c 128,-1,53
 263 1327 263 1327 389 1373 c 128,-1,54
 515 1419 515 1419 692 1419 c 0,55,56
 799 1419 799 1419 890 1399.5 c 128,-1,57
 981 1380 981 1380 1075 1335 c 1,0,-1
570 -481 m 0,58,59
 477 -481 477 -481 442.5 -458 c 128,-1,60
 408 -435 408 -435 408 -395 c 0,61,62
 408 -365 408 -365 426 -348.5 c 128,-1,63
 444 -332 444 -332 464 -332 c 0,64,65
 479 -332 479 -332 499.5 -348 c 128,-1,66
 520 -364 520 -364 546.5 -380 c 128,-1,67
 573 -396 573 -396 605 -396 c 0,68,69
 654 -396 654 -396 677 -377.5 c 128,-1,70
 700 -359 700 -359 700 -324 c 0,71,72
 700 -299 700 -299 683.5 -281.5 c 128,-1,73
 667 -264 667 -264 619.5 -250 c 128,-1,74
 572 -236 572 -236 477 -222 c 1,75,-1
 477 -196 l 1,76,-1
 659 36 l 1,77,-1
 773 36 l 1,78,-1
 594 -188 l 1,79,-1
 588 -94 l 1,80,81
 698 -113 698 -113 755 -140.5 c 128,-1,82
 812 -168 812 -168 832 -203.5 c 128,-1,83
 852 -239 852 -239 852 -283 c 0,84,85
 852 -349 852 -349 816.5 -393 c 128,-1,86
 781 -437 781 -437 717 -459 c 128,-1,87
 653 -481 653 -481 570 -481 c 0,58,59
EndSplineSet
Substitution2: "'locl' Localized Forms in Latin lookup 1 subtable" uni0218
Substitution2: "'locl' Localized Forms in Latin lookup 0 subtable" uni0218
EndChar

StartChar: uni0162
Encoding: 354 354 156
Width: 1542
GlyphClass: 1
Flags: W
LayerCount: 2
Fore
SplineSet
622 1334 m 1,0,-1
 918 1334 l 1,1,-1
 918 145 l 1,2,-1
 1107 97 l 1,3,-1
 1107 0 l 1,4,-1
 433 0 l 1,5,-1
 433 97 l 1,6,-1
 622 145 l 1,7,-1
 622 1334 l 1,0,-1
1289 1219 m 1,8,-1
 248 1219 l 1,9,-1
 334 1280 l 1,10,-1
 190 931 l 1,11,-1
 52 933 l 1,12,-1
 118 1483 l 1,13,-1
 218 1483 l 1,14,-1
 326 1367 l 1,15,-1
 198 1396 l 1,16,-1
 1339 1396 l 1,17,-1
 1215 1367 l 1,18,-1
 1324 1483 l 1,19,-1
 1424 1483 l 1,20,-1
 1490 933 l 1,21,-1
 1352 931 l 1,22,-1
 1207 1280 l 1,23,-1
 1289 1219 l 1,8,-1
678 -481 m 0,24,25
 585 -481 585 -481 550.5 -458 c 128,-1,26
 516 -435 516 -435 516 -395 c 0,27,28
 516 -365 516 -365 534.5 -348.5 c 128,-1,29
 553 -332 553 -332 573 -332 c 0,30,31
 587 -332 587 -332 607.5 -348 c 128,-1,32
 628 -364 628 -364 654.5 -380 c 128,-1,33
 681 -396 681 -396 713 -396 c 0,34,35
 762 -396 762 -396 785 -377.5 c 128,-1,36
 808 -359 808 -359 808 -324 c 0,37,38
 808 -299 808 -299 792 -281.5 c 128,-1,39
 776 -264 776 -264 728 -250 c 128,-1,40
 680 -236 680 -236 585 -222 c 1,41,-1
 585 -196 l 1,42,-1
 767 36 l 1,43,-1
 881 36 l 1,44,-1
 702 -188 l 1,45,-1
 696 -94 l 1,46,47
 806 -113 806 -113 863 -140.5 c 128,-1,48
 920 -168 920 -168 940.5 -203.5 c 128,-1,49
 961 -239 961 -239 961 -283 c 0,50,51
 961 -349 961 -349 925 -393 c 128,-1,52
 889 -437 889 -437 825.5 -459 c 128,-1,53
 762 -481 762 -481 678 -481 c 0,24,25
EndSplineSet
EndChar

StartChar: Tbar
Encoding: 358 358 158
Width: 1543
GlyphClass: 1
Flags: W
LayerCount: 2
Fore
SplineSet
342 620 m 1,0,-1
 342 765 l 1,1,-1
 1200 765 l 1,2,-1
 1200 620 l 1,3,-1
 342 620 l 1,0,-1
623 1334 m 1,4,-1
 919 1334 l 1,5,-1
 919 145 l 1,6,-1
 1108 97 l 1,7,-1
 1108 0 l 1,8,-1
 434 0 l 1,9,-1
 434 97 l 1,10,-1
 623 145 l 1,11,-1
 623 1334 l 1,4,-1
1290 1219 m 1,12,-1
 249 1219 l 1,13,-1
 335 1280 l 1,14,-1
 191 931 l 1,15,-1
 52 933 l 1,16,-1
 119 1483 l 1,17,-1
 218 1483 l 1,18,-1
 327 1367 l 1,19,-1
 198 1396 l 1,20,-1
 1340 1396 l 1,21,-1
 1216 1367 l 1,22,-1
 1324 1483 l 1,23,-1
 1424 1483 l 1,24,-1
 1490 933 l 1,25,-1
 1352 931 l 1,26,-1
 1208 1280 l 1,27,-1
 1290 1219 l 1,12,-1
EndSplineSet
EndChar

StartChar: Uogonek
Encoding: 370 370 169
Width: 1696
GlyphClass: 1
Flags: W
LayerCount: 2
Fore
SplineSet
1278 530 m 2,0,-1
 1278 1251 l 1,1,-1
 1098 1299 l 1,2,-1
 1098 1396 l 1,3,-1
 1637 1396 l 1,4,-1
 1637 1299 l 1,5,-1
 1459 1251 l 1,6,-1
 1459 531 l 2,7,8
 1459 347 1459 347 1390.5 223.5 c 128,-1,9
 1322 100 1322 100 1190.5 38.5 c 128,-1,10
 1059 -23 1059 -23 868 -23 c 0,11,12
 659 -23 659 -23 519 36 c 128,-1,13
 379 95 379 95 308 217.5 c 128,-1,14
 237 340 237 340 237 529 c 2,15,-1
 237 1251 l 1,16,-1
 59 1299 l 1,17,-1
 59 1396 l 1,18,-1
 712 1396 l 1,19,-1
 712 1299 l 1,20,-1
 534 1251 l 1,21,-1
 534 536 l 2,22,23
 534 418 534 418 575.5 342 c 128,-1,24
 617 266 617 266 701 229.5 c 128,-1,25
 785 193 785 193 910 193 c 0,26,27
 1032 193 1032 193 1113.5 229 c 128,-1,28
 1195 265 1195 265 1236.5 339.5 c 128,-1,29
 1278 414 1278 414 1278 530 c 2,0,-1
929 -84 m 2,30,31
 904 -129 904 -129 890 -161.5 c 128,-1,32
 876 -194 876 -194 870.5 -218.5 c 128,-1,33
 865 -243 865 -243 865 -267 c 0,34,35
 865 -310 865 -310 890 -333 c 128,-1,36
 915 -356 915 -356 957 -356 c 0,37,38
 987 -356 987 -356 1013.5 -348 c 128,-1,39
 1040 -340 1040 -340 1081 -314 c 1,40,-1
 1090 -385 l 1,41,42
 1050 -421 1050 -421 1017 -442 c 128,-1,43
 984 -463 984 -463 951.5 -472 c 128,-1,44
 919 -481 919 -481 880 -481 c 0,45,46
 788 -481 788 -481 745 -437.5 c 128,-1,47
 702 -394 702 -394 702 -320 c 0,48,49
 702 -287 702 -287 711 -254 c 128,-1,50
 720 -221 720 -221 746 -178.5 c 128,-1,51
 772 -136 772 -136 822 -73 c 2,52,-1
 925 57 l 1,53,-1
 1008 57 l 1,54,-1
 929 -84 l 2,30,31
EndSplineSet
EndChar

StartChar: Uhorn
Encoding: 431 431 170
Width: 1733
GlyphClass: 2
Flags: W
AnchorPoint: "Anchor-4" 875 0 basechar 0
LayerCount: 2
Fore
SplineSet
1648 1492 m 0,0,1
 1648 1523 1648 1523 1639 1546 c 128,-1,2
 1630 1569 1630 1569 1620.5 1585 c 128,-1,3
 1611 1601 1611 1601 1611 1611 c 0,4,5
 1611 1642 1611 1642 1643.5 1664.5 c 128,-1,6
 1676 1687 1676 1687 1719 1687 c 0,7,8
 1774 1687 1774 1687 1812 1654.5 c 128,-1,9
 1850 1622 1850 1622 1850 1547 c 0,10,11
 1850 1469 1850 1469 1812.5 1408.5 c 128,-1,12
 1775 1348 1775 1348 1689.5 1309.5 c 128,-1,13
 1604 1271 1604 1271 1459 1258 c 1,14,-1
 1459 531 l 2,15,16
 1459 347 1459 347 1390.5 223.5 c 128,-1,17
 1322 100 1322 100 1190.5 38.5 c 128,-1,18
 1059 -23 1059 -23 868 -23 c 0,19,20
 659 -23 659 -23 519 36 c 128,-1,21
 379 95 379 95 308 217.5 c 128,-1,22
 237 340 237 340 237 529 c 2,23,-1
 237 1251 l 1,24,-1
 59 1299 l 1,25,-1
 59 1396 l 1,26,-1
 712 1396 l 1,27,-1
 712 1299 l 1,28,-1
 534 1251 l 1,29,-1
 534 536 l 2,30,31
 534 418 534 418 575.5 342 c 128,-1,32
 617 266 617 266 701 229.5 c 128,-1,33
 785 193 785 193 910 193 c 0,34,35
 1032 193 1032 193 1113.5 229 c 128,-1,36
 1195 265 1195 265 1236.5 339.5 c 128,-1,37
 1278 414 1278 414 1278 530 c 2,38,-1
 1278 1251 l 1,39,-1
 1098 1299 l 1,40,-1
 1098 1396 l 1,41,-1
 1505 1396 l 2,42,43
 1560 1396 1560 1396 1591 1407.5 c 128,-1,44
 1622 1419 1622 1419 1635 1440.5 c 128,-1,45
 1648 1462 1648 1462 1648 1492 c 0,0,1
EndSplineSet
EndChar

StartChar: Thorn
Encoding: 222 222 195
Width: 1458
GlyphClass: 1
Flags: W
LayerCount: 2
Fore
SplineSet
1073 705 m 0,0,1
 1073 788 1073 788 1044 843.5 c 128,-1,2
 1015 899 1015 899 945 927 c 128,-1,3
 875 955 875 955 751 955 c 2,4,-1
 445 955 l 1,5,-1
 410 1131 l 1,6,-1
 822 1131 l 2,7,8
 1021 1131 1021 1131 1141 1078.5 c 128,-1,9
 1261 1026 1261 1026 1314.5 931.5 c 128,-1,10
 1368 837 1368 837 1368 710 c 0,11,12
 1368 586 1368 586 1316 489 c 128,-1,13
 1264 392 1264 392 1149.5 336 c 128,-1,14
 1035 280 1035 280 848 280 c 2,15,-1
 402 280 l 1,16,-1
 445 453 l 1,17,-1
 812 453 l 2,18,19
 894 453 894 453 952.5 480 c 128,-1,20
 1011 507 1011 507 1042 562.5 c 128,-1,21
 1073 618 1073 618 1073 705 c 0,0,1
751 97 m 1,22,-1
 751 0 l 1,23,-1
 98 0 l 1,24,-1
 98 97 l 1,25,-1
 276 145 l 1,26,-1
 276 1250 l 1,27,-1
 98 1299 l 1,28,-1
 98 1396 l 1,29,-1
 751 1396 l 1,30,-1
 751 1299 l 1,31,-1
 573 1250 l 1,32,-1
 573 145 l 1,33,-1
 751 97 l 1,22,-1
EndSplineSet
EndChar

StartChar: uni018F
Encoding: 399 399 197
Width: 1529
GlyphClass: 1
Flags: W
LayerCount: 2
Fore
SplineSet
327 531 m 1,0,-1
 404 609 l 1,1,2
 406 443 406 443 445.5 345 c 128,-1,3
 485 247 485 247 559 203.5 c 128,-1,4
 633 160 633 160 740 160 c 0,5,6
 832 160 832 160 904 186.5 c 128,-1,7
 976 213 976 213 1026 269 c 128,-1,8
 1076 325 1076 325 1102.5 414 c 128,-1,9
 1129 503 1129 503 1129 627 c 0,10,11
 1129 827 1129 827 1073.5 950 c 128,-1,12
 1018 1073 1018 1073 903 1129.5 c 128,-1,13
 788 1186 788 1186 611 1186 c 0,14,15
 517 1186 517 1186 434 1173 c 128,-1,16
 351 1160 351 1160 277 1137.5 c 128,-1,17
 203 1115 203 1115 134 1087 c 1,18,-1
 121 1209 l 1,19,20
 227 1283 227 1283 330.5 1329 c 128,-1,21
 434 1375 434 1375 532 1397 c 128,-1,22
 630 1419 630 1419 719 1419 c 0,23,24
 937 1419 937 1419 1094.5 1336 c 128,-1,25
 1252 1253 1252 1253 1337.5 1096 c 128,-1,26
 1423 939 1423 939 1423 718 c 0,27,28
 1423 552 1423 552 1375.5 416 c 128,-1,29
 1328 280 1328 280 1237.5 181.5 c 128,-1,30
 1147 83 1147 83 1018.5 30 c 128,-1,31
 890 -23 890 -23 728 -23 c 0,32,33
 514 -23 514 -23 379 58 c 128,-1,34
 244 139 244 139 177.5 301.5 c 128,-1,35
 111 464 111 464 103 707 c 1,36,-1
 1230 707 l 1,37,-1
 1229 531 l 1,38,-1
 327 531 l 1,0,-1
EndSplineSet
EndChar

StartChar: a
Encoding: 97 97 204
Width: 1165
GlyphClass: 2
Flags: W
AnchorPoint: "Anchor-4" 583 0 basechar 0
AnchorPoint: "Anchor-3" 1157 0 basechar 0
AnchorPoint: "Anchor-0" 555 987 basechar 0
LayerCount: 2
Fore
SplineSet
795 627 m 1,0,-1
 773 504 l 1,1,2
 640 485 640 485 559.5 464.5 c 128,-1,3
 479 444 479 444 437 420 c 128,-1,4
 395 396 395 396 380.5 365.5 c 128,-1,5
 366 335 366 335 366 296 c 0,6,7
 366 227 366 227 402 194.5 c 128,-1,8
 438 162 438 162 514 162 c 0,9,10
 569 162 569 162 612 181.5 c 128,-1,11
 655 201 655 201 680 235 c 128,-1,12
 705 269 705 269 705 312 c 2,13,-1
 705 681 l 2,14,15
 705 778 705 778 662 825 c 128,-1,16
 619 872 619 872 512 872 c 0,17,18
 459 872 459 872 416.5 866.5 c 128,-1,19
 374 861 374 861 339 852 c 1,20,-1
 402 924 l 1,21,22
 393 883 393 883 384.5 850.5 c 128,-1,23
 376 818 376 818 367 791.5 c 128,-1,24
 358 765 358 765 346 741 c 0,25,26
 330 705 330 705 299 693.5 c 128,-1,27
 268 682 268 682 220 682 c 0,28,29
 161 682 161 682 131 704 c 128,-1,30
 101 726 101 726 101 760 c 0,31,32
 101 797 101 797 138.5 840 c 128,-1,33
 176 883 176 883 243.5 921.5 c 128,-1,34
 311 960 311 960 403.5 984.5 c 128,-1,35
 496 1009 496 1009 605 1009 c 0,36,37
 741 1009 741 1009 820.5 971 c 128,-1,38
 900 933 900 933 935 863.5 c 128,-1,39
 970 794 970 794 970 697 c 2,40,-1
 970 240 l 2,41,42
 970 206 970 206 980.5 185 c 128,-1,43
 991 164 991 164 1012 154.5 c 128,-1,44
 1033 145 1033 145 1064 145 c 0,45,46
 1084 145 1084 145 1107.5 149 c 128,-1,47
 1131 153 1131 153 1157 161 c 1,48,-1
 1157 68 l 1,49,50
 1105 25 1105 25 1044.5 2.5 c 128,-1,51
 984 -20 984 -20 926 -20 c 0,52,53
 858 -20 858 -20 811 9 c 128,-1,54
 764 38 764 38 739 98 c 128,-1,55
 714 158 714 158 710 250 c 1,56,-1
 720 256 l 1,57,58
 702 164 702 164 660 101.5 c 128,-1,59
 618 39 618 39 553 8 c 128,-1,60
 488 -23 488 -23 400 -23 c 0,61,62
 256 -23 256 -23 175.5 45.5 c 128,-1,63
 95 114 95 114 95 245 c 0,64,65
 95 316 95 316 122.5 372.5 c 128,-1,66
 150 429 150 429 224 474.5 c 128,-1,67
 298 520 298 520 436 557.5 c 128,-1,68
 574 595 574 595 795 627 c 1,0,-1
EndSplineSet
Substitution2: "Single Substitution lookup 3 subtable" ordfeminine
EndChar

StartChar: b
Encoding: 98 98 205
Width: 1296
GlyphClass: 2
Flags: W
AnchorPoint: "Anchor-4" 632 0 basechar 0
LayerCount: 2
Fore
SplineSet
370 200 m 1,0,-1
 435 200 l 1,1,-1
 283 -5 l 1,2,-1
 115 -1 l 1,3,-1
 170 272 l 1,4,-1
 170 1213 l 1,5,6
 157 1222 157 1222 126 1237.5 c 128,-1,7
 95 1253 95 1253 55.5 1271.5 c 128,-1,8
 16 1290 16 1290 -23 1308 c 1,9,-1
 -23 1387 l 1,10,-1
 399 1471 l 1,11,-1
 456 1471 l 1,12,-1
 436 1248 l 1,13,-1
 436 374 l 2,14,15
 436 293 436 293 461.5 240 c 128,-1,16
 487 187 487 187 538.5 161 c 128,-1,17
 590 135 590 135 666 135 c 0,18,19
 748 135 748 135 807.5 174.5 c 128,-1,20
 867 214 867 214 899 295.5 c 128,-1,21
 931 377 931 377 931 502 c 0,22,23
 931 610 931 610 898.5 681 c 128,-1,24
 866 752 866 752 802.5 786.5 c 128,-1,25
 739 821 739 821 645 821 c 0,26,27
 597 821 597 821 548 814 c 128,-1,28
 499 807 499 807 451 792.5 c 128,-1,29
 403 778 403 778 359 757 c 1,30,-1
 353 847 l 1,31,32
 438 896 438 896 501 927.5 c 128,-1,33
 564 959 564 959 611.5 977.5 c 128,-1,34
 659 996 659 996 695.5 1003 c 128,-1,35
 732 1010 732 1010 764 1010 c 0,36,37
 907 1010 907 1010 1006 952.5 c 128,-1,38
 1105 895 1105 895 1155.5 788 c 128,-1,39
 1206 681 1206 681 1206 535 c 0,40,41
 1206 400 1206 400 1170 296 c 128,-1,42
 1134 192 1134 192 1067.5 120.5 c 128,-1,43
 1001 49 1001 49 911 12 c 128,-1,44
 821 -25 821 -25 714 -25 c 0,45,46
 634 -25 634 -25 569 -3 c 128,-1,47
 504 19 504 19 454.5 68 c 128,-1,48
 405 117 405 117 370 200 c 1,0,-1
EndSplineSet
EndChar

StartChar: c
Encoding: 99 99 206
Width: 1071
GlyphClass: 2
Flags: W
AnchorPoint: "Anchor-4" 569 0 basechar 0
AnchorPoint: "Anchor-3" 995 0 basechar 0
AnchorPoint: "Anchor-0" 583 987 basechar 0
LayerCount: 2
Fore
SplineSet
674 1010 m 0,0,1
 800 1010 800 1010 873 984 c 128,-1,2
 946 958 946 958 976.5 917.5 c 128,-1,3
 1007 877 1007 877 1007 833 c 0,4,5
 1007 792 1007 792 988 759.5 c 128,-1,6
 969 727 969 727 937.5 708.5 c 128,-1,7
 906 690 906 690 870 690 c 0,8,9
 854 690 854 690 827.5 708.5 c 128,-1,10
 801 727 801 727 769 754 c 128,-1,11
 737 781 737 781 704.5 808.5 c 128,-1,12
 672 836 672 836 642.5 854 c 128,-1,13
 613 872 613 872 591 872 c 0,14,15
 515 872 515 872 458.5 839.5 c 128,-1,16
 402 807 402 807 370.5 737.5 c 128,-1,17
 339 668 339 668 339 558 c 0,18,19
 339 429 339 429 376 345.5 c 128,-1,20
 413 262 413 262 488 221.5 c 128,-1,21
 563 181 563 181 676 181 c 0,22,23
 754 181 754 181 829 198.5 c 128,-1,24
 904 216 904 216 982 249 c 1,25,-1
 990 148 l 1,26,27
 913 89 913 89 842 51.5 c 128,-1,28
 771 14 771 14 706 -4.5 c 128,-1,29
 641 -23 641 -23 580 -23 c 0,30,31
 430 -23 430 -23 319 36 c 128,-1,32
 208 95 208 95 147.5 206.5 c 128,-1,33
 87 318 87 318 87 476 c 0,34,35
 87 597 87 597 126 695 c 128,-1,36
 165 793 165 793 240 863.5 c 128,-1,37
 315 934 315 934 424.5 972 c 128,-1,38
 534 1010 534 1010 674 1010 c 0,0,1
EndSplineSet
EndChar

StartChar: d
Encoding: 100 100 207
Width: 1326
GlyphClass: 2
Flags: W
AnchorPoint: "Anchor-4" 678 0 basechar 0
AnchorPoint: "Anchor-3" 1125 1436 basechar 0
AnchorPoint: "Anchor-1" 939 1155 basechar 0
LayerCount: 2
Fore
SplineSet
859 648 m 2,0,1
 859 749 859 749 810.5 803.5 c 128,-1,2
 762 858 762 858 647 858 c 0,3,4
 556 858 556 858 492.5 818 c 128,-1,5
 429 778 429 778 396.5 698 c 128,-1,6
 364 618 364 618 364 499 c 0,7,8
 364 384 364 384 396.5 310 c 128,-1,9
 429 236 429 236 492.5 201 c 128,-1,10
 556 166 556 166 650 166 c 0,11,12
 720 166 720 166 791.5 184 c 128,-1,13
 863 202 863 202 933 237 c 1,14,-1
 933 183 l 1,15,16
 836 114 836 114 771 72.5 c 128,-1,17
 706 31 706 31 662.5 10.5 c 128,-1,18
 619 -10 619 -10 587.5 -16.5 c 128,-1,19
 556 -23 556 -23 525 -23 c 0,20,21
 381 -23 381 -23 284 35 c 128,-1,22
 187 93 187 93 137.5 200 c 128,-1,23
 88 307 88 307 88 453 c 0,24,25
 88 583 88 583 131.5 686 c 128,-1,26
 175 789 175 789 252.5 861.5 c 128,-1,27
 330 934 330 934 432.5 972 c 128,-1,28
 535 1010 535 1010 654 1010 c 0,29,30
 723 1010 723 1010 781 1000.5 c 128,-1,31
 839 991 839 991 896.5 969.5 c 128,-1,32
 954 948 954 948 1019 911 c 1,33,-1
 859 876 l 1,34,-1
 859 1229 l 1,35,36
 846 1237 846 1237 812 1251.5 c 128,-1,37
 778 1266 778 1266 738.5 1282 c 128,-1,38
 699 1298 699 1298 669 1309 c 1,39,-1
 669 1389 l 1,40,-1
 1088 1471 l 1,41,-1
 1144 1471 l 1,42,-1
 1125 1248 l 1,43,-1
 1125 236 l 1,44,45
 1134 229 1134 229 1154.5 216.5 c 128,-1,46
 1175 204 1175 204 1200.5 189.5 c 128,-1,47
 1226 175 1226 175 1250 162.5 c 128,-1,48
 1274 150 1274 150 1291 142 c 1,49,-1
 1291 90 l 1,50,-1
 968 -22 l 1,51,-1
 927 -22 l 1,52,-1
 859 183 l 1,53,-1
 859 648 l 2,0,1
EndSplineSet
EndChar

StartChar: e
Encoding: 101 101 208
Width: 1117
GlyphClass: 2
Flags: W
AnchorPoint: "Anchor-4" 596 0 basechar 0
AnchorPoint: "Anchor-3" 1018 0 basechar 0
AnchorPoint: "Anchor-0" 574 987 basechar 0
LayerCount: 2
Fore
SplineSet
584 1010 m 0,0,1
 736 1010 736 1010 832.5 952 c 128,-1,2
 929 894 929 894 977 777.5 c 128,-1,3
 1025 661 1025 661 1030 487 c 1,4,-1
 286 487 l 1,5,-1
 283 613 l 1,6,-1
 844 620 l 1,7,-1
 769 579 l 1,8,9
 768 684 768 684 745 746.5 c 128,-1,10
 722 809 722 809 678 836.5 c 128,-1,11
 634 864 634 864 570 864 c 0,12,13
 497 864 497 864 445.5 832 c 128,-1,14
 394 800 394 800 367 731 c 128,-1,15
 340 662 340 662 340 548 c 0,16,17
 340 417 340 417 379 335.5 c 128,-1,18
 418 254 418 254 497.5 216 c 128,-1,19
 577 178 577 178 699 178 c 0,20,21
 760 178 760 178 813.5 187 c 128,-1,22
 867 196 867 196 916.5 211 c 128,-1,23
 966 226 966 226 1011 245 c 1,24,-1
 1018 147 l 1,25,26
 944 92 944 92 871 54 c 128,-1,27
 798 16 798 16 729 -3.5 c 128,-1,28
 660 -23 660 -23 595 -23 c 0,29,30
 439 -23 439 -23 325.5 36 c 128,-1,31
 212 95 212 95 150 207.5 c 128,-1,32
 88 320 88 320 88 479 c 256,33,34
 88 638 88 638 147.5 757.5 c 128,-1,35
 207 877 207 877 318 943.5 c 128,-1,36
 429 1010 429 1010 584 1010 c 0,0,1
EndSplineSet
EndChar

StartChar: f
Encoding: 102 102 209
Width: 894
GlyphClass: 2
Flags: W
AnchorPoint: "Anchor-4" 380 0 basechar 0
LayerCount: 2
Fore
SplineSet
340 820 m 1,0,-1
 245 795 l 1,1,-1
 49 864 l 1,2,-1
 49 927 l 1,3,-1
 261 1009 l 1,4,-1
 357 987 l 1,5,-1
 857 987 l 1,6,-1
 853 820 l 1,7,-1
 340 820 l 1,0,-1
511 129 m 1,8,-1
 681 87 l 1,9,-1
 681 0 l 1,10,-1
 96 0 l 1,11,-1
 96 87 l 1,12,-1
 245 128 l 1,13,-1
 245 1014 l 2,14,15
 245 1131 245 1131 281.5 1217.5 c 128,-1,16
 318 1304 318 1304 387.5 1360 c 128,-1,17
 457 1416 457 1416 555 1443.5 c 128,-1,18
 653 1471 653 1471 776 1471 c 0,19,20
 875 1471 875 1471 940 1459 c 128,-1,21
 1005 1447 1005 1447 1042.5 1425.5 c 128,-1,22
 1080 1404 1080 1404 1095.5 1374.5 c 128,-1,23
 1111 1345 1111 1345 1111 1310 c 0,24,25
 1111 1253 1111 1253 1073 1217 c 128,-1,26
 1035 1181 1035 1181 973 1181 c 0,27,28
 954 1181 954 1181 934 1202.5 c 128,-1,29
 914 1224 914 1224 887.5 1252.5 c 128,-1,30
 861 1281 861 1281 822 1302.5 c 128,-1,31
 783 1324 783 1324 725 1324 c 0,32,33
 653 1324 653 1324 605.5 1302 c 128,-1,34
 558 1280 558 1280 534.5 1234 c 128,-1,35
 511 1188 511 1188 511 1116 c 2,36,-1
 511 129 l 1,8,-1
EndSplineSet
EndChar

StartChar: g
Encoding: 103 103 210
Width: 1178
GlyphClass: 2
Flags: W
AnchorPoint: "Anchor-4" 570 -471 basechar 0
AnchorPoint: "Anchor-0" 549 987 basechar 0
LayerCount: 2
Fore
SplineSet
542 -481 m 0,0,1
 403 -481 403 -481 306.5 -465.5 c 128,-1,2
 210 -450 210 -450 150.5 -420 c 128,-1,3
 91 -390 91 -390 64.5 -347.5 c 128,-1,4
 38 -305 38 -305 38 -251 c 0,5,6
 38 -210 38 -210 59 -173.5 c 128,-1,7
 80 -137 80 -137 127.5 -109.5 c 128,-1,8
 175 -82 175 -82 253 -64 c 128,-1,9
 331 -46 331 -46 445 -41 c 1,10,-1
 533 -41 l 1,11,-1
 533 -58 l 1,12,13
 436 -64 436 -64 380.5 -83 c 128,-1,14
 325 -102 325 -102 302.5 -133 c 128,-1,15
 280 -164 280 -164 280 -206 c 0,16,17
 280 -256 280 -256 308 -288 c 128,-1,18
 336 -320 336 -320 399 -335.5 c 128,-1,19
 462 -351 462 -351 567 -351 c 0,20,21
 688 -351 688 -351 764.5 -333 c 128,-1,22
 841 -315 841 -315 877 -280.5 c 128,-1,23
 913 -246 913 -246 913 -198 c 0,24,25
 913 -166 913 -166 900.5 -143 c 128,-1,26
 888 -120 888 -120 849.5 -104.5 c 128,-1,27
 811 -89 811 -89 735 -81 c 128,-1,28
 659 -73 659 -73 533 -71 c 256,29,30
 407 -69 407 -69 325 -52.5 c 128,-1,31
 243 -36 243 -36 196 -7.5 c 128,-1,32
 149 21 149 21 130 60 c 128,-1,33
 111 99 111 99 111 146 c 0,34,35
 112 225 112 225 183.5 277.5 c 128,-1,36
 255 330 255 330 415 344 c 1,37,-1
 425 315 l 1,38,39
 367 311 367 311 342 293.5 c 128,-1,40
 317 276 317 276 317 239 c 0,41,42
 317 216 317 216 327 199.5 c 128,-1,43
 337 183 337 183 370.5 172 c 128,-1,44
 404 161 404 161 475.5 155.5 c 128,-1,45
 547 150 547 150 670 148 c 0,46,47
 795 146 795 146 883.5 130 c 128,-1,48
 972 114 972 114 1027.5 81.5 c 128,-1,49
 1083 49 1083 49 1109.5 -3.5 c 128,-1,50
 1136 -56 1136 -56 1136 -131 c 0,51,52
 1136 -237 1136 -237 1068.5 -315.5 c 128,-1,53
 1001 -394 1001 -394 869 -437.5 c 128,-1,54
 737 -481 737 -481 542 -481 c 0,0,1
538 302 m 0,55,56
 399 302 399 302 300 343.5 c 128,-1,57
 201 385 201 385 148.5 464.5 c 128,-1,58
 96 544 96 544 96 655 c 0,59,60
 96 769 96 769 150.5 848 c 128,-1,61
 205 927 205 927 304.5 968.5 c 128,-1,62
 404 1010 404 1010 538 1010 c 0,63,64
 640 1010 640 1010 721 985 c 128,-1,65
 802 960 802 960 859 913.5 c 128,-1,66
 916 867 916 867 946 801.5 c 128,-1,67
 976 736 976 736 976 656 c 0,68,69
 976 543 976 543 922 463.5 c 128,-1,70
 868 384 868 384 769.5 343 c 128,-1,71
 671 302 671 302 538 302 c 0,55,56
545 437 m 0,72,73
 626 437 626 437 677 487.5 c 128,-1,74
 728 538 728 538 728 656 c 256,75,76
 728 774 728 774 680.5 827 c 128,-1,77
 633 880 633 880 535 880 c 0,78,79
 453 880 453 880 400.5 829.5 c 128,-1,80
 348 779 348 779 348 661 c 0,81,82
 348 544 348 544 397 490.5 c 128,-1,83
 446 437 446 437 545 437 c 0,72,73
707 899 m 1,84,-1
 663 990 l 1,85,86
 731 987 731 987 798 989 c 128,-1,87
 865 991 865 991 926 994.5 c 128,-1,88
 987 998 987 998 1035 1001 c 128,-1,89
 1083 1004 1083 1004 1111 1004 c 0,90,91
 1135 1004 1135 1004 1145.5 988.5 c 128,-1,92
 1156 973 1156 973 1156 932 c 0,93,94
 1156 875 1156 875 1143 848 c 128,-1,95
 1130 821 1130 821 1111 821 c 256,96,97
 1092 821 1092 821 1065.5 828.5 c 128,-1,98
 1039 836 1039 836 995.5 847.5 c 128,-1,99
 952 859 952 859 882.5 872.5 c 128,-1,100
 813 886 813 886 707 899 c 1,84,-1
EndSplineSet
EndChar

StartChar: h
Encoding: 104 104 211
Width: 1347
GlyphClass: 2
Flags: W
AnchorPoint: "Anchor-4" 674 0 basechar 0
AnchorPoint: "Anchor-1" 389 1155 basechar 0
LayerCount: 2
Fore
SplineSet
761 87 m 1,0,-1
 889 124 l 1,1,-1
 889 625 l 2,2,3
 889 681 889 681 869.5 717 c 128,-1,4
 850 753 850 753 807 770.5 c 128,-1,5
 764 788 764 788 694 788 c 0,6,7
 630 788 630 788 565.5 774 c 128,-1,8
 501 760 501 760 451 738 c 1,9,-1
 428 793 l 1,10,11
 519 867 519 867 577.5 910.5 c 128,-1,12
 636 954 636 954 677.5 975.5 c 128,-1,13
 719 997 719 997 755.5 1003.5 c 128,-1,14
 792 1010 792 1010 838 1010 c 0,15,16
 1001 1010 1001 1010 1077.5 928.5 c 128,-1,17
 1154 847 1154 847 1154 686 c 2,18,-1
 1154 128 l 1,19,-1
 1305 87 l 1,20,-1
 1305 0 l 1,21,-1
 761 0 l 1,22,-1
 761 87 l 1,0,-1
598 0 m 1,23,-1
 54 0 l 1,24,-1
 54 87 l 1,25,-1
 203 128 l 1,26,-1
 203 1213 l 1,27,28
 189 1222 189 1222 158.5 1237.5 c 128,-1,29
 128 1253 128 1253 88 1271.5 c 128,-1,30
 48 1290 48 1290 9 1308 c 1,31,-1
 9 1387 l 1,32,-1
 432 1471 l 1,33,-1
 488 1471 l 1,34,-1
 469 1248 l 1,35,-1
 469 125 l 1,36,-1
 598 87 l 1,37,-1
 598 0 l 1,23,-1
EndSplineSet
EndChar

StartChar: i
Encoding: 105 105 212
Width: 701
GlyphClass: 2
Flags: W
AnchorPoint: "Anchor-4" 366 0 basechar 0
AnchorPoint: "Anchor-3" 529 0 basechar 0
AnchorPoint: "Anchor-0" 355 1443 basechar 0
LayerCount: 2
Fore
SplineSet
353 1183 m 0,0,1
 266 1183 266 1183 218 1220.5 c 128,-1,2
 170 1258 170 1258 170 1328 c 256,3,4
 170 1398 170 1398 218 1434.5 c 128,-1,5
 266 1471 266 1471 353 1471 c 0,6,7
 439 1471 439 1471 487.5 1434.5 c 128,-1,8
 536 1398 536 1398 536 1328 c 256,9,10
 536 1258 536 1258 487.5 1220.5 c 128,-1,11
 439 1183 439 1183 353 1183 c 0,0,1
514 1010 m 1,12,-1
 499 762 l 1,13,-1
 499 128 l 1,14,-1
 644 87 l 1,15,-1
 644 0 l 1,16,-1
 84 0 l 1,17,-1
 84 87 l 1,18,-1
 233 128 l 1,19,-1
 233 739 l 1,20,21
 222 749 222 749 194.5 766.5 c 128,-1,22
 167 784 167 784 133 804.5 c 128,-1,23
 99 825 99 825 69 843 c 1,24,-1
 69 907 l 1,25,-1
 444 1010 l 1,26,-1
 514 1010 l 1,12,-1
EndSplineSet
EndChar

StartChar: j
Encoding: 106 106 213
Width: 639
GlyphClass: 2
Flags: W
AnchorPoint: "Anchor-4" 305 -465 basechar 0
AnchorPoint: "Anchor-0" 333 1453 basechar 0
LayerCount: 2
Fore
SplineSet
330 1183 m 0,0,1
 244 1183 244 1183 196 1220.5 c 128,-1,2
 148 1258 148 1258 148 1328 c 256,3,4
 148 1398 148 1398 196 1434.5 c 128,-1,5
 244 1471 244 1471 330 1471 c 0,6,7
 417 1471 417 1471 465 1434.5 c 128,-1,8
 513 1398 513 1398 513 1328 c 256,9,10
 513 1258 513 1258 465 1220.5 c 128,-1,11
 417 1183 417 1183 330 1183 c 0,0,1
211 739 m 1,12,13
 199 749 199 749 171.5 766.5 c 128,-1,14
 144 784 144 784 110.5 804.5 c 128,-1,15
 77 825 77 825 46 843 c 1,16,-1
 46 907 l 1,17,-1
 421 1010 l 1,18,-1
 492 1010 l 1,19,-1
 476 762 l 1,20,-1
 476 30 l 2,21,22
 476 -34 476 -34 468 -83 c 128,-1,23
 460 -132 460 -132 437.5 -174.5 c 128,-1,24
 415 -217 415 -217 370 -261 c 128,-1,25
 325 -305 325 -305 251 -357.5 c 128,-1,26
 177 -410 177 -410 68 -481 c 1,27,-1
 -12 -379 l 1,28,29
 68 -299 68 -299 113 -249 c 128,-1,30
 158 -199 158 -199 179 -164.5 c 128,-1,31
 200 -130 200 -130 205.5 -98 c 128,-1,32
 211 -66 211 -66 211 -21 c 2,33,-1
 211 739 l 1,12,13
EndSplineSet
EndChar

StartChar: k
Encoding: 107 107 214
Width: 1331
GlyphClass: 2
Flags: W
AnchorPoint: "Anchor-4" 714 0 basechar 0
LayerCount: 2
Fore
SplineSet
697 524 m 1,0,-1
 775 659 l 1,1,-1
 1200 132 l 1,2,-1
 1323 83 l 1,3,-1
 1323 0 l 1,4,-1
 876 0 l 1,5,-1
 876 83 l 1,6,-1
 900 110 l 1,7,-1
 609 473 l 1,8,-1
 387 473 l 1,9,-1
 387 626 l 1,10,-1
 634 626 l 1,11,-1
 894 867 l 1,12,-1
 748 904 l 1,13,-1
 748 987 l 1,14,-1
 1250 987 l 1,15,-1
 1250 904 l 1,16,-1
 1105 868 l 1,17,-1
 697 524 l 1,0,-1
469 128 m 1,18,-1
 612 87 l 1,19,-1
 612 0 l 1,20,-1
 54 0 l 1,21,-1
 54 87 l 1,22,-1
 203 128 l 1,23,-1
 203 1213 l 1,24,25
 189 1222 189 1222 158.5 1237.5 c 128,-1,26
 128 1253 128 1253 88 1271.5 c 128,-1,27
 48 1290 48 1290 9 1308 c 1,28,-1
 9 1387 l 1,29,-1
 432 1471 l 1,30,-1
 488 1471 l 1,31,-1
 469 1248 l 1,32,-1
 469 128 l 1,18,-1
EndSplineSet
EndChar

StartChar: l
Encoding: 108 108 215
Width: 673
GlyphClass: 2
Flags: W
AnchorPoint: "Anchor-4" 338 0 basechar 0
AnchorPoint: "Anchor-3" 471 1448 basechar 0
LayerCount: 2
Fore
SplineSet
471 128 m 1,0,-1
 616 87 l 1,1,-1
 616 0 l 1,2,-1
 56 0 l 1,3,-1
 56 87 l 1,4,-1
 205 128 l 1,5,-1
 205 1213 l 1,6,7
 192 1222 192 1222 161 1237.5 c 128,-1,8
 130 1253 130 1253 90 1271.5 c 128,-1,9
 50 1290 50 1290 11 1308 c 1,10,-1
 11 1387 l 1,11,-1
 434 1471 l 1,12,-1
 490 1471 l 1,13,-1
 471 1248 l 1,14,-1
 471 128 l 1,0,-1
EndSplineSet
EndChar

StartChar: m
Encoding: 109 109 216
Width: 1984
GlyphClass: 2
Flags: W
AnchorPoint: "Anchor-4" 1011 0 basechar 0
AnchorPoint: "Anchor-0" 1011 987 basechar 0
LayerCount: 2
Fore
SplineSet
497 793 m 1,0,-1
 497 124 l 1,1,-1
 622 87 l 1,2,-1
 622 0 l 1,3,-1
 82 0 l 1,4,-1
 82 87 l 1,5,-1
 232 128 l 1,6,-1
 232 725 l 1,7,8
 215 740 215 740 174 768 c 128,-1,9
 133 796 133 796 67 838 c 1,10,-1
 67 891 l 1,11,-1
 381 1013 l 1,12,-1
 429 1013 l 1,13,-1
 497 793 l 1,0,-1
1144 721 m 2,14,-1
 1144 124 l 1,15,-1
 1268 87 l 1,16,-1
 1268 0 l 1,17,-1
 754 0 l 1,18,-1
 754 87 l 1,19,-1
 878 124 l 1,20,-1
 878 640 l 2,21,22
 878 692 878 692 860 725 c 128,-1,23
 842 758 842 758 803 773.5 c 128,-1,24
 764 789 764 789 700 789 c 0,25,26
 643 789 643 789 584 776.5 c 128,-1,27
 525 764 525 764 479 744 c 1,28,-1
 457 805 l 1,29,30
 542 875 542 875 597.5 916.5 c 128,-1,31
 653 958 653 958 692.5 978 c 128,-1,32
 732 998 732 998 766.5 1004 c 128,-1,33
 801 1010 801 1010 844 1010 c 0,34,35
 948 1010 948 1010 1014 978.5 c 128,-1,36
 1080 947 1080 947 1112 883 c 128,-1,37
 1144 819 1144 819 1144 721 c 2,14,-1
1791 704 m 2,38,-1
 1791 128 l 1,39,-1
 1941 87 l 1,40,-1
 1941 0 l 1,41,-1
 1400 0 l 1,42,-1
 1400 87 l 1,43,-1
 1525 124 l 1,44,-1
 1525 639 l 2,45,46
 1525 692 1525 692 1506.5 724.5 c 128,-1,47
 1488 757 1488 757 1448.5 773 c 128,-1,48
 1409 789 1409 789 1345 789 c 0,49,50
 1288 789 1288 789 1228 776.5 c 128,-1,51
 1168 764 1168 764 1122 743 c 1,52,-1
 1100 804 l 1,53,54
 1186 874 1186 874 1242 915.5 c 128,-1,55
 1298 957 1298 957 1337 977.5 c 128,-1,56
 1376 998 1376 998 1411 1004 c 128,-1,57
 1446 1010 1446 1010 1490 1010 c 0,58,59
 1645 1010 1645 1010 1718 932 c 128,-1,60
 1791 854 1791 854 1791 704 c 2,38,-1
EndSplineSet
EndChar

StartChar: n
Encoding: 110 110 217
Width: 1376
GlyphClass: 2
Flags: W
AnchorPoint: "Anchor-4" 698 0 basechar 0
AnchorPoint: "Anchor-0" 710 987 basechar 0
LayerCount: 2
Fore
SplineSet
497 793 m 1,0,-1
 497 124 l 1,1,-1
 624 87 l 1,2,-1
 624 0 l 1,3,-1
 82 0 l 1,4,-1
 82 87 l 1,5,-1
 232 128 l 1,6,-1
 232 725 l 1,7,8
 215 740 215 740 174 768 c 128,-1,9
 133 796 133 796 67 838 c 1,10,-1
 67 891 l 1,11,-1
 381 1013 l 1,12,-1
 429 1013 l 1,13,-1
 497 793 l 1,0,-1
790 87 m 1,14,-1
 917 124 l 1,15,-1
 917 625 l 2,16,17
 917 681 917 681 897.5 717 c 128,-1,18
 878 753 878 753 835.5 770.5 c 128,-1,19
 793 788 793 788 722 788 c 0,20,21
 659 788 659 788 594.5 774 c 128,-1,22
 530 760 530 760 480 738 c 1,23,-1
 457 793 l 1,24,25
 547 867 547 867 606 910.5 c 128,-1,26
 665 954 665 954 706 975.5 c 128,-1,27
 747 997 747 997 784 1003.5 c 128,-1,28
 821 1010 821 1010 867 1010 c 0,29,30
 1029 1010 1029 1010 1106 928.5 c 128,-1,31
 1183 847 1183 847 1183 686 c 2,32,-1
 1183 128 l 1,33,-1
 1334 87 l 1,34,-1
 1334 0 l 1,35,-1
 790 0 l 1,36,-1
 790 87 l 1,14,-1
EndSplineSet
EndChar

StartChar: o
Encoding: 111 111 218
Width: 1233
GlyphClass: 2
Flags: W
AnchorPoint: "Anchor-4" 617 0 basechar 0
AnchorPoint: "Anchor-3" 820 0 basechar 0
AnchorPoint: "Anchor-2" 813 987 basechar 0
AnchorPoint: "Anchor-0" 617 987 basechar 0
LayerCount: 2
Fore
SplineSet
611 140 m 256,0,1
 697 140 697 140 756 174 c 128,-1,2
 815 208 815 208 845 280.5 c 128,-1,3
 875 353 875 353 875 469 c 0,4,5
 875 597 875 597 847.5 681 c 128,-1,6
 820 765 820 765 764.5 806.5 c 128,-1,7
 709 848 709 848 622 848 c 0,8,9
 536 848 536 848 477 814 c 128,-1,10
 418 780 418 780 387.5 707 c 128,-1,11
 357 634 357 634 357 519 c 0,12,13
 357 391 357 391 384.5 307 c 128,-1,14
 412 223 412 223 468.5 181.5 c 128,-1,15
 525 140 525 140 611 140 c 256,0,1
606 -23 m 0,16,17
 444 -23 444 -23 327.5 39.5 c 128,-1,18
 211 102 211 102 149 217.5 c 128,-1,19
 87 333 87 333 87 489 c 0,20,21
 87 648 87 648 153 765 c 128,-1,22
 219 882 219 882 340 946 c 128,-1,23
 461 1010 461 1010 627 1010 c 0,24,25
 789 1010 789 1010 905 947.5 c 128,-1,26
 1021 885 1021 885 1083.5 770 c 128,-1,27
 1146 655 1146 655 1146 498 c 0,28,29
 1146 339 1146 339 1080 222 c 128,-1,30
 1014 105 1014 105 893 41 c 128,-1,31
 772 -23 772 -23 606 -23 c 0,16,17
EndSplineSet
Substitution2: "Single Substitution lookup 3 subtable" ordmasculine
EndChar

StartChar: p
Encoding: 112 112 219
Width: 1334
GlyphClass: 2
Flags: W
AnchorPoint: "Anchor-4" 344 -458 basechar 0
AnchorPoint: "Anchor-0" 682 987 basechar 0
LayerCount: 2
Fore
SplineSet
969 487 m 0,0,1
 969 659 969 659 895 740 c 128,-1,2
 821 821 821 821 684 821 c 0,3,4
 637 821 637 821 589.5 814 c 128,-1,5
 542 807 542 807 496.5 794 c 128,-1,6
 451 781 451 781 407 760 c 1,7,-1
 404 851 l 1,8,9
 482 898 482 898 541.5 929 c 128,-1,10
 601 960 601 960 646.5 978 c 128,-1,11
 692 996 692 996 729 1003 c 128,-1,12
 766 1010 766 1010 799 1010 c 0,13,14
 945 1010 945 1010 1044 952 c 128,-1,15
 1143 894 1143 894 1194 787.5 c 128,-1,16
 1245 681 1245 681 1245 535 c 0,17,18
 1245 359 1245 359 1179.5 234 c 128,-1,19
 1114 109 1114 109 1003.5 43 c 128,-1,20
 893 -23 893 -23 758 -23 c 0,21,22
 672 -23 672 -23 605 9.5 c 128,-1,23
 538 42 538 42 493.5 97 c 128,-1,24
 449 152 449 152 432 219 c 1,25,-1
 474 219 l 1,26,-1
 474 -331 l 1,27,-1
 645 -371 l 1,28,-1
 645 -458 l 1,29,-1
 57 -458 l 1,30,-1
 57 -371 l 1,31,-1
 209 -330 l 1,32,-1
 209 726 l 1,33,34
 196 737 196 737 171 754.5 c 128,-1,35
 146 772 146 772 113.5 793.5 c 128,-1,36
 81 815 81 815 45 839 c 1,37,-1
 45 892 l 1,38,-1
 361 1014 l 1,39,-1
 409 1014 l 1,40,-1
 475 842 l 1,41,-1
 475 356 l 2,42,43
 475 282 475 282 503.5 233 c 128,-1,44
 532 184 532 184 584 159.5 c 128,-1,45
 636 135 636 135 704 135 c 0,46,47
 788 135 788 135 847 174.5 c 128,-1,48
 906 214 906 214 937.5 292 c 128,-1,49
 969 370 969 370 969 487 c 0,0,1
EndSplineSet
EndChar

StartChar: q
Encoding: 113 113 220
Width: 1289
GlyphClass: 2
Flags: W
AnchorPoint: "Anchor-4" 991 -458 basechar 0
AnchorPoint: "Anchor-0" 653 987 basechar 0
LayerCount: 2
Fore
SplineSet
364 499 m 0,0,1
 364 384 364 384 396.5 310 c 128,-1,2
 429 236 429 236 492.5 201 c 128,-1,3
 556 166 556 166 650 166 c 0,4,5
 719 166 719 166 791 182.5 c 128,-1,6
 863 199 863 199 935 235 c 1,7,-1
 935 181 l 1,8,9
 841 114 841 114 776 73 c 128,-1,10
 711 32 711 32 666.5 11.5 c 128,-1,11
 622 -9 622 -9 589 -16 c 128,-1,12
 556 -23 556 -23 525 -23 c 0,13,14
 381 -23 381 -23 284 35 c 128,-1,15
 187 93 187 93 137.5 200 c 128,-1,16
 88 307 88 307 88 453 c 0,17,18
 88 625 88 625 163.5 750 c 128,-1,19
 239 875 239 875 368 942.5 c 128,-1,20
 497 1010 497 1010 657 1010 c 0,21,22
 725 1010 725 1010 784.5 998 c 128,-1,23
 844 986 844 986 898 957.5 c 128,-1,24
 952 929 952 929 1004 879 c 1,25,-1
 900 885 l 1,26,-1
 1123 1012 l 1,27,-1
 1168 986 l 1,28,-1
 1125 768 l 1,29,-1
 1125 -330 l 1,30,-1
 1276 -371 l 1,31,-1
 1276 -458 l 1,32,-1
 688 -458 l 1,33,-1
 688 -371 l 1,34,-1
 859 -331 l 1,35,-1
 859 644 l 2,36,37
 859 747 859 747 810 802.5 c 128,-1,38
 761 858 761 858 645 858 c 0,39,40
 555 858 555 858 492 818 c 128,-1,41
 429 778 429 778 396.5 698 c 128,-1,42
 364 618 364 618 364 499 c 0,0,1
EndSplineSet
EndChar

StartChar: r
Encoding: 114 114 221
Width: 982
GlyphClass: 2
Flags: W
AnchorPoint: "Anchor-4" 364 0 basechar 0
AnchorPoint: "Anchor-0" 503 987 basechar 0
LayerCount: 2
Fore
SplineSet
818 1006 m 0,0,1
 879 1006 879 1006 911 972.5 c 128,-1,2
 943 939 943 939 943 882 c 0,3,4
 943 815 943 815 919 776 c 128,-1,5
 895 737 895 737 866 737 c 0,6,7
 817 737 817 737 771 740.5 c 128,-1,8
 725 744 725 744 679.5 747.5 c 128,-1,9
 634 751 634 751 587 751 c 0,10,11
 560 751 560 751 537.5 747.5 c 128,-1,12
 515 744 515 744 492 735 c 128,-1,13
 469 726 469 726 443 709 c 1,14,-1
 414 754 l 1,15,16
 495 833 495 833 554.5 882.5 c 128,-1,17
 614 932 614 932 659 959 c 128,-1,18
 704 986 704 986 742 996 c 128,-1,19
 780 1006 780 1006 818 1006 c 0,0,1
497 793 m 1,20,-1
 497 130 l 1,21,-1
 663 87 l 1,22,-1
 663 0 l 1,23,-1
 82 0 l 1,24,-1
 82 87 l 1,25,-1
 232 128 l 1,26,-1
 232 725 l 1,27,28
 218 737 218 737 193 754.5 c 128,-1,29
 168 772 168 772 135.5 793.5 c 128,-1,30
 103 815 103 815 67 838 c 1,31,-1
 67 891 l 1,32,-1
 387 1013 l 1,33,-1
 435 1013 l 1,34,-1
 497 793 l 1,20,-1
EndSplineSet
EndChar

StartChar: s
Encoding: 115 115 222
Width: 1026
GlyphClass: 2
Flags: W
AnchorPoint: "Anchor-4" 522 0 basechar 0
AnchorPoint: "Anchor-0" 508 987 basechar 0
LayerCount: 2
Fore
SplineSet
559 1010 m 0,0,1
 641 1010 641 1010 711 1000 c 128,-1,2
 781 990 781 990 861 965 c 1,3,-1
 886 702 l 1,4,-1
 766 702 l 1,5,-1
 643 946 l 1,6,-1
 778 835 l 1,7,8
 717 859 717 859 657.5 870.5 c 128,-1,9
 598 882 598 882 551 882 c 0,10,11
 446 882 446 882 394.5 852 c 128,-1,12
 343 822 343 822 343 764 c 0,13,14
 343 711 343 711 374 682.5 c 128,-1,15
 405 654 405 654 466 637.5 c 128,-1,16
 527 621 527 621 615 605 c 0,17,18
 682 593 682 593 740 574 c 128,-1,19
 798 555 798 555 843 522.5 c 128,-1,20
 888 490 888 490 913 437.5 c 128,-1,21
 938 385 938 385 938 305 c 0,22,23
 938 200 938 200 884.5 127.5 c 128,-1,24
 831 55 831 55 725.5 17 c 128,-1,25
 620 -21 620 -21 461 -21 c 0,26,27
 375 -21 375 -21 285 -9.5 c 128,-1,28
 195 2 195 2 134 23 c 1,29,-1
 91 310 l 1,30,-1
 210 310 l 1,31,-1
 350 37 l 1,32,-1
 213 143 l 1,33,34
 248 131 248 131 286.5 124 c 128,-1,35
 325 117 325 117 364 114.5 c 128,-1,36
 403 112 403 112 439 112 c 0,37,38
 571 112 571 112 632.5 147.5 c 128,-1,39
 694 183 694 183 694 255 c 0,40,41
 694 303 694 303 670 331 c 128,-1,42
 646 359 646 359 602.5 374.5 c 128,-1,43
 559 390 559 390 502 400.5 c 128,-1,44
 445 411 445 411 380 425 c 0,45,46
 293 444 293 444 232 476.5 c 128,-1,47
 171 509 171 509 140 565 c 128,-1,48
 109 621 109 621 109 709 c 0,49,50
 109 807 109 807 163 874.5 c 128,-1,51
 217 942 217 942 318 976 c 128,-1,52
 419 1010 419 1010 559 1010 c 0,0,1
EndSplineSet
EndChar

StartChar: t
Encoding: 116 116 223
Width: 896
GlyphClass: 2
Flags: W
AnchorPoint: "Anchor-4" 544 0 basechar 0
AnchorPoint: "Anchor-3" 457 1487 basechar 0
LayerCount: 2
Fore
SplineSet
472 317 m 2,0,1
 472 237 472 237 516 203.5 c 128,-1,2
 560 170 560 170 658 170 c 0,3,4
 701 170 701 170 752 178 c 128,-1,5
 803 186 803 186 861 201 c 1,6,-1
 861 105 l 1,7,8
 771 56 771 56 706.5 28.5 c 128,-1,9
 642 1 642 1 593 -10.5 c 128,-1,10
 544 -22 544 -22 499 -22 c 0,11,12
 412 -22 412 -22 346 6 c 128,-1,13
 280 34 280 34 243 91.5 c 128,-1,14
 206 149 206 149 206 235 c 2,15,-1
 206 803 l 1,16,-1
 31 893 l 1,17,-1
 31 959 l 1,18,19
 71 974 71 974 110.5 993 c 128,-1,20
 150 1012 150 1012 187.5 1034.5 c 128,-1,21
 225 1057 225 1057 260 1082.5 c 128,-1,22
 295 1108 295 1108 327.5 1137 c 128,-1,23
 360 1166 360 1166 390 1199 c 1,24,-1
 472 1199 l 1,25,-1
 472 958 l 1,26,-1
 472 317 l 2,0,1
366 820 m 1,27,-1
 370 987 l 1,28,-1
 836 987 l 1,29,-1
 831 820 l 1,30,-1
 366 820 l 1,27,-1
EndSplineSet
EndChar

StartChar: u
Encoding: 117 117 224
Width: 1314
GlyphClass: 2
Flags: W
AnchorPoint: "Anchor-4" 654 0 basechar 0
AnchorPoint: "Anchor-3" 1117 0 basechar 0
AnchorPoint: "Anchor-2" 1024 987 basechar 0
AnchorPoint: "Anchor-0" 624 987 basechar 0
LayerCount: 2
Fore
SplineSet
461 349 m 2,0,1
 461 295 461 295 478.5 262 c 128,-1,2
 496 229 496 229 535.5 214 c 128,-1,3
 575 199 575 199 641 199 c 0,4,5
 697 199 697 199 756 212 c 128,-1,6
 815 225 815 225 863 245 c 1,7,-1
 885 183 l 1,8,9
 800 113 800 113 744.5 71.5 c 128,-1,10
 689 30 689 30 649.5 9.5 c 128,-1,11
 610 -11 610 -11 575.5 -17 c 128,-1,12
 541 -23 541 -23 497 -23 c 0,13,14
 342 -23 342 -23 269 55 c 128,-1,15
 196 133 196 133 196 285 c 2,16,-1
 196 820 l 1,17,-1
 31 896 l 1,18,-1
 31 981 l 1,19,-1
 480 999 l 1,20,-1
 461 849 l 1,21,-1
 461 349 l 2,0,1
909 -22 m 1,22,-1
 841 172 l 1,23,-1
 841 832 l 1,24,-1
 719 901 l 1,25,-1
 719 986 l 1,26,-1
 1121 997 l 1,27,-1
 1107 844 l 1,28,-1
 1107 236 l 1,29,30
 1117 229 1117 229 1137.5 216.5 c 128,-1,31
 1158 204 1158 204 1183.5 189.5 c 128,-1,32
 1209 175 1209 175 1233 162.5 c 128,-1,33
 1257 150 1257 150 1274 142 c 1,34,-1
 1274 90 l 1,35,-1
 950 -22 l 1,36,-1
 909 -22 l 1,22,-1
EndSplineSet
EndChar

StartChar: v
Encoding: 118 118 225
Width: 1296
GlyphClass: 2
Flags: W
AnchorPoint: "Anchor-4" 657 0 basechar 0
AnchorPoint: "Anchor-0" 678 987 basechar 0
LayerCount: 2
Fore
SplineSet
1143 866 m 1,0,-1
 782 -14 l 1,1,-1
 536 -14 l 1,2,-1
 147 852 l 1,3,-1
 10 901 l 1,4,-1
 10 987 l 1,5,-1
 573 987 l 1,6,-1
 573 900 l 1,7,-1
 437 862 l 1,8,-1
 749 139 l 1,9,-1
 696 138 l 1,10,-1
 968 863 l 1,11,-1
 838 900 l 1,12,-1
 838 987 l 1,13,-1
 1254 987 l 1,14,-1
 1254 900 l 1,15,-1
 1143 866 l 1,0,-1
EndSplineSet
EndChar

StartChar: w
Encoding: 119 119 226
Width: 1764
GlyphClass: 2
Flags: W
AnchorPoint: "Anchor-4" 904 0 basechar 0
AnchorPoint: "Anchor-0" 920 987 basechar 0
LayerCount: 2
Fore
SplineSet
1450 863 m 1,0,-1
 1323 900 l 1,1,-1
 1323 987 l 1,2,-1
 1723 987 l 1,3,-1
 1723 900 l 1,4,-1
 1617 866 l 1,5,-1
 1384 -14 l 1,6,-1
 1141 -14 l 1,7,-1
 857 809 l 1,8,-1
 931 819 l 1,9,-1
 633 -14 l 1,10,-1
 390 -14 l 1,11,-1
 155 852 l 1,12,-1
 18 901 l 1,13,-1
 18 987 l 1,14,-1
 554 987 l 1,15,-1
 554 900 l 1,16,-1
 425 862 l 1,17,-1
 610 142 l 1,18,-1
 540 147 l 1,19,-1
 835 1001 l 1,20,-1
 1059 1001 l 1,21,-1
 1350 151 l 1,22,-1
 1283 152 l 1,23,-1
 1450 863 l 1,0,-1
EndSplineSet
EndChar

StartChar: x
Encoding: 120 120 227
Width: 1246
GlyphClass: 2
Flags: W
AnchorPoint: "Anchor-4" 631 0 basechar 0
AnchorPoint: "Anchor-0" 638 987 basechar 0
LayerCount: 2
Fore
SplineSet
1105 129 m 1,0,-1
 1225 84 l 1,1,-1
 1225 0 l 1,2,-1
 692 0 l 1,3,-1
 692 84 l 1,4,-1
 786 117 l 1,5,-1
 535 425 l 1,6,-1
 508 456 l 1,7,-1
 170 858 l 1,8,-1
 50 903 l 1,9,-1
 50 987 l 1,10,-1
 584 987 l 1,11,-1
 584 903 l 1,12,-1
 489 870 l 1,13,-1
 712 596 l 1,14,-1
 737 567 l 1,15,-1
 1105 129 l 1,0,-1
608 441 m 1,16,-1
 334 117 l 1,17,-1
 455 84 l 1,18,-1
 455 0 l 1,19,-1
 37 0 l 1,20,-1
 37 84 l 1,21,-1
 148 120 l 1,22,-1
 496 517 l 1,23,-1
 630 557 l 1,24,-1
 890 872 l 1,25,-1
 769 903 l 1,26,-1
 769 987 l 1,27,-1
 1181 987 l 1,28,-1
 1181 903 l 1,29,-1
 1072 868 l 1,30,-1
 738 481 l 1,31,-1
 608 441 l 1,16,-1
EndSplineSet
EndChar

StartChar: y
Encoding: 121 121 228
Width: 1269
GlyphClass: 2
Flags: W
AnchorPoint: "Anchor-4" 911 -121 basechar 0
AnchorPoint: "Anchor-0" 671 987 basechar 0
LayerCount: 2
Fore
SplineSet
788 158 m 1,0,-1
 616 -55 l 1,1,-1
 155 851 l 1,2,-1
 16 901 l 1,3,-1
 16 987 l 1,4,-1
 582 987 l 1,5,-1
 582 900 l 1,6,-1
 445 862 l 1,7,-1
 788 158 l 1,0,-1
307 -481 m 0,8,9
 212 -481 212 -481 163 -441.5 c 128,-1,10
 114 -402 114 -402 114 -328 c 0,11,12
 114 -295 114 -295 126 -269 c 128,-1,13
 138 -243 138 -243 154.5 -227 c 128,-1,14
 171 -211 171 -211 184 -211 c 0,15,16
 201 -211 201 -211 232 -217.5 c 128,-1,17
 263 -224 263 -224 300.5 -230.5 c 128,-1,18
 338 -237 338 -237 372 -237 c 0,19,20
 419 -237 419 -237 453 -219.5 c 128,-1,21
 487 -202 487 -202 515.5 -163.5 c 128,-1,22
 544 -125 544 -125 573 -63 c 2,23,-1
 631 64 l 1,24,-1
 670 136 l 1,25,-1
 950 863 l 1,26,-1
 821 900 l 1,27,-1
 821 987 l 1,28,-1
 1239 987 l 1,29,-1
 1239 900 l 1,30,-1
 1126 866 l 1,31,-1
 688 -168 l 2,32,33
 640 -281 640 -281 586 -350 c 128,-1,34
 532 -419 532 -419 464 -450 c 128,-1,35
 396 -481 396 -481 307 -481 c 0,8,9
EndSplineSet
EndChar

StartChar: z
Encoding: 122 122 229
Width: 1074
GlyphClass: 2
Flags: W
AnchorPoint: "Anchor-4" 539 0 basechar 0
AnchorPoint: "Anchor-0" 557 987 basechar 0
LayerCount: 2
Fore
SplineSet
92 0 m 1,0,-1
 92 92 l 1,1,-1
 706 928 l 1,2,-1
 803 840 l 1,3,-1
 165 838 l 1,4,-1
 341 957 l 1,5,-1
 185 653 l 1,6,-1
 83 653 l 1,7,-1
 123 1010 l 1,8,-1
 204 1010 l 1,9,-1
 261 987 l 1,10,-1
 975 987 l 1,11,-1
 975 896 l 1,12,-1
 352 56 l 1,13,-1
 267 147 l 1,14,-1
 836 150 l 1,15,-1
 716 48 l 1,16,-1
 919 368 l 1,17,-1
 1019 368 l 1,18,-1
 934 0 l 1,19,-1
 92 0 l 1,0,-1
EndSplineSet
EndChar

StartChar: aogonek
Encoding: 261 261 238
Width: 1167
GlyphClass: 1
Flags: W
LayerCount: 2
Fore
SplineSet
1157 68 m 1,0,-1
 1036 -87 l 2,1,2
 1001 -132 1001 -132 981.5 -164 c 128,-1,3
 962 -196 962 -196 954.5 -220.5 c 128,-1,4
 947 -245 947 -245 947 -268 c 0,5,6
 947 -311 947 -311 972 -333.5 c 128,-1,7
 997 -356 997 -356 1038 -356 c 0,8,9
 1068 -356 1068 -356 1094.5 -348 c 128,-1,10
 1121 -340 1121 -340 1162 -314 c 1,11,-1
 1171 -385 l 1,12,13
 1131 -421 1131 -421 1098 -442 c 128,-1,14
 1065 -463 1065 -463 1032.5 -472 c 128,-1,15
 1000 -481 1000 -481 962 -481 c 0,16,17
 870 -481 870 -481 827 -437.5 c 128,-1,18
 784 -394 784 -394 784 -320 c 0,19,20
 784 -286 784 -286 796.5 -252 c 128,-1,21
 809 -218 809 -218 842 -175 c 128,-1,22
 875 -132 875 -132 937 -72 c 2,23,-1
 1018 11 l 1,24,-1
 1029 -3 l 1,25,26
 1003 -11 1003 -11 977 -15.5 c 128,-1,27
 951 -20 951 -20 926 -20 c 0,28,29
 858 -20 858 -20 811 9 c 128,-1,30
 764 38 764 38 739 98 c 128,-1,31
 714 158 714 158 710 250 c 1,32,-1
 720 256 l 1,33,34
 702 164 702 164 660 101.5 c 128,-1,35
 618 39 618 39 553 8 c 128,-1,36
 488 -23 488 -23 400 -23 c 0,37,38
 256 -23 256 -23 175.5 45.5 c 128,-1,39
 95 114 95 114 95 245 c 0,40,41
 95 316 95 316 122.5 372.5 c 128,-1,42
 150 429 150 429 224 474.5 c 128,-1,43
 298 520 298 520 436 557.5 c 128,-1,44
 574 595 574 595 795 627 c 1,45,-1
 773 504 l 1,46,47
 640 485 640 485 559.5 464.5 c 128,-1,48
 479 444 479 444 437 420 c 128,-1,49
 395 396 395 396 380.5 365.5 c 128,-1,50
 366 335 366 335 366 296 c 0,51,52
 366 227 366 227 402 194.5 c 128,-1,53
 438 162 438 162 514 162 c 0,54,55
 569 162 569 162 612 181.5 c 128,-1,56
 655 201 655 201 680 235 c 128,-1,57
 705 269 705 269 705 312 c 2,58,-1
 705 681 l 2,59,60
 705 778 705 778 662 825 c 128,-1,61
 619 872 619 872 512 872 c 0,62,63
 459 872 459 872 416.5 866.5 c 128,-1,64
 374 861 374 861 339 852 c 1,65,-1
 402 924 l 1,66,67
 389 862 389 862 376 819.5 c 128,-1,68
 363 777 363 777 346 741 c 0,69,70
 330 705 330 705 299 693.5 c 128,-1,71
 268 682 268 682 220 682 c 0,72,73
 161 682 161 682 131 704 c 128,-1,74
 101 726 101 726 101 760 c 0,75,76
 101 797 101 797 138.5 840 c 128,-1,77
 176 883 176 883 243.5 921.5 c 128,-1,78
 311 960 311 960 403.5 984.5 c 128,-1,79
 496 1009 496 1009 605 1009 c 0,80,81
 741 1009 741 1009 820.5 971 c 128,-1,82
 900 933 900 933 935 863.5 c 128,-1,83
 970 794 970 794 970 697 c 2,84,-1
 970 240 l 2,85,86
 970 206 970 206 980.5 185 c 128,-1,87
 991 164 991 164 1012 154.5 c 128,-1,88
 1033 145 1033 145 1064 145 c 0,89,90
 1084 145 1084 145 1107.5 149 c 128,-1,91
 1131 153 1131 153 1157 161 c 1,92,-1
 1157 68 l 1,0,-1
EndSplineSet
EndChar

StartChar: ae
Encoding: 230 230 254
Width: 1740
GlyphClass: 2
Flags: W
AnchorPoint: "Anchor-4" 862 0 basechar 0
AnchorPoint: "Anchor-0" 868 987 basechar 0
LayerCount: 2
Fore
SplineSet
517 872 m 0,0,1
 463 872 463 872 419 867 c 128,-1,2
 375 862 375 862 338 852 c 1,3,-1
 401 924 l 1,4,5
 393 883 393 883 384.5 850.5 c 128,-1,6
 376 818 376 818 367 791.5 c 128,-1,7
 358 765 358 765 346 741 c 0,8,9
 329 705 329 705 298.5 693.5 c 128,-1,10
 268 682 268 682 220 682 c 0,11,12
 161 682 161 682 130.5 704 c 128,-1,13
 100 726 100 726 100 760 c 0,14,15
 100 797 100 797 138 840 c 128,-1,16
 176 883 176 883 244.5 921.5 c 128,-1,17
 313 960 313 960 406.5 984.5 c 128,-1,18
 500 1009 500 1009 610 1009 c 256,19,20
 720 1009 720 1009 793 981 c 128,-1,21
 866 953 866 953 907.5 904.5 c 128,-1,22
 949 856 949 856 965 793 c 1,23,-1
 820 793 l 1,24,25
 877 892 877 892 974.5 951 c 128,-1,26
 1072 1010 1072 1010 1207 1010 c 0,27,28
 1360 1010 1360 1010 1456.5 951.5 c 128,-1,29
 1553 893 1553 893 1600.5 775.5 c 128,-1,30
 1648 658 1648 658 1653 482 c 1,31,-1
 914 482 l 1,32,-1
 911 608 l 1,33,-1
 1490 615 l 1,34,-1
 1393 579 l 1,35,36
 1391 684 1391 684 1368 746.5 c 128,-1,37
 1345 809 1345 809 1301 836.5 c 128,-1,38
 1257 864 1257 864 1193 864 c 0,39,40
 1122 864 1122 864 1071.5 832 c 128,-1,41
 1021 800 1021 800 994.5 731 c 128,-1,42
 968 662 968 662 968 548 c 0,43,44
 968 417 968 417 1006.5 335.5 c 128,-1,45
 1045 254 1045 254 1123.5 216 c 128,-1,46
 1202 178 1202 178 1322 178 c 0,47,48
 1383 178 1383 178 1437 187 c 128,-1,49
 1491 196 1491 196 1540 211 c 128,-1,50
 1589 226 1589 226 1634 245 c 1,51,-1
 1642 147 l 1,52,53
 1567 92 1567 92 1494 53.5 c 128,-1,54
 1421 15 1421 15 1351 -4 c 128,-1,55
 1281 -23 1281 -23 1216 -23 c 0,56,57
 1084 -23 1084 -23 982 15 c 128,-1,58
 880 53 880 53 812 126.5 c 128,-1,59
 744 200 744 200 715 307 c 1,60,-1
 752 313 l 1,61,62
 742 194 742 194 694 119.5 c 128,-1,63
 646 45 646 45 571 11 c 128,-1,64
 496 -23 496 -23 402 -23 c 0,65,66
 256 -23 256 -23 175.5 45.5 c 128,-1,67
 95 114 95 114 95 245 c 0,68,69
 95 315 95 315 122 371 c 128,-1,70
 149 427 149 427 223 472.5 c 128,-1,71
 297 518 297 518 436 555.5 c 128,-1,72
 575 593 575 593 800 626 c 1,73,-1
 778 504 l 1,74,75
 641 485 641 485 559 464 c 128,-1,76
 477 443 477 443 435 418.5 c 128,-1,77
 393 394 393 394 379 364 c 128,-1,78
 365 334 365 334 365 296 c 0,79,80
 365 227 365 227 401.5 194.5 c 128,-1,81
 438 162 438 162 514 162 c 0,82,83
 571 162 571 162 615 182.5 c 128,-1,84
 659 203 659 203 684.5 242.5 c 128,-1,85
 710 282 710 282 710 338 c 2,86,-1
 710 681 l 2,87,88
 710 778 710 778 667 825 c 128,-1,89
 624 872 624 872 517 872 c 0,0,1
EndSplineSet
EndChar

StartChar: ccedilla
Encoding: 231 231 256
Width: 1071
GlyphClass: 1
Flags: W
LayerCount: 2
Fore
SplineSet
674 1010 m 0,0,1
 800 1010 800 1010 873 984 c 128,-1,2
 946 958 946 958 976.5 917.5 c 128,-1,3
 1007 877 1007 877 1007 833 c 0,4,5
 1007 792 1007 792 988 759.5 c 128,-1,6
 969 727 969 727 937.5 708.5 c 128,-1,7
 906 690 906 690 870 690 c 0,8,9
 854 690 854 690 827.5 708.5 c 128,-1,10
 801 727 801 727 769 754 c 128,-1,11
 737 781 737 781 704.5 808.5 c 128,-1,12
 672 836 672 836 642.5 854 c 128,-1,13
 613 872 613 872 591 872 c 0,14,15
 518 872 518 872 461 839.5 c 128,-1,16
 404 807 404 807 371.5 737.5 c 128,-1,17
 339 668 339 668 339 558 c 0,18,19
 339 429 339 429 376 345.5 c 128,-1,20
 413 262 413 262 488 221.5 c 128,-1,21
 563 181 563 181 676 181 c 0,22,23
 754 181 754 181 829 198.5 c 128,-1,24
 904 216 904 216 982 249 c 1,25,-1
 990 148 l 1,26,27
 913 89 913 89 842 51.5 c 128,-1,28
 771 14 771 14 706 -4.5 c 128,-1,29
 641 -23 641 -23 580 -23 c 0,30,31
 430 -23 430 -23 319 36 c 128,-1,32
 208 95 208 95 147.5 206.5 c 128,-1,33
 87 318 87 318 87 476 c 0,34,35
 87 597 87 597 127 695 c 128,-1,36
 167 793 167 793 242.5 863.5 c 128,-1,37
 318 934 318 934 427 972 c 128,-1,38
 536 1010 536 1010 674 1010 c 0,0,1
477 -481 m 0,39,40
 384 -481 384 -481 349.5 -458 c 128,-1,41
 315 -435 315 -435 315 -395 c 0,42,43
 315 -365 315 -365 333 -348.5 c 128,-1,44
 351 -332 351 -332 371 -332 c 0,45,46
 386 -332 386 -332 406.5 -348 c 128,-1,47
 427 -364 427 -364 453.5 -380 c 128,-1,48
 480 -396 480 -396 512 -396 c 0,49,50
 560 -396 560 -396 583.5 -377.5 c 128,-1,51
 607 -359 607 -359 607 -324 c 0,52,53
 607 -299 607 -299 590.5 -281.5 c 128,-1,54
 574 -264 574 -264 526 -250 c 128,-1,55
 478 -236 478 -236 383 -222 c 1,56,-1
 383 -196 l 1,57,-1
 566 36 l 1,58,-1
 680 36 l 1,59,-1
 501 -188 l 1,60,-1
 495 -94 l 1,61,62
 605 -113 605 -113 662 -140.5 c 128,-1,63
 719 -168 719 -168 739 -203.5 c 128,-1,64
 759 -239 759 -239 759 -283 c 0,65,66
 759 -349 759 -349 723.5 -393 c 128,-1,67
 688 -437 688 -437 624 -459 c 128,-1,68
 560 -481 560 -481 477 -481 c 0,39,40
EndSplineSet
EndChar

StartChar: dcroat
Encoding: 273 273 262
Width: 1326
GlyphClass: 1
Flags: W
LayerCount: 2
Fore
SplineSet
859 648 m 2,0,1
 859 749 859 749 810.5 803.5 c 128,-1,2
 762 858 762 858 647 858 c 0,3,4
 556 858 556 858 492.5 818 c 128,-1,5
 429 778 429 778 396.5 698 c 128,-1,6
 364 618 364 618 364 499 c 0,7,8
 364 384 364 384 396.5 310 c 128,-1,9
 429 236 429 236 492.5 201 c 128,-1,10
 556 166 556 166 650 166 c 0,11,12
 720 166 720 166 791.5 184 c 128,-1,13
 863 202 863 202 933 237 c 1,14,-1
 933 183 l 1,15,16
 836 114 836 114 771 72.5 c 128,-1,17
 706 31 706 31 662.5 10.5 c 128,-1,18
 619 -10 619 -10 587.5 -16.5 c 128,-1,19
 556 -23 556 -23 525 -23 c 0,20,21
 381 -23 381 -23 284 35 c 128,-1,22
 187 93 187 93 137.5 200 c 128,-1,23
 88 307 88 307 88 453 c 0,24,25
 88 583 88 583 131.5 686 c 128,-1,26
 175 789 175 789 252.5 861.5 c 128,-1,27
 330 934 330 934 432.5 972 c 128,-1,28
 535 1010 535 1010 654 1010 c 0,29,30
 723 1010 723 1010 781 1000.5 c 128,-1,31
 839 991 839 991 896.5 969.5 c 128,-1,32
 954 948 954 948 1019 911 c 1,33,-1
 859 876 l 1,34,-1
 859 1267 l 1,35,36
 849 1275 849 1275 824 1285 c 128,-1,37
 799 1295 799 1295 770.5 1306 c 128,-1,38
 742 1317 742 1317 720 1325 c 1,39,-1
 720 1404 l 1,40,-1
 1088 1471 l 1,41,-1
 1144 1471 l 1,42,-1
 1125 1248 l 1,43,-1
 1125 236 l 1,44,45
 1134 229 1134 229 1154.5 216.5 c 128,-1,46
 1175 204 1175 204 1200.5 189.5 c 128,-1,47
 1226 175 1226 175 1250 162.5 c 128,-1,48
 1274 150 1274 150 1291 142 c 1,49,-1
 1291 90 l 1,50,-1
 968 -22 l 1,51,-1
 927 -22 l 1,52,-1
 859 183 l 1,53,-1
 859 648 l 2,0,1
571 1096 m 1,54,-1
 571 1214 l 1,55,-1
 1299 1214 l 1,56,-1
 1299 1096 l 1,57,-1
 571 1096 l 1,54,-1
EndSplineSet
EndChar

StartChar: eogonek
Encoding: 281 281 270
Width: 1118
GlyphClass: 1
Flags: W
LayerCount: 2
Fore
SplineSet
1018 147 m 1,0,-1
 894 -38 l 2,1,2
 858 -92 858 -92 837.5 -133.5 c 128,-1,3
 817 -175 817 -175 809.5 -206.5 c 128,-1,4
 802 -238 802 -238 802 -263 c 0,5,6
 802 -312 802 -312 829 -334 c 128,-1,7
 856 -356 856 -356 899 -356 c 0,8,9
 930 -356 930 -356 956.5 -348 c 128,-1,10
 983 -340 983 -340 1024 -314 c 1,11,-1
 1032 -385 l 1,12,13
 992 -421 992 -421 961 -442 c 128,-1,14
 930 -463 930 -463 899 -472 c 128,-1,15
 868 -481 868 -481 828 -481 c 0,16,17
 734 -481 734 -481 687 -436.5 c 128,-1,18
 640 -392 640 -392 640 -314 c 0,19,20
 640 -273 640 -273 653.5 -232.5 c 128,-1,21
 667 -192 667 -192 699.5 -142 c 128,-1,22
 732 -92 732 -92 791 -25 c 2,23,-1
 876 75 l 1,24,-1
 888 60 l 1,25,26
 809 19 809 19 735.5 -2 c 128,-1,27
 662 -23 662 -23 595 -23 c 0,28,29
 439 -23 439 -23 325.5 36 c 128,-1,30
 212 95 212 95 150 207.5 c 128,-1,31
 88 320 88 320 88 479 c 256,32,33
 88 638 88 638 147.5 757.5 c 128,-1,34
 207 877 207 877 318 943.5 c 128,-1,35
 429 1010 429 1010 584 1010 c 0,36,37
 736 1010 736 1010 832.5 952 c 128,-1,38
 929 894 929 894 977 777.5 c 128,-1,39
 1025 661 1025 661 1030 487 c 1,40,-1
 286 487 l 1,41,-1
 283 613 l 1,42,-1
 844 620 l 1,43,-1
 769 579 l 1,44,45
 768 684 768 684 745 746.5 c 128,-1,46
 722 809 722 809 678 836.5 c 128,-1,47
 634 864 634 864 570 864 c 0,48,49
 497 864 497 864 445.5 832 c 128,-1,50
 394 800 394 800 367 731 c 128,-1,51
 340 662 340 662 340 548 c 0,52,53
 340 417 340 417 379 335.5 c 128,-1,54
 418 254 418 254 497.5 216 c 128,-1,55
 577 178 577 178 699 178 c 0,56,57
 760 178 760 178 813.5 187 c 128,-1,58
 867 196 867 196 916.5 211 c 128,-1,59
 966 226 966 226 1011 245 c 1,60,-1
 1018 147 l 1,0,-1
EndSplineSet
EndChar

StartChar: hbar
Encoding: 295 295 288
Width: 1347
GlyphClass: 1
Flags: W
LayerCount: 2
Fore
SplineSet
761 87 m 1,0,-1
 889 124 l 1,1,-1
 889 625 l 2,2,3
 889 681 889 681 869.5 717 c 128,-1,4
 850 753 850 753 807 770.5 c 128,-1,5
 764 788 764 788 694 788 c 0,6,7
 630 788 630 788 565.5 774 c 128,-1,8
 501 760 501 760 451 738 c 1,9,-1
 428 793 l 1,10,11
 519 867 519 867 577.5 910.5 c 128,-1,12
 636 954 636 954 677.5 975.5 c 128,-1,13
 719 997 719 997 755.5 1003.5 c 128,-1,14
 792 1010 792 1010 838 1010 c 0,15,16
 1001 1010 1001 1010 1077.5 928.5 c 128,-1,17
 1154 847 1154 847 1154 686 c 2,18,-1
 1154 128 l 1,19,-1
 1305 87 l 1,20,-1
 1305 0 l 1,21,-1
 761 0 l 1,22,-1
 761 87 l 1,0,-1
598 0 m 1,23,-1
 54 0 l 1,24,-1
 54 87 l 1,25,-1
 203 128 l 1,26,-1
 203 1231 l 1,27,28
 192 1249 192 1249 167 1267 c 128,-1,29
 142 1285 142 1285 113 1303.5 c 128,-1,30
 84 1322 84 1322 59 1338 c 1,31,-1
 59 1403 l 1,32,-1
 432 1471 l 1,33,-1
 488 1471 l 1,34,-1
 469 1248 l 1,35,-1
 469 125 l 1,36,-1
 598 87 l 1,37,-1
 598 0 l 1,23,-1
28 1096 m 1,38,-1
 28 1214 l 1,39,-1
 756 1214 l 1,40,-1
 756 1096 l 1,41,-1
 28 1096 l 1,38,-1
EndSplineSet
EndChar

StartChar: dotlessi
Encoding: 305 305 289
Width: 701
GlyphClass: 2
Flags: W
AnchorPoint: "Anchor-4" 366 0 basechar 0
AnchorPoint: "Anchor-3" 499 0 basechar 0
AnchorPoint: "Anchor-0" 338 987 basechar 0
LayerCount: 2
Fore
SplineSet
514 1010 m 1,0,-1
 499 762 l 1,1,-1
 499 128 l 1,2,-1
 644 87 l 1,3,-1
 644 0 l 1,4,-1
 84 0 l 1,5,-1
 84 87 l 1,6,-1
 233 128 l 1,7,-1
 233 739 l 1,8,9
 222 749 222 749 194.5 766.5 c 128,-1,10
 167 784 167 784 133 804.5 c 128,-1,11
 99 825 99 825 69 843 c 1,12,-1
 69 907 l 1,13,-1
 444 1010 l 1,14,-1
 514 1010 l 1,0,-1
EndSplineSet
Substitution2: "'case' Case-Sensitive Forms in Latin lookup 8 subtable" I
EndChar

StartChar: iogonek
Encoding: 303 303 297
Width: 701
GlyphClass: 1
Flags: W
LayerCount: 2
Fore
SplineSet
353 1183 m 0,0,1
 266 1183 266 1183 218 1220.5 c 128,-1,2
 170 1258 170 1258 170 1328 c 256,3,4
 170 1398 170 1398 218 1434.5 c 128,-1,5
 266 1471 266 1471 353 1471 c 0,6,7
 439 1471 439 1471 487.5 1434.5 c 128,-1,8
 536 1398 536 1398 536 1328 c 256,9,10
 536 1258 536 1258 487.5 1220.5 c 128,-1,11
 439 1183 439 1183 353 1183 c 0,0,1
514 1010 m 1,12,-1
 499 762 l 1,13,-1
 499 128 l 1,14,-1
 644 87 l 1,15,-1
 644 0 l 1,16,-1
 84 0 l 1,17,-1
 84 87 l 1,18,-1
 233 128 l 1,19,-1
 233 739 l 1,20,21
 222 749 222 749 194.5 766.5 c 128,-1,22
 167 784 167 784 133 804.5 c 128,-1,23
 99 825 99 825 69 843 c 1,24,-1
 69 907 l 1,25,-1
 444 1010 l 1,26,-1
 514 1010 l 1,12,-1
378 -83 m 2,27,28
 353 -129 353 -129 340.5 -161 c 128,-1,29
 328 -193 328 -193 323 -217.5 c 128,-1,30
 318 -242 318 -242 318 -265 c 0,31,32
 318 -310 318 -310 342.5 -333 c 128,-1,33
 367 -356 367 -356 410 -356 c 0,34,35
 441 -356 441 -356 467.5 -348 c 128,-1,36
 494 -340 494 -340 535 -314 c 1,37,-1
 543 -385 l 1,38,39
 483 -439 483 -439 437.5 -460 c 128,-1,40
 392 -481 392 -481 334 -481 c 0,41,42
 242 -481 242 -481 198.5 -437.5 c 128,-1,43
 155 -394 155 -394 155 -320 c 0,44,45
 155 -287 155 -287 164 -253.5 c 128,-1,46
 173 -220 173 -220 198 -177 c 128,-1,47
 223 -134 223 -134 270 -73 c 2,48,-1
 370 57 l 1,49,-1
 454 57 l 1,50,-1
 378 -83 l 2,27,28
EndSplineSet
EndChar

StartChar: uni0237
Encoding: 567 567 302
Width: 639
GlyphClass: 2
Flags: W
AnchorPoint: "Anchor-4" 292 -469 basechar 0
AnchorPoint: "Anchor-0" 308 987 basechar 0
LayerCount: 2
Fore
SplineSet
211 739 m 1,0,1
 199 749 199 749 171.5 766.5 c 128,-1,2
 144 784 144 784 110.5 804.5 c 128,-1,3
 77 825 77 825 46 843 c 1,4,-1
 46 907 l 1,5,-1
 421 1010 l 1,6,-1
 492 1010 l 1,7,-1
 476 762 l 1,8,-1
 476 30 l 2,9,10
 476 -34 476 -34 468 -83 c 128,-1,11
 460 -132 460 -132 437.5 -174.5 c 128,-1,12
 415 -217 415 -217 370 -261 c 128,-1,13
 325 -305 325 -305 251 -357.5 c 128,-1,14
 177 -410 177 -410 68 -481 c 1,15,-1
 -12 -379 l 1,16,17
 68 -299 68 -299 113 -249 c 128,-1,18
 158 -199 158 -199 179 -164.5 c 128,-1,19
 200 -130 200 -130 205.5 -98 c 128,-1,20
 211 -66 211 -66 211 -21 c 2,21,-1
 211 739 l 1,0,1
EndSplineSet
EndChar

StartChar: kgreenlandic
Encoding: 312 312 305
Width: 1361
GlyphClass: 1
Flags: W
LayerCount: 2
Fore
SplineSet
638 440 m 1,0,-1
 416 440 l 1,1,-1
 416 594 l 1,2,-1
 663 594 l 1,3,-1
 923 867 l 1,4,-1
 777 904 l 1,5,-1
 777 987 l 1,6,-1
 1279 987 l 1,7,-1
 1279 904 l 1,8,-1
 1134 868 l 1,9,-1
 726 491 l 1,10,-1
 805 626 l 1,11,-1
 1229 132 l 1,12,-1
 1352 83 l 1,13,-1
 1352 0 l 1,14,-1
 904 0 l 1,15,-1
 904 83 l 1,16,-1
 928 110 l 1,17,-1
 638 440 l 1,0,-1
513 1010 m 1,18,-1
 498 762 l 1,19,-1
 498 128 l 1,20,-1
 641 87 l 1,21,-1
 641 0 l 1,22,-1
 83 0 l 1,23,-1
 83 87 l 1,24,-1
 232 128 l 1,25,-1
 232 739 l 1,26,27
 220 749 220 749 192.5 766.5 c 128,-1,28
 165 784 165 784 131.5 804.5 c 128,-1,29
 98 825 98 825 67 843 c 1,30,-1
 67 907 l 1,31,-1
 442 1010 l 1,32,-1
 513 1010 l 1,18,-1
EndSplineSet
EndChar

StartChar: lslash
Encoding: 322 322 310
Width: 772
GlyphClass: 1
Flags: W
LayerCount: 2
Fore
SplineSet
332 588 m 1,0,-1
 85 404 l 1,1,-1
 85 551 l 1,2,-1
 332 735 l 1,3,-1
 436 765 l 1,4,-1
 707 967 l 1,5,-1
 707 820 l 1,6,-1
 436 618 l 1,7,-1
 332 588 l 1,0,-1
521 128 m 1,8,-1
 666 87 l 1,9,-1
 666 0 l 1,10,-1
 106 0 l 1,11,-1
 106 87 l 1,12,-1
 255 128 l 1,13,-1
 255 1213 l 1,14,15
 242 1222 242 1222 211 1237.5 c 128,-1,16
 180 1253 180 1253 140.5 1271.5 c 128,-1,17
 101 1290 101 1290 62 1308 c 1,18,-1
 62 1387 l 1,19,-1
 484 1471 l 1,20,-1
 541 1471 l 1,21,-1
 521 1248 l 1,22,-1
 521 128 l 1,8,-1
EndSplineSet
EndChar

StartChar: eng
Encoding: 331 331 315
Width: 1329
GlyphClass: 1
Flags: W
LayerCount: 2
Fore
SplineSet
497 793 m 1,0,-1
 497 124 l 1,1,-1
 624 87 l 1,2,-1
 624 0 l 1,3,-1
 82 0 l 1,4,-1
 82 87 l 1,5,-1
 232 128 l 1,6,-1
 232 725 l 1,7,8
 215 740 215 740 174 768 c 128,-1,9
 133 796 133 796 67 838 c 1,10,-1
 67 891 l 1,11,-1
 381 1013 l 1,12,-1
 429 1013 l 1,13,-1
 497 793 l 1,0,-1
917 -21 m 2,14,-1
 917 625 l 2,15,16
 917 681 917 681 897.5 717 c 128,-1,17
 878 753 878 753 835.5 770.5 c 128,-1,18
 793 788 793 788 722 788 c 0,19,20
 659 788 659 788 594.5 774 c 128,-1,21
 530 760 530 760 480 738 c 1,22,-1
 457 793 l 1,23,24
 547 867 547 867 606 910.5 c 128,-1,25
 665 954 665 954 706 975.5 c 128,-1,26
 747 997 747 997 784 1003.5 c 128,-1,27
 821 1010 821 1010 867 1010 c 0,28,29
 1029 1010 1029 1010 1106 928.5 c 128,-1,30
 1183 847 1183 847 1183 686 c 2,31,-1
 1183 30 l 2,32,33
 1183 -34 1183 -34 1175 -83 c 128,-1,34
 1167 -132 1167 -132 1144 -174.5 c 128,-1,35
 1121 -217 1121 -217 1076 -261 c 128,-1,36
 1031 -305 1031 -305 957.5 -357.5 c 128,-1,37
 884 -410 884 -410 775 -481 c 1,38,-1
 695 -379 l 1,39,40
 774 -299 774 -299 819.5 -249 c 128,-1,41
 865 -199 865 -199 886 -164.5 c 128,-1,42
 907 -130 907 -130 912 -98 c 128,-1,43
 917 -66 917 -66 917 -21 c 2,14,-1
EndSplineSet
EndChar

StartChar: ohorn
Encoding: 417 417 324
Width: 1258
GlyphClass: 2
Flags: W
AnchorPoint: "Anchor-4" 617 0 basechar 0
AnchorPoint: "Anchor-0" 617 987 basechar 0
LayerCount: 2
Fore
SplineSet
611 140 m 256,0,1
 697 140 697 140 756 174 c 128,-1,2
 815 208 815 208 845 280.5 c 128,-1,3
 875 353 875 353 875 469 c 0,4,5
 875 597 875 597 847.5 681 c 128,-1,6
 820 765 820 765 764.5 806.5 c 128,-1,7
 709 848 709 848 622 848 c 0,8,9
 536 848 536 848 477 814 c 128,-1,10
 418 780 418 780 387.5 707 c 128,-1,11
 357 634 357 634 357 519 c 0,12,13
 357 391 357 391 384.5 307 c 128,-1,14
 412 223 412 223 468.5 181.5 c 128,-1,15
 525 140 525 140 611 140 c 256,0,1
1205 1139 m 0,16,17
 1205 1024 1205 1024 1144 964 c 128,-1,18
 1083 904 1083 904 957 898 c 1,19,-1
 959 912 l 1,20,21
 1055 841 1055 841 1100.5 733.5 c 128,-1,22
 1146 626 1146 626 1146 498 c 0,23,24
 1146 339 1146 339 1080 222 c 128,-1,25
 1014 105 1014 105 893 41 c 128,-1,26
 772 -23 772 -23 606 -23 c 0,27,28
 444 -23 444 -23 327.5 39.5 c 128,-1,29
 211 102 211 102 149 217.5 c 128,-1,30
 87 333 87 333 87 489 c 0,31,32
 87 648 87 648 153 765 c 128,-1,33
 219 882 219 882 340 946 c 128,-1,34
 461 1010 461 1010 627 1010 c 0,35,36
 679 1010 679 1010 723 1004.5 c 128,-1,37
 767 999 767 999 806 993 c 128,-1,38
 845 987 845 987 878 987 c 0,39,40
 950 987 950 987 976.5 1012.5 c 128,-1,41
 1003 1038 1003 1038 1003 1083 c 0,42,43
 1003 1115 1003 1115 993.5 1137.5 c 128,-1,44
 984 1160 984 1160 974.5 1176.5 c 128,-1,45
 965 1193 965 1193 965 1202 c 0,46,47
 966 1234 966 1234 998.5 1256 c 128,-1,48
 1031 1278 1031 1278 1074 1278 c 0,49,50
 1129 1278 1129 1278 1167 1245.5 c 128,-1,51
 1205 1213 1205 1213 1205 1139 c 0,16,17
EndSplineSet
EndChar

StartChar: uni01EB
Encoding: 491 491 325
Width: 1233
GlyphClass: 1
Flags: W
LayerCount: 2
Fore
SplineSet
611 140 m 256,0,1
 697 140 697 140 756 174 c 128,-1,2
 815 208 815 208 845 280.5 c 128,-1,3
 875 353 875 353 875 469 c 0,4,5
 875 597 875 597 847.5 681 c 128,-1,6
 820 765 820 765 764.5 806.5 c 128,-1,7
 709 848 709 848 622 848 c 0,8,9
 536 848 536 848 477 814 c 128,-1,10
 418 780 418 780 387.5 707 c 128,-1,11
 357 634 357 634 357 519 c 0,12,13
 357 391 357 391 384.5 307 c 128,-1,14
 412 223 412 223 468.5 181.5 c 128,-1,15
 525 140 525 140 611 140 c 256,0,1
606 -23 m 0,16,17
 444 -23 444 -23 327.5 39.5 c 128,-1,18
 211 102 211 102 149 217.5 c 128,-1,19
 87 333 87 333 87 489 c 0,20,21
 87 648 87 648 153 765 c 128,-1,22
 219 882 219 882 340 946 c 128,-1,23
 461 1010 461 1010 627 1010 c 0,24,25
 789 1010 789 1010 905 947.5 c 128,-1,26
 1021 885 1021 885 1083.5 770 c 128,-1,27
 1146 655 1146 655 1146 498 c 0,28,29
 1146 339 1146 339 1080 222 c 128,-1,30
 1014 105 1014 105 893 41 c 128,-1,31
 772 -23 772 -23 606 -23 c 0,16,17
672 -83 m 2,32,33
 648 -129 648 -129 634 -161 c 128,-1,34
 620 -193 620 -193 614.5 -217.5 c 128,-1,35
 609 -242 609 -242 609 -266 c 0,36,37
 609 -310 609 -310 633.5 -333 c 128,-1,38
 658 -356 658 -356 701 -356 c 0,39,40
 732 -356 732 -356 758.5 -348 c 128,-1,41
 785 -340 785 -340 826 -314 c 1,42,-1
 834 -385 l 1,43,44
 774 -439 774 -439 728.5 -460 c 128,-1,45
 683 -481 683 -481 625 -481 c 0,46,47
 533 -481 533 -481 489.5 -437.5 c 128,-1,48
 446 -394 446 -394 446 -320 c 0,49,50
 446 -287 446 -287 455 -254 c 128,-1,51
 464 -221 464 -221 490 -178 c 128,-1,52
 516 -135 516 -135 564 -73 c 2,53,-1
 664 57 l 1,54,-1
 748 57 l 1,55,-1
 672 -83 l 2,32,33
EndSplineSet
EndChar

StartChar: oslash
Encoding: 248 248 343
Width: 1270
GlyphClass: 2
Flags: W
AnchorPoint: "Anchor-4" 636 0 basechar 0
AnchorPoint: "Anchor-0" 636 987 basechar 0
LayerCount: 2
Fore
SplineSet
79 0 m 1,0,-1
 274 204 l 1,1,-1
 316 233 l 1,2,-1
 874 837 l 1,3,-1
 911 872 l 1,4,-1
 1022 987 l 1,5,-1
 1192 987 l 1,6,-1
 997 784 l 1,7,-1
 956 756 l 1,8,-1
 398 151 l 1,9,-1
 360 116 l 1,10,-1
 249 0 l 1,11,-1
 79 0 l 1,0,-1
630 140 m 256,12,13
 716 140 716 140 775 174 c 128,-1,14
 834 208 834 208 864 280.5 c 128,-1,15
 894 353 894 353 894 469 c 0,16,17
 894 597 894 597 867 681 c 128,-1,18
 840 765 840 765 784 806.5 c 128,-1,19
 728 848 728 848 641 848 c 0,20,21
 555 848 555 848 496 814 c 128,-1,22
 437 780 437 780 407 707 c 128,-1,23
 377 634 377 634 377 519 c 0,24,25
 377 391 377 391 404 307 c 128,-1,26
 431 223 431 223 487.5 181.5 c 128,-1,27
 544 140 544 140 630 140 c 256,12,13
625 -23 m 0,28,29
 463 -23 463 -23 347 39.5 c 128,-1,30
 231 102 231 102 168.5 217.5 c 128,-1,31
 106 333 106 333 106 489 c 0,32,33
 106 648 106 648 172 765 c 128,-1,34
 238 882 238 882 359 946 c 128,-1,35
 480 1010 480 1010 646 1010 c 0,36,37
 808 1010 808 1010 924 947.5 c 128,-1,38
 1040 885 1040 885 1102.5 770 c 128,-1,39
 1165 655 1165 655 1165 498 c 0,40,41
 1165 339 1165 339 1099 222 c 128,-1,42
 1033 105 1033 105 912 41 c 128,-1,43
 791 -23 791 -23 625 -23 c 0,28,29
EndSplineSet
EndChar

StartChar: oe
Encoding: 339 339 345
Width: 1913
GlyphClass: 2
Flags: W
AnchorPoint: "Anchor-4" 967 0 basechar 0
AnchorPoint: "Anchor-0" 967 987 basechar 0
LayerCount: 2
Fore
SplineSet
611 140 m 256,0,1
 697 140 697 140 756 174 c 128,-1,2
 815 208 815 208 845 280.5 c 128,-1,3
 875 353 875 353 875 469 c 0,4,5
 875 597 875 597 847.5 681 c 128,-1,6
 820 765 820 765 764.5 806.5 c 128,-1,7
 709 848 709 848 622 848 c 0,8,9
 536 848 536 848 477 814 c 128,-1,10
 418 780 418 780 387.5 707 c 128,-1,11
 357 634 357 634 357 519 c 0,12,13
 357 391 357 391 384.5 307 c 128,-1,14
 412 223 412 223 468.5 181.5 c 128,-1,15
 525 140 525 140 611 140 c 256,0,1
1082 252 m 1,16,17
 1016 131 1016 131 897 54 c 128,-1,18
 778 -23 778 -23 606 -23 c 0,19,20
 444 -23 444 -23 327.5 39.5 c 128,-1,21
 211 102 211 102 149 217.5 c 128,-1,22
 87 333 87 333 87 489 c 0,23,24
 87 648 87 648 153 765 c 128,-1,25
 219 882 219 882 340 946 c 128,-1,26
 461 1010 461 1010 627 1010 c 0,27,28
 789 1010 789 1010 902 939 c 128,-1,29
 1015 868 1015 868 1079 750 c 1,30,-1
 950 750 l 1,31,32
 1013 867 1013 867 1121 938.5 c 128,-1,33
 1229 1010 1229 1010 1380 1010 c 0,34,35
 1533 1010 1533 1010 1629.5 952 c 128,-1,36
 1726 894 1726 894 1773.5 777.5 c 128,-1,37
 1821 661 1821 661 1827 487 c 1,38,-1
 1082 487 l 1,39,-1
 1079 613 l 1,40,-1
 1664 620 l 1,41,-1
 1566 579 l 1,42,43
 1564 684 1564 684 1541 746.5 c 128,-1,44
 1518 809 1518 809 1474.5 836.5 c 128,-1,45
 1431 864 1431 864 1367 864 c 0,46,47
 1293 864 1293 864 1241.5 832 c 128,-1,48
 1190 800 1190 800 1163.5 731 c 128,-1,49
 1137 662 1137 662 1137 548 c 0,50,51
 1137 417 1137 417 1175.5 335.5 c 128,-1,52
 1214 254 1214 254 1294 216 c 128,-1,53
 1374 178 1374 178 1496 178 c 0,54,55
 1556 178 1556 178 1610 187 c 128,-1,56
 1664 196 1664 196 1713 211 c 128,-1,57
 1762 226 1762 226 1808 245 c 1,58,-1
 1815 147 l 1,59,60
 1741 92 1741 92 1668 54 c 128,-1,61
 1595 16 1595 16 1525.5 -3.5 c 128,-1,62
 1456 -23 1456 -23 1392 -23 c 0,63,64
 1224 -23 1224 -23 1111 52.5 c 128,-1,65
 998 128 998 128 938 252 c 1,66,-1
 1082 252 l 1,16,17
EndSplineSet
EndChar

StartChar: scedilla
Encoding: 351 351 353
Width: 1026
GlyphClass: 1
Flags: W
LayerCount: 2
Fore
SplineSet
559 1010 m 0,0,1
 641 1010 641 1010 711 1000 c 128,-1,2
 781 990 781 990 861 965 c 1,3,-1
 886 702 l 1,4,-1
 766 702 l 1,5,-1
 643 946 l 1,6,-1
 778 835 l 1,7,8
 717 859 717 859 657.5 870.5 c 128,-1,9
 598 882 598 882 551 882 c 0,10,11
 446 882 446 882 394.5 852 c 128,-1,12
 343 822 343 822 343 764 c 0,13,14
 343 711 343 711 374 682.5 c 128,-1,15
 405 654 405 654 466 637.5 c 128,-1,16
 527 621 527 621 615 605 c 0,17,18
 682 593 682 593 740 574 c 128,-1,19
 798 555 798 555 843 522.5 c 128,-1,20
 888 490 888 490 913 437.5 c 128,-1,21
 938 385 938 385 938 305 c 0,22,23
 938 200 938 200 884.5 127.5 c 128,-1,24
 831 55 831 55 725.5 17 c 128,-1,25
 620 -21 620 -21 461 -21 c 0,26,27
 375 -21 375 -21 285 -9.5 c 128,-1,28
 195 2 195 2 134 23 c 1,29,-1
 91 310 l 1,30,-1
 210 310 l 1,31,-1
 350 37 l 1,32,-1
 213 143 l 1,33,34
 248 131 248 131 286.5 124 c 128,-1,35
 325 117 325 117 364 114.5 c 128,-1,36
 403 112 403 112 439 112 c 0,37,38
 571 112 571 112 632.5 147.5 c 128,-1,39
 694 183 694 183 694 255 c 0,40,41
 694 303 694 303 670 331 c 128,-1,42
 646 359 646 359 602.5 374.5 c 128,-1,43
 559 390 559 390 502 400.5 c 128,-1,44
 445 411 445 411 380 425 c 0,45,46
 293 444 293 444 232 476.5 c 128,-1,47
 171 509 171 509 140 565 c 128,-1,48
 109 621 109 621 109 709 c 0,49,50
 109 807 109 807 163 874.5 c 128,-1,51
 217 942 217 942 318 976 c 128,-1,52
 419 1010 419 1010 559 1010 c 0,0,1
430 -481 m 0,53,54
 336 -481 336 -481 302 -458 c 128,-1,55
 268 -435 268 -435 268 -395 c 0,56,57
 268 -365 268 -365 286 -348.5 c 128,-1,58
 304 -332 304 -332 324 -332 c 0,59,60
 338 -332 338 -332 358.5 -348 c 128,-1,61
 379 -364 379 -364 405.5 -380 c 128,-1,62
 432 -396 432 -396 464 -396 c 0,63,64
 513 -396 513 -396 536 -377.5 c 128,-1,65
 559 -359 559 -359 559 -324 c 0,66,67
 559 -299 559 -299 543 -281.5 c 128,-1,68
 527 -264 527 -264 479 -250 c 128,-1,69
 431 -236 431 -236 336 -222 c 1,70,-1
 336 -196 l 1,71,-1
 518 36 l 1,72,-1
 633 36 l 1,73,-1
 453 -188 l 1,74,-1
 447 -94 l 1,75,76
 557 -113 557 -113 614 -140.5 c 128,-1,77
 671 -168 671 -168 691.5 -203.5 c 128,-1,78
 712 -239 712 -239 712 -283 c 0,79,80
 712 -349 712 -349 676 -393 c 128,-1,81
 640 -437 640 -437 576.5 -459 c 128,-1,82
 513 -481 513 -481 430 -481 c 0,53,54
EndSplineSet
Substitution2: "'locl' Localized Forms in Latin lookup 1 subtable" uni0219
Substitution2: "'locl' Localized Forms in Latin lookup 0 subtable" uni0219
EndChar

StartChar: germandbls
Encoding: 223 223 356
Width: 1522
GlyphClass: 1
Flags: W
LayerCount: 2
Fore
SplineSet
245 1014 m 2,0,1
 245 1131 245 1131 285 1217 c 128,-1,2
 325 1303 325 1303 400.5 1359 c 128,-1,3
 476 1415 476 1415 585 1443 c 128,-1,4
 694 1471 694 1471 832 1471 c 0,5,6
 963 1471 963 1471 1053 1452.5 c 128,-1,7
 1143 1434 1143 1434 1197 1399.5 c 128,-1,8
 1251 1365 1251 1365 1275.5 1315.5 c 128,-1,9
 1300 1266 1300 1266 1300 1205 c 0,10,11
 1300 1134 1300 1134 1269.5 1087.5 c 128,-1,12
 1239 1041 1239 1041 1193.5 1008.5 c 128,-1,13
 1148 976 1148 976 1102.5 948 c 128,-1,14
 1057 920 1057 920 1026.5 887.5 c 128,-1,15
 996 855 996 855 996 807 c 0,16,17
 996 762 996 762 1028.5 735 c 128,-1,18
 1061 708 1061 708 1112.5 688 c 128,-1,19
 1164 668 1164 668 1222 645 c 128,-1,20
 1280 622 1280 622 1331 585 c 128,-1,21
 1382 548 1382 548 1415 486.5 c 128,-1,22
 1448 425 1448 425 1448 328 c 0,23,24
 1448 215 1448 215 1400 137.5 c 128,-1,25
 1352 60 1352 60 1257.5 19.5 c 128,-1,26
 1163 -21 1163 -21 1022 -21 c 0,27,28
 951 -21 951 -21 875 -9.5 c 128,-1,29
 799 2 799 2 745 22 c 1,30,-1
 707 310 l 1,31,-1
 825 310 l 1,32,-1
 950 37 l 1,33,-1
 802 143 l 1,34,35
 848 125 848 125 901 118.5 c 128,-1,36
 954 112 954 112 1003 112 c 0,37,38
 1115 112 1115 112 1164 152 c 128,-1,39
 1213 192 1213 192 1213 265 c 0,40,41
 1213 330 1213 330 1181.5 367 c 128,-1,42
 1150 404 1150 404 1100.5 426 c 128,-1,43
 1051 448 1051 448 995 467.5 c 128,-1,44
 939 487 939 487 889.5 516 c 128,-1,45
 840 545 840 545 808.5 594.5 c 128,-1,46
 777 644 777 644 777 727 c 0,47,48
 777 800 777 800 803.5 850 c 128,-1,49
 830 900 830 900 869.5 937 c 128,-1,50
 909 974 909 974 948.5 1006 c 128,-1,51
 988 1038 988 1038 1015 1073.5 c 128,-1,52
 1042 1109 1042 1109 1042 1159 c 0,53,54
 1042 1210 1042 1210 1017 1247.5 c 128,-1,55
 992 1285 992 1285 939.5 1306 c 128,-1,56
 887 1327 887 1327 804 1327 c 0,57,58
 699 1327 699 1327 634.5 1302.5 c 128,-1,59
 570 1278 570 1278 540.5 1223 c 128,-1,60
 511 1168 511 1168 511 1077 c 2,61,-1
 511 128 l 1,62,-1
 639 87 l 1,63,-1
 639 0 l 1,64,-1
 96 0 l 1,65,-1
 96 87 l 1,66,-1
 245 128 l 1,67,-1
 245 1014 l 2,0,1
261 1009 m 1,68,-1
 245 795 l 1,69,-1
 49 864 l 1,70,-1
 49 927 l 1,71,-1
 261 1009 l 1,68,-1
EndSplineSet
EndChar

StartChar: uni0163
Encoding: 355 355 357
Width: 898
GlyphClass: 1
Flags: W
LayerCount: 2
Fore
SplineSet
472 317 m 2,0,1
 472 237 472 237 516 203.5 c 128,-1,2
 560 170 560 170 658 170 c 0,3,4
 701 170 701 170 752 178 c 128,-1,5
 803 186 803 186 861 201 c 1,6,-1
 861 105 l 1,7,8
 771 56 771 56 706.5 28.5 c 128,-1,9
 642 1 642 1 593 -10.5 c 128,-1,10
 544 -22 544 -22 499 -22 c 0,11,12
 412 -22 412 -22 346 6 c 128,-1,13
 280 34 280 34 243 91.5 c 128,-1,14
 206 149 206 149 206 235 c 2,15,-1
 206 803 l 1,16,-1
 31 893 l 1,17,-1
 31 959 l 1,18,19
 72 974 72 974 112 993.5 c 128,-1,20
 152 1013 152 1013 189.5 1036 c 128,-1,21
 227 1059 227 1059 261.5 1084.5 c 128,-1,22
 296 1110 296 1110 328.5 1139 c 128,-1,23
 361 1168 361 1168 390 1199 c 1,24,-1
 472 1199 l 1,25,-1
 472 958 l 1,26,-1
 472 317 l 2,0,1
366 820 m 1,27,-1
 370 987 l 1,28,-1
 836 987 l 1,29,-1
 831 820 l 1,30,-1
 366 820 l 1,27,-1
452 -481 m 0,31,32
 358 -481 358 -481 324 -458 c 128,-1,33
 290 -435 290 -435 290 -395 c 0,34,35
 290 -365 290 -365 308 -348.5 c 128,-1,36
 326 -332 326 -332 346 -332 c 0,37,38
 361 -332 361 -332 381 -348 c 128,-1,39
 401 -364 401 -364 428 -380 c 128,-1,40
 455 -396 455 -396 487 -396 c 0,41,42
 535 -396 535 -396 558.5 -377.5 c 128,-1,43
 582 -359 582 -359 582 -324 c 0,44,45
 582 -299 582 -299 565.5 -281.5 c 128,-1,46
 549 -264 549 -264 501 -250 c 128,-1,47
 453 -236 453 -236 358 -222 c 1,48,-1
 358 -196 l 1,49,-1
 540 36 l 1,50,-1
 655 36 l 1,51,-1
 476 -188 l 1,52,-1
 469 -94 l 1,53,54
 580 -113 580 -113 637 -140.5 c 128,-1,55
 694 -168 694 -168 714 -203.5 c 128,-1,56
 734 -239 734 -239 734 -283 c 0,57,58
 734 -349 734 -349 698.5 -393 c 128,-1,59
 663 -437 663 -437 599 -459 c 128,-1,60
 535 -481 535 -481 452 -481 c 0,31,32
EndSplineSet
EndChar

StartChar: tbar
Encoding: 359 359 359
Width: 911
GlyphClass: 1
Flags: W
LayerCount: 2
Fore
SplineSet
59 468 m 1,0,-1
 59 586 l 1,1,-1
 787 586 l 1,2,-1
 787 468 l 1,3,-1
 59 468 l 1,0,-1
485 317 m 2,4,5
 485 237 485 237 529 203.5 c 128,-1,6
 573 170 573 170 671 170 c 0,7,8
 714 170 714 170 765 178 c 128,-1,9
 816 186 816 186 875 201 c 1,10,-1
 875 105 l 1,11,12
 784 56 784 56 720 28.5 c 128,-1,13
 656 1 656 1 606.5 -10.5 c 128,-1,14
 557 -22 557 -22 512 -22 c 0,15,16
 425 -22 425 -22 359 6 c 128,-1,17
 293 34 293 34 256.5 91.5 c 128,-1,18
 220 149 220 149 220 235 c 2,19,-1
 220 803 l 1,20,-1
 44 893 l 1,21,-1
 44 959 l 1,22,23
 86 974 86 974 125.5 993.5 c 128,-1,24
 165 1013 165 1013 202.5 1036 c 128,-1,25
 240 1059 240 1059 275 1084.5 c 128,-1,26
 310 1110 310 1110 342 1139 c 128,-1,27
 374 1168 374 1168 403 1199 c 1,28,-1
 485 1199 l 1,29,-1
 485 958 l 1,30,-1
 485 317 l 2,4,5
379 820 m 1,31,-1
 383 987 l 1,32,-1
 849 987 l 1,33,-1
 845 820 l 1,34,-1
 379 820 l 1,31,-1
EndSplineSet
EndChar

StartChar: uogonek
Encoding: 371 371 370
Width: 1315
GlyphClass: 1
Flags: W
LayerCount: 2
Fore
SplineSet
461 349 m 2,0,1
 461 295 461 295 478.5 262 c 128,-1,2
 496 229 496 229 535.5 214 c 128,-1,3
 575 199 575 199 641 199 c 0,4,5
 697 199 697 199 756 212 c 128,-1,6
 815 225 815 225 863 245 c 1,7,-1
 885 183 l 1,8,9
 800 113 800 113 744.5 71.5 c 128,-1,10
 689 30 689 30 649.5 9.5 c 128,-1,11
 610 -11 610 -11 575.5 -17 c 128,-1,12
 541 -23 541 -23 497 -23 c 0,13,14
 342 -23 342 -23 269 55 c 128,-1,15
 196 133 196 133 196 285 c 2,16,-1
 196 820 l 1,17,-1
 31 896 l 1,18,-1
 31 981 l 1,19,-1
 480 999 l 1,20,-1
 461 849 l 1,21,-1
 461 349 l 2,0,1
909 -22 m 1,22,-1
 841 172 l 1,23,-1
 841 832 l 1,24,-1
 719 901 l 1,25,-1
 719 986 l 1,26,-1
 1121 997 l 1,27,-1
 1107 844 l 1,28,-1
 1107 236 l 1,29,30
 1117 229 1117 229 1137.5 216.5 c 128,-1,31
 1158 204 1158 204 1183.5 189.5 c 128,-1,32
 1209 175 1209 175 1233 162.5 c 128,-1,33
 1257 150 1257 150 1274 142 c 1,34,-1
 1274 90 l 1,35,-1
 950 -22 l 1,36,-1
 909 -22 l 1,22,-1
960 -83 m 2,37,38
 933 -128 933 -128 918.5 -160 c 128,-1,39
 904 -192 904 -192 899 -217 c 128,-1,40
 894 -242 894 -242 894 -267 c 0,41,42
 894 -310 894 -310 919 -333 c 128,-1,43
 944 -356 944 -356 986 -356 c 0,44,45
 1017 -356 1017 -356 1043.5 -348 c 128,-1,46
 1070 -340 1070 -340 1111 -314 c 1,47,-1
 1119 -385 l 1,48,49
 1079 -421 1079 -421 1046.5 -442 c 128,-1,50
 1014 -463 1014 -463 981.5 -472 c 128,-1,51
 949 -481 949 -481 910 -481 c 0,52,53
 818 -481 818 -481 775 -437.5 c 128,-1,54
 732 -394 732 -394 732 -320 c 0,55,56
 732 -287 732 -287 740.5 -254 c 128,-1,57
 749 -221 749 -221 775.5 -178.5 c 128,-1,58
 802 -136 802 -136 854 -75 c 2,59,-1
 964 57 l 1,60,-1
 1047 57 l 1,61,-1
 960 -83 l 2,37,38
EndSplineSet
EndChar

StartChar: uhorn
Encoding: 432 432 371
Width: 1347
GlyphClass: 2
Flags: W
AnchorPoint: "Anchor-4" 654 0 basechar 0
AnchorPoint: "Anchor-0" 624 987 basechar 0
LayerCount: 2
Fore
SplineSet
461 349 m 2,0,1
 461 295 461 295 478.5 262 c 128,-1,2
 496 229 496 229 535.5 214 c 128,-1,3
 575 199 575 199 641 199 c 0,4,5
 697 199 697 199 756 212 c 128,-1,6
 815 225 815 225 863 245 c 1,7,-1
 885 183 l 1,8,9
 800 113 800 113 744.5 71.5 c 128,-1,10
 689 30 689 30 649.5 9.5 c 128,-1,11
 610 -11 610 -11 575.5 -17 c 128,-1,12
 541 -23 541 -23 497 -23 c 0,13,14
 342 -23 342 -23 269 55 c 128,-1,15
 196 133 196 133 196 285 c 2,16,-1
 196 820 l 1,17,-1
 31 896 l 1,18,-1
 31 981 l 1,19,-1
 480 999 l 1,20,-1
 461 849 l 1,21,-1
 461 349 l 2,0,1
1192 1085 m 0,22,23
 1192 1116 1192 1116 1182.5 1138.5 c 128,-1,24
 1173 1161 1173 1161 1163.5 1177 c 128,-1,25
 1154 1193 1154 1193 1154 1202 c 0,26,27
 1155 1234 1155 1234 1187.5 1256 c 128,-1,28
 1220 1278 1220 1278 1263 1278 c 0,29,30
 1318 1278 1318 1278 1356 1245.5 c 128,-1,31
 1394 1213 1394 1213 1394 1139 c 0,32,33
 1394 1029 1394 1029 1323.5 967.5 c 128,-1,34
 1253 906 1253 906 1113 897 c 1,35,-1
 1107 845 l 1,36,-1
 1107 236 l 1,37,38
 1117 229 1117 229 1137.5 216.5 c 128,-1,39
 1158 204 1158 204 1183.5 189.5 c 128,-1,40
 1209 175 1209 175 1233 162.5 c 128,-1,41
 1257 150 1257 150 1274 142 c 1,42,-1
 1274 90 l 1,43,-1
 950 -22 l 1,44,-1
 909 -22 l 1,45,-1
 841 172 l 1,46,-1
 841 832 l 1,47,-1
 719 901 l 1,48,-1
 719 986 l 1,49,-1
 1052 994 l 2,50,51
 1133 996 1133 996 1162.5 1020 c 128,-1,52
 1192 1044 1192 1044 1192 1085 c 0,22,23
EndSplineSet
EndChar

StartChar: thorn
Encoding: 254 254 396
Width: 1285
GlyphClass: 1
Flags: W
LayerCount: 2
Fore
SplineSet
160 1213 m 1,0,1
 147 1222 147 1222 116 1237.5 c 128,-1,2
 85 1253 85 1253 45 1271.5 c 128,-1,3
 5 1290 5 1290 -34 1308 c 1,4,-1
 -34 1387 l 1,5,-1
 389 1471 l 1,6,-1
 446 1471 l 1,7,-1
 426 1248 l 1,8,-1
 426 356 l 2,9,10
 426 282 426 282 454.5 233 c 128,-1,11
 483 184 483 184 535 159.5 c 128,-1,12
 587 135 587 135 655 135 c 0,13,14
 739 135 739 135 798 174.5 c 128,-1,15
 857 214 857 214 888.5 292 c 128,-1,16
 920 370 920 370 920 487 c 0,17,18
 920 659 920 659 846 740 c 128,-1,19
 772 821 772 821 635 821 c 0,20,21
 588 821 588 821 540.5 814 c 128,-1,22
 493 807 493 807 447.5 794 c 128,-1,23
 402 781 402 781 359 760 c 1,24,-1
 356 851 l 1,25,26
 434 898 434 898 493 929 c 128,-1,27
 552 960 552 960 598 978 c 128,-1,28
 644 996 644 996 680.5 1003 c 128,-1,29
 717 1010 717 1010 751 1010 c 0,30,31
 896 1010 896 1010 995.5 952 c 128,-1,32
 1095 894 1095 894 1145.5 787.5 c 128,-1,33
 1196 681 1196 681 1196 535 c 0,34,35
 1196 359 1196 359 1130.5 234 c 128,-1,36
 1065 109 1065 109 954.5 43 c 128,-1,37
 844 -23 844 -23 709 -23 c 0,38,39
 623 -23 623 -23 556 9.5 c 128,-1,40
 489 42 489 42 444.5 97 c 128,-1,41
 400 152 400 152 383 219 c 1,42,-1
 425 219 l 1,43,-1
 425 -331 l 1,44,-1
 596 -371 l 1,45,-1
 596 -458 l 1,46,-1
 8 -458 l 1,47,-1
 8 -371 l 1,48,-1
 160 -330 l 1,49,-1
 160 1213 l 1,0,1
EndSplineSet
EndChar

StartChar: eth
Encoding: 240 240 397
Width: 1254
GlyphClass: 1
Flags: W
LayerCount: 2
Fore
SplineSet
606 -23 m 0,0,1
 444 -23 444 -23 328 38 c 128,-1,2
 212 99 212 99 149.5 210.5 c 128,-1,3
 87 322 87 322 87 474 c 0,4,5
 87 628 87 628 148 739 c 128,-1,6
 209 850 209 850 317 910 c 128,-1,7
 425 970 425 970 567 970 c 0,8,9
 637 970 637 970 693.5 950 c 128,-1,10
 750 930 750 930 793 893 c 128,-1,11
 836 856 836 856 864.5 805 c 128,-1,12
 893 754 893 754 906 693 c 1,13,-1
 884 688 l 1,14,15
 881 820 881 820 843.5 920 c 128,-1,16
 806 1020 806 1020 729 1096.5 c 128,-1,17
 652 1173 652 1173 530.5 1233 c 128,-1,18
 409 1293 409 1293 237 1344 c 1,19,-1
 282 1471 l 1,20,21
 493 1420 493 1420 642.5 1355 c 128,-1,22
 792 1290 792 1290 890 1209 c 128,-1,23
 988 1128 988 1128 1044 1029 c 128,-1,24
 1100 930 1100 930 1123 812 c 128,-1,25
 1146 694 1146 694 1146 555 c 0,26,27
 1146 355 1146 355 1080 227.5 c 128,-1,28
 1014 100 1014 100 892.5 38.5 c 128,-1,29
 771 -23 771 -23 606 -23 c 0,0,1
611 136 m 256,30,31
 697 136 697 136 756.5 168.5 c 128,-1,32
 816 201 816 201 846 271.5 c 128,-1,33
 876 342 876 342 876 454 c 0,34,35
 876 578 876 578 848.5 659 c 128,-1,36
 821 740 821 740 765 780.5 c 128,-1,37
 709 821 709 821 623 821 c 0,38,39
 536 821 536 821 477.5 788 c 128,-1,40
 419 755 419 755 388.5 684.5 c 128,-1,41
 358 614 358 614 358 502 c 0,42,43
 358 379 358 379 385.5 297.5 c 128,-1,44
 413 216 413 216 469 176 c 128,-1,45
 525 136 525 136 611 136 c 256,30,31
398 1011 m 1,46,-1
 336 1102 l 1,47,-1
 902 1471 l 1,48,-1
 964 1380 l 1,49,-1
 398 1011 l 1,46,-1
EndSplineSet
EndChar

StartChar: uni0259
Encoding: 601 601 398
Width: 1117
GlyphClass: 1
Flags: W
LayerCount: 2
Fore
SplineSet
533 -23 m 0,0,1
 381 -23 381 -23 284.5 35 c 128,-1,2
 188 93 188 93 140.5 210 c 128,-1,3
 93 327 93 327 87 500 c 1,4,-1
 831 500 l 1,5,-1
 834 374 l 1,6,-1
 250 368 l 1,7,-1
 348 409 l 1,8,9
 350 304 350 304 372.5 241 c 128,-1,10
 395 178 395 178 439 151 c 128,-1,11
 483 124 483 124 547 124 c 0,12,13
 620 124 620 124 671.5 155.5 c 128,-1,14
 723 187 723 187 750 256.5 c 128,-1,15
 777 326 777 326 777 439 c 0,16,17
 777 571 777 571 738 652 c 128,-1,18
 699 733 699 733 620 771 c 128,-1,19
 541 809 541 809 418 809 c 0,20,21
 358 809 358 809 304 800.5 c 128,-1,22
 250 792 250 792 201 777 c 128,-1,23
 152 762 152 762 106 743 c 1,24,-1
 99 840 l 1,25,26
 173 896 173 896 246 933.5 c 128,-1,27
 319 971 319 971 388.5 990.5 c 128,-1,28
 458 1010 458 1010 522 1010 c 0,29,30
 678 1010 678 1010 792 951 c 128,-1,31
 906 892 906 892 967.5 779.5 c 128,-1,32
 1029 667 1029 667 1029 508 c 0,33,34
 1029 350 1029 350 969.5 230 c 128,-1,35
 910 110 910 110 799 43.5 c 128,-1,36
 688 -23 688 -23 533 -23 c 0,0,1
EndSplineSet
EndChar

StartChar: gravecomb
Encoding: 768 768 416
Width: 0
GlyphClass: 4
Flags: W
AnchorPoint: "Anchor-6" -22 1486 basemark 0
AnchorPoint: "Anchor-6" 0 987 mark 0
AnchorPoint: "Anchor-0" 0 987 mark 0
LayerCount: 2
Fore
SplineSet
80 1106 m 1,0,-1
 -52 1106 l 1,1,-1
 -381 1387 l 1,2,-1
 -381 1433 l 1,3,-1
 -88 1433 l 1,4,-1
 80 1106 l 1,0,-1
EndSplineSet
EndChar

StartChar: acutecomb
Encoding: 769 769 417
Width: 0
GlyphClass: 4
Flags: W
AnchorPoint: "Anchor-6" 22 1486 basemark 0
AnchorPoint: "Anchor-6" 0 987 mark 0
AnchorPoint: "Anchor-0" 0 987 mark 0
LayerCount: 2
Fore
SplineSet
-80 1106 m 1,0,-1
 88 1433 l 1,1,-1
 381 1433 l 1,2,-1
 381 1387 l 1,3,-1
 52 1106 l 1,4,-1
 -80 1106 l 1,0,-1
EndSplineSet
EndChar

StartChar: uni0302
Encoding: 770 770 418
Width: 0
GlyphClass: 4
Flags: W
AnchorPoint: "Anchor-6" 0 1433 basemark 0
AnchorPoint: "Anchor-6" 0 987 mark 0
AnchorPoint: "Anchor-0" 0 987 mark 0
LayerCount: 2
Fore
SplineSet
-355 1106 m 1,0,-1
 -110 1433 l 1,1,-1
 110 1433 l 1,2,-1
 355 1106 l 1,3,-1
 186 1106 l 1,4,-1
 -32 1307 l 1,5,-1
 32 1307 l 1,6,-1
 -186 1106 l 1,7,-1
 -355 1106 l 1,0,-1
EndSplineSet
EndChar

StartChar: tildecomb
Encoding: 771 771 419
Width: 0
GlyphClass: 4
Flags: W
AnchorPoint: "Anchor-6" 0 1354 basemark 0
AnchorPoint: "Anchor-6" 0 987 mark 0
AnchorPoint: "Anchor-0" 0 987 mark 0
LayerCount: 2
Fore
SplineSet
329 1423 m 1,0,1
 313 1297 313 1297 289 1229.5 c 128,-1,2
 265 1162 265 1162 226.5 1136.5 c 128,-1,3
 188 1111 188 1111 129 1111 c 0,4,5
 86 1111 86 1111 50.5 1132.5 c 128,-1,6
 15 1154 15 1154 -15 1182 c 128,-1,7
 -45 1210 -45 1210 -72 1231.5 c 128,-1,8
 -99 1253 -99 1253 -126 1253 c 0,9,10
 -145 1253 -145 1253 -159 1242.5 c 128,-1,11
 -173 1232 -173 1232 -183.5 1202.5 c 128,-1,12
 -194 1173 -194 1173 -204 1116 c 1,13,-1
 -335 1116 l 1,14,15
 -319 1242 -319 1242 -295 1309.5 c 128,-1,16
 -271 1377 -271 1377 -232 1402.5 c 128,-1,17
 -193 1428 -193 1428 -135 1428 c 0,18,19
 -92 1428 -92 1428 -57 1406.5 c 128,-1,20
 -22 1385 -22 1385 8.5 1357 c 128,-1,21
 39 1329 39 1329 66 1307.5 c 128,-1,22
 93 1286 93 1286 119 1286 c 0,23,24
 140 1286 140 1286 153.5 1296.5 c 128,-1,25
 167 1307 167 1307 177.5 1336.5 c 128,-1,26
 188 1366 188 1366 198 1423 c 1,27,-1
 329 1423 l 1,0,1
EndSplineSet
EndChar

StartChar: uni0304
Encoding: 772 772 420
Width: 0
GlyphClass: 4
Flags: W
AnchorPoint: "Anchor-6" 0 1433 basemark 0
AnchorPoint: "Anchor-6" 0 987 mark 0
AnchorPoint: "Anchor-0" 0 987 mark 0
LayerCount: 2
Fore
SplineSet
-308 1200 m 1,0,-1
 -308 1340 l 1,1,-1
 308 1340 l 1,2,-1
 308 1200 l 1,3,-1
 -308 1200 l 1,0,-1
EndSplineSet
EndChar

StartChar: uni0306
Encoding: 774 774 421
Width: 0
GlyphClass: 4
Flags: W
AnchorPoint: "Anchor-6" 0 1433 basemark 0
AnchorPoint: "Anchor-6" 0 987 mark 0
AnchorPoint: "Anchor-0" 0 987 mark 0
LayerCount: 2
Fore
SplineSet
0 1265 m 0,0,1
 60 1265 60 1265 100 1281 c 128,-1,2
 140 1297 140 1297 165 1334 c 128,-1,3
 190 1371 190 1371 205 1433 c 1,4,-1
 324 1433 l 1,5,6
 305 1304 305 1304 266.5 1232 c 128,-1,7
 228 1160 228 1160 163.5 1130.5 c 128,-1,8
 99 1101 99 1101 0 1101 c 0,9,10
 -98 1101 -98 1101 -163 1130.5 c 128,-1,11
 -228 1160 -228 1160 -266 1232 c 128,-1,12
 -304 1304 -304 1304 -324 1433 c 1,13,-1
 -205 1433 l 1,14,15
 -190 1371 -190 1371 -165 1334 c 128,-1,16
 -140 1297 -140 1297 -99.5 1281 c 128,-1,17
 -59 1265 -59 1265 0 1265 c 0,0,1
EndSplineSet
EndChar

StartChar: uni0307
Encoding: 775 775 422
Width: 0
GlyphClass: 4
Flags: W
AnchorPoint: "Anchor-6" 0 1354 basemark 0
AnchorPoint: "Anchor-6" 0 987 mark 0
AnchorPoint: "Anchor-0" 0 987 mark 0
LayerCount: 2
Fore
SplineSet
0 1139 m 256,0,1
 -80 1139 -80 1139 -121 1174 c 128,-1,2
 -162 1209 -162 1209 -162 1271 c 0,3,4
 -162 1334 -162 1334 -121 1367 c 128,-1,5
 -80 1400 -80 1400 0 1400 c 256,6,7
 80 1400 80 1400 121 1367 c 128,-1,8
 162 1334 162 1334 162 1271 c 0,9,10
 162 1209 162 1209 121 1174 c 128,-1,11
 80 1139 80 1139 0 1139 c 256,0,1
EndSplineSet
EndChar

StartChar: uni0308
Encoding: 776 776 423
Width: 0
GlyphClass: 4
Flags: W
AnchorPoint: "Anchor-6" 0 1354 basemark 0
AnchorPoint: "Anchor-6" 0 987 mark 0
AnchorPoint: "Anchor-0" 0 987 mark 0
LayerCount: 2
Fore
SplineSet
-222 1146 m 0,0,1
 -291 1146 -291 1146 -325.5 1179 c 128,-1,2
 -360 1212 -360 1212 -360 1272 c 0,3,4
 -360 1331 -360 1331 -325.5 1362 c 128,-1,5
 -291 1393 -291 1393 -222 1393 c 0,6,7
 -154 1393 -154 1393 -119 1362 c 128,-1,8
 -84 1331 -84 1331 -84 1272 c 0,9,10
 -84 1212 -84 1212 -119 1179 c 128,-1,11
 -154 1146 -154 1146 -222 1146 c 0,0,1
223 1146 m 0,12,13
 154 1146 154 1146 119 1179 c 128,-1,14
 84 1212 84 1212 84 1272 c 0,15,16
 84 1331 84 1331 119 1362 c 128,-1,17
 154 1393 154 1393 223 1393 c 0,18,19
 291 1393 291 1393 325.5 1362 c 128,-1,20
 360 1331 360 1331 360 1272 c 0,21,22
 360 1212 360 1212 325.5 1179 c 128,-1,23
 291 1146 291 1146 223 1146 c 0,12,13
EndSplineSet
EndChar

StartChar: hookabovecomb
Encoding: 777 777 424
Width: 0
GlyphClass: 4
Flags: W
AnchorPoint: "Anchor-6" 0 1433 basemark 0
AnchorPoint: "Anchor-6" 0 987 mark 0
AnchorPoint: "Anchor-0" 0 987 mark 0
LayerCount: 2
Fore
SplineSet
-196 1326 m 1,0,-1
 -184 1479 l 1,1,2
 -52 1477 -52 1477 29 1464.5 c 128,-1,3
 110 1452 110 1452 152.5 1430.5 c 128,-1,4
 195 1409 195 1409 210.5 1377.5 c 128,-1,5
 226 1346 226 1346 226 1306 c 0,6,7
 226 1256 226 1256 200 1215.5 c 128,-1,8
 174 1175 174 1175 107.5 1143.5 c 128,-1,9
 41 1112 41 1112 -82 1090 c 1,10,-1
 -100 1169 l 1,11,12
 -31 1183 -31 1183 2 1196 c 128,-1,13
 35 1209 35 1209 46 1224.5 c 128,-1,14
 57 1240 57 1240 57 1258 c 0,15,16
 57 1280 57 1280 40.5 1295 c 128,-1,17
 24 1310 24 1310 -30 1318 c 128,-1,18
 -84 1326 -84 1326 -196 1326 c 1,0,-1
EndSplineSet
EndChar

StartChar: uni030A
Encoding: 778 778 425
Width: 0
GlyphClass: 4
Flags: W
AnchorPoint: "Anchor-6" 0 1433 basemark 0
AnchorPoint: "Anchor-6" 0 987 mark 0
AnchorPoint: "Anchor-0" 0 987 mark 0
LayerCount: 2
Fore
SplineSet
-2 1456 m 0,0,1
 83 1456 83 1456 134 1406 c 128,-1,2
 185 1356 185 1356 185 1272 c 0,3,4
 185 1190 185 1190 134 1139.5 c 128,-1,5
 83 1089 83 1089 -2 1089 c 0,6,7
 -86 1089 -86 1089 -137.5 1139.5 c 128,-1,8
 -189 1190 -189 1190 -189 1272 c 0,9,10
 -189 1356 -189 1356 -137.5 1406 c 128,-1,11
 -86 1456 -86 1456 -2 1456 c 0,0,1
-2 1158 m 256,12,13
 50 1158 50 1158 80.5 1189.5 c 128,-1,14
 111 1221 111 1221 111 1272 c 0,15,16
 111 1326 111 1326 80.5 1357.5 c 128,-1,17
 50 1389 50 1389 -2 1389 c 256,18,19
 -54 1389 -54 1389 -84.5 1357.5 c 128,-1,20
 -115 1326 -115 1326 -115 1272 c 0,21,22
 -115 1221 -115 1221 -84.5 1189.5 c 128,-1,23
 -54 1158 -54 1158 -2 1158 c 256,12,13
EndSplineSet
EndChar

StartChar: uni030B
Encoding: 779 779 426
Width: 0
GlyphClass: 4
Flags: W
AnchorPoint: "Anchor-6" 0 1433 basemark 0
AnchorPoint: "Anchor-6" 0 987 mark 0
AnchorPoint: "Anchor-0" 0 987 mark 0
LayerCount: 2
Fore
SplineSet
75 1106 m 1,0,-1
 248 1433 l 1,1,-1
 527 1433 l 1,2,-1
 527 1387 l 1,3,-1
 205 1106 l 1,4,-1
 75 1106 l 1,0,-1
-241 1106 m 1,5,-1
 -168 1433 l 1,6,-1
 91 1433 l 1,7,-1
 91 1393 l 1,8,-1
 -120 1106 l 1,9,-1
 -241 1106 l 1,5,-1
EndSplineSet
EndChar

StartChar: uni030C
Encoding: 780 780 427
Width: 0
GlyphClass: 4
Flags: W
AnchorPoint: "Anchor-6" 0 1433 basemark 0
AnchorPoint: "Anchor-6" 0 987 mark 0
AnchorPoint: "Anchor-0" 0 987 mark 0
LayerCount: 2
Fore
SplineSet
32 1231 m 1,0,-1
 -32 1231 l 1,1,-1
 186 1433 l 1,2,-1
 355 1433 l 1,3,-1
 110 1106 l 1,4,-1
 -110 1106 l 1,5,-1
 -355 1433 l 1,6,-1
 -186 1433 l 1,7,-1
 32 1231 l 1,0,-1
EndSplineSet
EndChar

StartChar: uni030F
Encoding: 783 783 428
Width: 0
GlyphClass: 4
Flags: W
AnchorPoint: "Anchor-6" 0 1433 basemark 0
AnchorPoint: "Anchor-6" 0 987 mark 0
AnchorPoint: "Anchor-0" 0 987 mark 0
LayerCount: 2
Fore
SplineSet
-75 1106 m 1,0,-1
 -205 1106 l 1,1,-1
 -527 1387 l 1,2,-1
 -527 1433 l 1,3,-1
 -248 1433 l 1,4,-1
 -75 1106 l 1,0,-1
241 1106 m 1,5,-1
 120 1106 l 1,6,-1
 -91 1393 l 1,7,-1
 -91 1433 l 1,8,-1
 168 1433 l 1,9,-1
 241 1106 l 1,5,-1
EndSplineSet
EndChar

StartChar: uni0311
Encoding: 785 785 429
Width: 0
GlyphClass: 4
Flags: W
AnchorPoint: "Anchor-6" 0 1433 basemark 0
AnchorPoint: "Anchor-6" 0 987 mark 0
AnchorPoint: "Anchor-0" 0 987 mark 0
LayerCount: 2
Fore
SplineSet
0 1274 m 0,0,1
 -59 1274 -59 1274 -99.5 1258 c 128,-1,2
 -140 1242 -140 1242 -165 1205 c 128,-1,3
 -190 1168 -190 1168 -205 1106 c 1,4,-1
 -324 1106 l 1,5,6
 -304 1235 -304 1235 -266 1307 c 128,-1,7
 -228 1379 -228 1379 -163 1408.5 c 128,-1,8
 -98 1438 -98 1438 0 1438 c 0,9,10
 99 1438 99 1438 163.5 1408.5 c 128,-1,11
 228 1379 228 1379 266.5 1307 c 128,-1,12
 305 1235 305 1235 324 1106 c 1,13,-1
 205 1106 l 1,14,15
 190 1168 190 1168 165 1205 c 128,-1,16
 140 1242 140 1242 100 1258 c 128,-1,17
 60 1274 60 1274 0 1274 c 0,0,1
EndSplineSet
EndChar

StartChar: uni0312
Encoding: 786 786 430
Width: 0
GlyphClass: 4
Flags: W
AnchorPoint: "Anchor-6" 0 1433 basemark 0
AnchorPoint: "Anchor-6" 0 987 mark 0
AnchorPoint: "Anchor-0" 0 987 mark 0
LayerCount: 2
Fore
SplineSet
140 1220 m 0,0,1
 140 1166 140 1166 106.5 1130.5 c 128,-1,2
 73 1095 73 1095 3 1095 c 0,3,4
 -58 1095 -58 1095 -96.5 1129 c 128,-1,5
 -135 1163 -135 1163 -135 1242 c 0,6,7
 -135 1291 -135 1291 -111.5 1337 c 128,-1,8
 -88 1383 -88 1383 -30.5 1418.5 c 128,-1,9
 27 1454 27 1454 132 1471 c 1,10,-1
 148 1394 l 1,11,12
 74 1381 74 1381 49 1360 c 128,-1,13
 24 1339 24 1339 24 1310 c 0,14,15
 24 1289 24 1289 41.5 1275 c 128,-1,16
 59 1261 59 1261 82 1251.5 c 128,-1,17
 105 1242 105 1242 122.5 1235 c 128,-1,18
 140 1228 140 1228 140 1220 c 0,0,1
EndSplineSet
EndChar

StartChar: uni0335
Encoding: 821 821 431
Width: 0
GlyphClass: 4
Flags: W
AnchorPoint: "Anchor-1" 0 1175 mark 0
LayerCount: 2
Fore
SplineSet
-360 1116 m 1,0,-1
 -360 1234 l 1,1,-1
 361 1234 l 1,2,-1
 361 1116 l 1,3,-1
 -360 1116 l 1,0,-1
EndSplineSet
EndChar

StartChar: uni031B
Encoding: 795 795 432
Width: 0
GlyphClass: 4
Flags: W
AnchorPoint: "Anchor-2" 0 992 mark 0
LayerCount: 2
Fore
SplineSet
374 1143 m 0,0,1
 374 1025 374 1025 295.5 959 c 128,-1,2
 217 893 217 893 58 893 c 2,3,-1
 -79 893 l 1,4,-1
 -79 992 l 1,5,-1
 15 992 l 2,6,7
 76 992 76 992 110 1003.5 c 128,-1,8
 144 1015 144 1015 158 1036.5 c 128,-1,9
 172 1058 172 1058 172 1088 c 0,10,11
 172 1119 172 1119 163 1142 c 128,-1,12
 154 1165 154 1165 144.5 1181 c 128,-1,13
 135 1197 135 1197 135 1207 c 0,14,15
 136 1239 136 1239 168 1261 c 128,-1,16
 200 1283 200 1283 243 1283 c 0,17,18
 299 1283 299 1283 336.5 1250.5 c 128,-1,19
 374 1218 374 1218 374 1143 c 0,0,1
EndSplineSet
EndChar

StartChar: uni0302_acutecomb
Encoding: 65539 -1 433
Width: 0
GlyphClass: 1
Flags: W
LayerCount: 2
Fore
SplineSet
295 1304 m 1,0,-1
 412 1572 l 1,1,-1
 686 1572 l 1,2,-1
 686 1530 l 1,3,-1
 425 1304 l 1,4,-1
 295 1304 l 1,0,-1
-32 1307 m 1,5,-1
 32 1307 l 1,6,-1
 -186 1106 l 1,7,-1
 -355 1106 l 1,8,-1
 -110 1433 l 1,9,-1
 110 1433 l 1,10,-1
 355 1106 l 1,11,-1
 186 1106 l 1,12,-1
 -32 1307 l 1,5,-1
EndSplineSet
EndChar

StartChar: uni0302_gravecomb
Encoding: 65540 -1 434
Width: 0
GlyphClass: 1
Flags: W
LayerCount: 2
Fore
SplineSet
-295 1304 m 1,0,-1
 -425 1304 l 1,1,-1
 -686 1530 l 1,2,-1
 -686 1572 l 1,3,-1
 -412 1572 l 1,4,-1
 -295 1304 l 1,0,-1
32 1307 m 1,5,-1
 -186 1106 l 1,6,-1
 -355 1106 l 1,7,-1
 -110 1433 l 1,8,-1
 110 1433 l 1,9,-1
 355 1106 l 1,10,-1
 186 1106 l 1,11,-1
 -32 1307 l 1,12,-1
 32 1307 l 1,5,-1
EndSplineSet
EndChar

StartChar: uni0302_hookabovecomb
Encoding: 65541 -1 435
Width: 0
GlyphClass: 1
Flags: W
LayerCount: 2
Fore
SplineSet
32 1307 m 1,0,-1
 -186 1106 l 1,1,-1
 -355 1106 l 1,2,-1
 -110 1433 l 1,3,-1
 110 1433 l 1,4,-1
 355 1106 l 1,5,-1
 186 1106 l 1,6,-1
 -32 1307 l 1,7,-1
 32 1307 l 1,0,-1
294 1371 m 1,8,9
 374 1389 374 1389 399 1410.5 c 128,-1,10
 424 1432 424 1432 424 1464 c 0,11,12
 424 1485 424 1485 408.5 1503 c 128,-1,13
 393 1521 393 1521 342.5 1531.5 c 128,-1,14
 292 1542 292 1542 185 1542 c 1,15,-1
 198 1694 l 1,16,17
 326 1691 326 1691 404 1677.5 c 128,-1,18
 482 1664 482 1664 523 1641.5 c 128,-1,19
 564 1619 564 1619 578.5 1587 c 128,-1,20
 593 1555 593 1555 593 1515 c 0,21,22
 593 1463 593 1463 570 1420 c 128,-1,23
 547 1377 547 1377 487 1344.5 c 128,-1,24
 427 1312 427 1312 314 1290 c 1,25,-1
 294 1371 l 1,8,9
EndSplineSet
EndChar

StartChar: uni0302_tildecomb
Encoding: 65542 -1 436
Width: 0
GlyphClass: 1
Flags: W
LayerCount: 2
Fore
SplineSet
38 1221 m 1,0,-1
 -178 1070 l 1,1,-1
 -330 1070 l 1,2,-1
 -123 1308 l 1,3,-1
 123 1308 l 1,4,-1
 330 1070 l 1,5,-1
 178 1070 l 1,6,-1
 -39 1221 l 1,7,-1
 38 1221 l 1,0,-1
-192 1361 m 1,8,-1
 -310 1361 l 1,9,10
 -298 1443 -298 1443 -278.5 1488.5 c 128,-1,11
 -259 1534 -259 1534 -224 1552.5 c 128,-1,12
 -189 1571 -189 1571 -131 1571 c 0,13,14
 -97 1571 -97 1571 -62.5 1558 c 128,-1,15
 -28 1545 -28 1545 4 1528.5 c 128,-1,16
 36 1512 36 1512 65 1499 c 128,-1,17
 94 1486 94 1486 116 1486 c 0,18,19
 150 1486 150 1486 166.5 1502 c 128,-1,20
 183 1518 183 1518 192 1568 c 1,21,-1
 310 1568 l 1,22,23
 299 1486 299 1486 279.5 1440.5 c 128,-1,24
 260 1395 260 1395 225 1376.5 c 128,-1,25
 190 1358 190 1358 131 1358 c 0,26,27
 97 1358 97 1358 62.5 1371 c 128,-1,28
 28 1384 28 1384 -4 1400.5 c 128,-1,29
 -36 1417 -36 1417 -65 1429.5 c 128,-1,30
 -94 1442 -94 1442 -116 1442 c 0,31,32
 -149 1442 -149 1442 -165.5 1426.5 c 128,-1,33
 -182 1411 -182 1411 -192 1361 c 1,8,-1
EndSplineSet
EndChar

StartChar: uni0306_acutecomb
Encoding: 65543 -1 437
Width: 0
GlyphClass: 1
Flags: W
LayerCount: 2
Fore
SplineSet
-47 1284 m 1,0,-1
 73 1568 l 1,1,-1
 301 1568 l 1,2,-1
 301 1537 l 1,3,-1
 53 1284 l 1,4,-1
 -47 1284 l 1,0,-1
0 1192 m 256,5,6
 88 1192 88 1192 132 1217.5 c 128,-1,7
 176 1243 176 1243 194 1304 c 1,8,-1
 310 1304 l 1,9,10
 290 1206 290 1206 251.5 1154 c 128,-1,11
 213 1102 213 1102 151.5 1083.5 c 128,-1,12
 90 1065 90 1065 0 1065 c 256,13,14
 -90 1065 -90 1065 -151.5 1083.5 c 128,-1,15
 -213 1102 -213 1102 -251.5 1154 c 128,-1,16
 -290 1206 -290 1206 -310 1304 c 1,17,-1
 -194 1304 l 1,18,19
 -176 1243 -176 1243 -132 1217.5 c 128,-1,20
 -88 1192 -88 1192 0 1192 c 256,5,6
EndSplineSet
EndChar

StartChar: uni0306_gravecomb
Encoding: 65544 -1 438
Width: 0
GlyphClass: 1
Flags: W
LayerCount: 2
Fore
SplineSet
47 1284 m 1,0,-1
 -53 1284 l 1,1,-1
 -301 1537 l 1,2,-1
 -301 1568 l 1,3,-1
 -73 1568 l 1,4,-1
 47 1284 l 1,0,-1
0 1192 m 256,5,6
 88 1192 88 1192 132 1217.5 c 128,-1,7
 176 1243 176 1243 194 1304 c 1,8,-1
 310 1304 l 1,9,10
 290 1206 290 1206 251.5 1154 c 128,-1,11
 213 1102 213 1102 151.5 1083.5 c 128,-1,12
 90 1065 90 1065 0 1065 c 256,13,14
 -90 1065 -90 1065 -151.5 1083.5 c 128,-1,15
 -213 1102 -213 1102 -251.5 1154 c 128,-1,16
 -290 1206 -290 1206 -310 1304 c 1,17,-1
 -194 1304 l 1,18,19
 -176 1243 -176 1243 -132 1217.5 c 128,-1,20
 -88 1192 -88 1192 0 1192 c 256,5,6
EndSplineSet
EndChar

StartChar: uni0306_hookabovecomb
Encoding: 65545 -1 439
Width: 0
GlyphClass: 1
Flags: W
LayerCount: 2
Fore
SplineSet
-37 1282 m 1,0,-1
 -53 1360 l 1,1,2
 31 1375 31 1375 57 1391.5 c 128,-1,3
 83 1408 83 1408 83 1432 c 0,4,5
 83 1450 83 1450 69 1462.5 c 128,-1,6
 55 1475 55 1475 12.5 1482 c 128,-1,7
 -30 1489 -30 1489 -119 1490 c 1,8,-1
 -105 1620 l 1,9,10
 17 1616 17 1616 85 1596.5 c 128,-1,11
 153 1577 153 1577 180.5 1543 c 128,-1,12
 208 1509 208 1509 208 1463 c 0,13,14
 208 1414 208 1414 185.5 1378.5 c 128,-1,15
 163 1343 163 1343 109.5 1319.5 c 128,-1,16
 56 1296 56 1296 -37 1282 c 1,0,-1
0 1192 m 256,17,18
 88 1192 88 1192 132 1218 c 128,-1,19
 176 1244 176 1244 194 1304 c 1,20,-1
 310 1304 l 1,21,22
 290 1206 290 1206 251.5 1154 c 128,-1,23
 213 1102 213 1102 151.5 1083.5 c 128,-1,24
 90 1065 90 1065 0 1065 c 256,25,26
 -90 1065 -90 1065 -151.5 1083.5 c 128,-1,27
 -213 1102 -213 1102 -251.5 1154 c 128,-1,28
 -290 1206 -290 1206 -310 1304 c 1,29,-1
 -194 1304 l 1,30,31
 -176 1243 -176 1243 -132 1217.5 c 128,-1,32
 -88 1192 -88 1192 0 1192 c 256,17,18
EndSplineSet
EndChar

StartChar: uni0306_tildecomb
Encoding: 65546 -1 440
Width: 0
GlyphClass: 1
Flags: W
LayerCount: 2
Fore
SplineSet
-192 1361 m 1,0,-1
 -310 1361 l 1,1,2
 -298 1443 -298 1443 -278.5 1488.5 c 128,-1,3
 -259 1534 -259 1534 -224 1552.5 c 128,-1,4
 -189 1571 -189 1571 -131 1571 c 0,5,6
 -97 1571 -97 1571 -60.5 1558.5 c 128,-1,7
 -24 1546 -24 1546 11 1530 c 128,-1,8
 46 1514 46 1514 75 1501.5 c 128,-1,9
 104 1489 104 1489 123 1489 c 0,10,11
 152 1489 152 1489 167.5 1505 c 128,-1,12
 183 1521 183 1521 192 1568 c 1,13,-1
 310 1568 l 1,14,15
 299 1486 299 1486 279.5 1440.5 c 128,-1,16
 260 1395 260 1395 225 1376.5 c 128,-1,17
 190 1358 190 1358 131 1358 c 0,18,19
 97 1358 97 1358 60.5 1370.5 c 128,-1,20
 24 1383 24 1383 -11 1399 c 128,-1,21
 -46 1415 -46 1415 -75 1427.5 c 128,-1,22
 -104 1440 -104 1440 -123 1440 c 0,23,24
 -151 1440 -151 1440 -166.5 1424 c 128,-1,25
 -182 1408 -182 1408 -192 1361 c 1,0,-1
0 1192 m 256,26,27
 88 1192 88 1192 132 1218 c 128,-1,28
 176 1244 176 1244 194 1304 c 1,29,-1
 310 1304 l 1,30,31
 290 1206 290 1206 251.5 1154 c 128,-1,32
 213 1102 213 1102 151.5 1083.5 c 128,-1,33
 90 1065 90 1065 0 1065 c 256,34,35
 -90 1065 -90 1065 -151.5 1083.5 c 128,-1,36
 -213 1102 -213 1102 -251.5 1154 c 128,-1,37
 -290 1206 -290 1206 -310 1304 c 1,38,-1
 -194 1304 l 1,39,40
 -176 1243 -176 1243 -132 1217.5 c 128,-1,41
 -88 1192 -88 1192 0 1192 c 256,26,27
EndSplineSet
EndChar

StartChar: caroncomb.alt
Encoding: 65547 -1 441
Width: 0
GlyphClass: 1
Flags: W
LayerCount: 2
Fore
SplineSet
128 1048 m 1,0,-1
 182 1448 l 1,1,-1
 431 1448 l 1,2,-1
 431 1408 l 1,3,-1
 254 1048 l 1,4,-1
 128 1048 l 1,0,-1
EndSplineSet
EndChar

StartChar: dotbelowcomb
Encoding: 803 803 442
Width: 0
GlyphClass: 4
Flags: W
AnchorPoint: "Anchor-5" 0 -481 basemark 0
AnchorPoint: "Anchor-5" 0 0 mark 0
AnchorPoint: "Anchor-4" 0 0 mark 0
LayerCount: 2
Fore
SplineSet
0 -357 m 256,0,1
 -80 -357 -80 -357 -121 -322.5 c 128,-1,2
 -162 -288 -162 -288 -162 -225 c 256,3,4
 -162 -162 -162 -162 -121 -129.5 c 128,-1,5
 -80 -97 -80 -97 0 -97 c 256,6,7
 80 -97 80 -97 121 -129.5 c 128,-1,8
 162 -162 162 -162 162 -225 c 256,9,10
 162 -288 162 -288 121 -322.5 c 128,-1,11
 80 -357 80 -357 0 -357 c 256,0,1
EndSplineSet
EndChar

StartChar: uni0324
Encoding: 804 804 443
Width: 0
GlyphClass: 4
Flags: W
AnchorPoint: "Anchor-5" 0 -481 basemark 0
AnchorPoint: "Anchor-5" 0 0 mark 0
AnchorPoint: "Anchor-4" 0 0 mark 0
LayerCount: 2
Fore
SplineSet
-222 -351 m 0,0,1
 -291 -351 -291 -351 -325.5 -317.5 c 128,-1,2
 -360 -284 -360 -284 -360 -225 c 256,3,4
 -360 -166 -360 -166 -325.5 -134.5 c 128,-1,5
 -291 -103 -291 -103 -222 -103 c 0,6,7
 -154 -103 -154 -103 -119 -134.5 c 128,-1,8
 -84 -166 -84 -166 -84 -225 c 256,9,10
 -84 -284 -84 -284 -119 -317.5 c 128,-1,11
 -154 -351 -154 -351 -222 -351 c 0,0,1
223 -351 m 0,12,13
 154 -351 154 -351 119 -317.5 c 128,-1,14
 84 -284 84 -284 84 -225 c 256,15,16
 84 -166 84 -166 119 -134.5 c 128,-1,17
 154 -103 154 -103 223 -103 c 0,18,19
 291 -103 291 -103 325.5 -134.5 c 128,-1,20
 360 -166 360 -166 360 -225 c 256,21,22
 360 -284 360 -284 325.5 -317.5 c 128,-1,23
 291 -351 291 -351 223 -351 c 0,12,13
EndSplineSet
EndChar

StartChar: uni0326
Encoding: 806 806 444
Width: 0
GlyphClass: 4
Flags: W
AnchorPoint: "Anchor-5" 0 -481 basemark 0
AnchorPoint: "Anchor-5" 0 0 mark 0
AnchorPoint: "Anchor-4" 0 0 mark 0
LayerCount: 2
Fore
SplineSet
-130 -394 m 1,0,1
 -54 -379 -54 -379 -29 -359 c 128,-1,2
 -4 -339 -4 -339 -4 -305 c 0,3,4
 -4 -280 -4 -280 -22 -265 c 128,-1,5
 -40 -250 -40 -250 -63.5 -240.5 c 128,-1,6
 -87 -231 -87 -231 -104.5 -223 c 128,-1,7
 -122 -215 -122 -215 -122 -205 c 0,8,9
 -122 -149 -122 -149 -89.5 -118.5 c 128,-1,10
 -57 -88 -57 -88 11 -88 c 0,11,12
 72 -88 72 -88 109 -122.5 c 128,-1,13
 146 -157 146 -157 146 -237 c 0,14,15
 146 -288 146 -288 125 -334 c 128,-1,16
 104 -380 104 -380 48 -416 c 128,-1,17
 -8 -452 -8 -452 -114 -473 c 1,18,-1
 -130 -394 l 1,0,1
EndSplineSet
EndChar

StartChar: uni0327
Encoding: 807 807 445
Width: 0
GlyphClass: 4
Flags: W
AnchorPoint: "Anchor-5" 6 -481 basemark 0
AnchorPoint: "Anchor-5" 0 0 mark 0
AnchorPoint: "Anchor-4" 0 0 mark 0
LayerCount: 2
Fore
SplineSet
-92 -481 m 0,0,1
 -186 -481 -186 -481 -220 -458 c 128,-1,2
 -254 -435 -254 -435 -254 -395 c 0,3,4
 -254 -365 -254 -365 -236 -348.5 c 128,-1,5
 -218 -332 -218 -332 -198 -332 c 0,6,7
 -184 -332 -184 -332 -163.5 -348 c 128,-1,8
 -143 -364 -143 -364 -116.5 -380 c 128,-1,9
 -90 -396 -90 -396 -58 -396 c 0,10,11
 -9 -396 -9 -396 14 -377.5 c 128,-1,12
 37 -359 37 -359 37 -324 c 0,13,14
 37 -299 37 -299 21 -281.5 c 128,-1,15
 5 -264 5 -264 -43 -250 c 128,-1,16
 -91 -236 -91 -236 -186 -222 c 1,17,-1
 -186 -196 l 1,18,-1
 -4 36 l 1,19,-1
 111 36 l 1,20,-1
 -69 -188 l 1,21,-1
 -75 -94 l 1,22,23
 35 -113 35 -113 92 -140.5 c 128,-1,24
 149 -168 149 -168 169.5 -203.5 c 128,-1,25
 190 -239 190 -239 190 -283 c 0,26,27
 190 -349 190 -349 154 -393 c 128,-1,28
 118 -437 118 -437 54.5 -459 c 128,-1,29
 -9 -481 -9 -481 -92 -481 c 0,0,1
EndSplineSet
EndChar

StartChar: uni0328
Encoding: 808 808 446
Width: 0
GlyphClass: 4
Flags: W
AnchorPoint: "Anchor-3" 0 0 mark 0
LayerCount: 2
Fore
SplineSet
-133 -84 m 2,0,1
 -164 -129 -164 -129 -181 -161.5 c 128,-1,2
 -198 -194 -198 -194 -204.5 -219 c 128,-1,3
 -211 -244 -211 -244 -211 -267 c 0,4,5
 -211 -310 -211 -310 -186 -333 c 128,-1,6
 -161 -356 -161 -356 -119 -356 c 0,7,8
 -89 -356 -89 -356 -62.5 -348 c 128,-1,9
 -36 -340 -36 -340 5 -314 c 1,10,-1
 14 -385 l 1,11,12
 -26 -421 -26 -421 -59 -442 c 128,-1,13
 -92 -463 -92 -463 -124.5 -472 c 128,-1,14
 -157 -481 -157 -481 -195 -481 c 0,15,16
 -288 -481 -288 -481 -331 -437.5 c 128,-1,17
 -374 -394 -374 -394 -374 -320 c 0,18,19
 -374 -287 -374 -287 -364 -253.5 c 128,-1,20
 -354 -220 -354 -220 -325.5 -177.5 c 128,-1,21
 -297 -135 -297 -135 -241 -74 c 2,22,-1
 -122 57 l 1,23,-1
 -39 57 l 1,24,-1
 -133 -84 l 2,0,1
EndSplineSet
EndChar

StartChar: uni032E
Encoding: 814 814 447
Width: 0
GlyphClass: 4
Flags: W
AnchorPoint: "Anchor-5" 0 -481 basemark 0
AnchorPoint: "Anchor-5" 0 0 mark 0
AnchorPoint: "Anchor-4" 0 0 mark 0
LayerCount: 2
Fore
SplineSet
0 -228 m 0,0,1
 60 -228 60 -228 100 -211.5 c 128,-1,2
 140 -195 140 -195 165 -158.5 c 128,-1,3
 190 -122 190 -122 205 -60 c 1,4,-1
 324 -60 l 1,5,6
 305 -188 305 -188 266.5 -260.5 c 128,-1,7
 228 -333 228 -333 163.5 -362.5 c 128,-1,8
 99 -392 99 -392 0 -392 c 0,9,10
 -98 -392 -98 -392 -163 -362.5 c 128,-1,11
 -228 -333 -228 -333 -266 -260.5 c 128,-1,12
 -304 -188 -304 -188 -324 -60 c 1,13,-1
 -205 -60 l 1,14,15
 -190 -122 -190 -122 -165 -158.5 c 128,-1,16
 -140 -195 -140 -195 -99.5 -211.5 c 128,-1,17
 -59 -228 -59 -228 0 -228 c 0,0,1
EndSplineSet
EndChar

StartChar: uni0331
Encoding: 817 817 448
Width: 0
GlyphClass: 4
Flags: W
AnchorPoint: "Anchor-5" 0 -481 basemark 0
AnchorPoint: "Anchor-5" 0 0 mark 0
AnchorPoint: "Anchor-4" 0 0 mark 0
LayerCount: 2
Fore
SplineSet
-308 -303 m 1,0,-1
 -308 -157 l 1,1,-1
 308 -157 l 1,2,-1
 308 -303 l 1,3,-1
 -308 -303 l 1,0,-1
EndSplineSet
EndChar

StartChar: gravecomb.case
Encoding: 65548 -1 451
Width: 0
GlyphClass: 1
Flags: W
LayerCount: 2
Fore
SplineSet
76 1527 m 1,0,-1
 -57 1527 l 1,1,-1
 -377 1786 l 1,2,-1
 -377 1832 l 1,3,-1
 -82 1832 l 1,4,-1
 76 1527 l 1,0,-1
EndSplineSet
EndChar

StartChar: acutecomb.case
Encoding: 65549 -1 452
Width: 0
GlyphClass: 1
Flags: W
LayerCount: 2
Fore
SplineSet
-76 1527 m 1,0,-1
 82 1832 l 1,1,-1
 377 1832 l 1,2,-1
 377 1786 l 1,3,-1
 57 1527 l 1,4,-1
 -76 1527 l 1,0,-1
EndSplineSet
EndChar

StartChar: uni0302.case
Encoding: 65550 -1 453
Width: 0
GlyphClass: 1
Flags: W
LayerCount: 2
Fore
SplineSet
-29 1709 m 1,0,-1
 29 1709 l 1,1,-1
 -184 1527 l 1,2,-1
 -358 1527 l 1,3,-1
 -110 1832 l 1,4,-1
 110 1832 l 1,5,-1
 358 1527 l 1,6,-1
 184 1527 l 1,7,-1
 -29 1709 l 1,0,-1
EndSplineSet
EndChar

StartChar: tildecomb.case
Encoding: 65551 -1 454
Width: 0
GlyphClass: 1
Flags: W
LayerCount: 2
Fore
SplineSet
336 1825 m 1,0,1
 320 1702 320 1702 295.5 1638.5 c 128,-1,2
 271 1575 271 1575 232.5 1552 c 128,-1,3
 194 1529 194 1529 136 1529 c 0,4,5
 94 1529 94 1529 56.5 1548.5 c 128,-1,6
 19 1568 19 1568 -14 1593.5 c 128,-1,7
 -47 1619 -47 1619 -76 1638.5 c 128,-1,8
 -105 1658 -105 1658 -131 1658 c 0,9,10
 -151 1658 -151 1658 -165 1648.5 c 128,-1,11
 -179 1639 -179 1639 -189.5 1612.5 c 128,-1,12
 -200 1586 -200 1586 -210 1534 c 1,13,-1
 -342 1534 l 1,14,15
 -326 1656 -326 1656 -301.5 1719.5 c 128,-1,16
 -277 1783 -277 1783 -238 1806 c 128,-1,17
 -199 1829 -199 1829 -142 1829 c 0,18,19
 -100 1829 -100 1829 -63 1810 c 128,-1,20
 -26 1791 -26 1791 7.5 1765.5 c 128,-1,21
 41 1740 41 1740 70.5 1720.5 c 128,-1,22
 100 1701 100 1701 125 1701 c 0,23,24
 145 1701 145 1701 159 1710 c 128,-1,25
 173 1719 173 1719 183.5 1746 c 128,-1,26
 194 1773 194 1773 203 1825 c 1,27,-1
 336 1825 l 1,0,1
EndSplineSet
EndChar

StartChar: uni0304.case
Encoding: 65552 -1 455
Width: 0
GlyphClass: 1
Flags: W
LayerCount: 2
Fore
SplineSet
-310 1609 m 1,0,-1
 -310 1750 l 1,1,-1
 310 1750 l 1,2,-1
 310 1609 l 1,3,-1
 -310 1609 l 1,0,-1
EndSplineSet
EndChar

StartChar: uni0306.case
Encoding: 65553 -1 456
Width: 0
GlyphClass: 1
Flags: W
LayerCount: 2
Fore
SplineSet
0 1684 m 0,0,1
 89 1684 89 1684 134.5 1716 c 128,-1,2
 180 1748 180 1748 201 1832 c 1,3,-1
 322 1832 l 1,4,5
 304 1712 304 1712 265.5 1644.5 c 128,-1,6
 227 1577 227 1577 162.5 1550 c 128,-1,7
 98 1523 98 1523 0 1523 c 256,8,9
 -98 1523 -98 1523 -162.5 1550 c 128,-1,10
 -227 1577 -227 1577 -265 1644.5 c 128,-1,11
 -303 1712 -303 1712 -322 1832 c 1,12,-1
 -201 1832 l 1,13,14
 -180 1748 -180 1748 -134 1716 c 128,-1,15
 -88 1684 -88 1684 0 1684 c 0,0,1
EndSplineSet
EndChar

StartChar: uni0307.case
Encoding: 65554 -1 457
Width: 0
GlyphClass: 1
Flags: W
LayerCount: 2
Fore
SplineSet
0 1549 m 256,0,1
 -80 1549 -80 1549 -121 1584 c 128,-1,2
 -162 1619 -162 1619 -162 1681 c 0,3,4
 -162 1744 -162 1744 -121 1776.5 c 128,-1,5
 -80 1809 -80 1809 0 1809 c 256,6,7
 80 1809 80 1809 121 1776.5 c 128,-1,8
 162 1744 162 1744 162 1681 c 0,9,10
 162 1619 162 1619 121 1584 c 128,-1,11
 80 1549 80 1549 0 1549 c 256,0,1
EndSplineSet
EndChar

StartChar: uni0308.case
Encoding: 65555 -1 458
Width: 0
GlyphClass: 1
Flags: W
LayerCount: 2
Fore
SplineSet
-225 1555 m 0,0,1
 -293 1555 -293 1555 -328 1588.5 c 128,-1,2
 -363 1622 -363 1622 -363 1681 c 0,3,4
 -363 1741 -363 1741 -328 1772 c 128,-1,5
 -293 1803 -293 1803 -225 1803 c 0,6,7
 -156 1803 -156 1803 -121.5 1772 c 128,-1,8
 -87 1741 -87 1741 -87 1681 c 0,9,10
 -87 1622 -87 1622 -121.5 1588.5 c 128,-1,11
 -156 1555 -156 1555 -225 1555 c 0,0,1
225 1555 m 256,12,13
 157 1555 157 1555 122 1588.5 c 128,-1,14
 87 1622 87 1622 87 1681 c 0,15,16
 87 1741 87 1741 122 1772 c 128,-1,17
 157 1803 157 1803 225 1803 c 256,18,19
 293 1803 293 1803 328 1772 c 128,-1,20
 363 1741 363 1741 363 1681 c 0,21,22
 363 1622 363 1622 328 1588.5 c 128,-1,23
 293 1555 293 1555 225 1555 c 256,12,13
EndSplineSet
EndChar

StartChar: hookabovecomb.case
Encoding: 65556 -1 459
Width: 0
GlyphClass: 1
Flags: W
LayerCount: 2
Fore
SplineSet
-195 1735 m 1,0,-1
 -183 1887 l 1,1,2
 -52 1885 -52 1885 28.5 1873 c 128,-1,3
 109 1861 109 1861 151.5 1839.5 c 128,-1,4
 194 1818 194 1818 209.5 1787 c 128,-1,5
 225 1756 225 1756 225 1717 c 0,6,7
 225 1668 225 1668 199 1628 c 128,-1,8
 173 1588 173 1588 107 1558 c 128,-1,9
 41 1528 41 1528 -80 1507 c 1,10,-1
 -97 1586 l 1,11,12
 -31 1599 -31 1599 1.5 1611 c 128,-1,13
 34 1623 34 1623 44.5 1637.5 c 128,-1,14
 55 1652 55 1652 55 1671 c 0,15,16
 55 1692 55 1692 38.5 1706 c 128,-1,17
 22 1720 22 1720 -31 1728 c 128,-1,18
 -84 1736 -84 1736 -195 1735 c 1,0,-1
EndSplineSet
EndChar

StartChar: uni030A.case
Encoding: 65557 -1 460
Width: 0
GlyphClass: 1
Flags: W
LayerCount: 2
Fore
SplineSet
-2 1866 m 0,0,1
 83 1866 83 1866 134 1816 c 128,-1,2
 185 1766 185 1766 185 1682 c 0,3,4
 185 1600 185 1600 134 1549.5 c 128,-1,5
 83 1499 83 1499 -2 1499 c 0,6,7
 -86 1499 -86 1499 -137.5 1549.5 c 128,-1,8
 -189 1600 -189 1600 -189 1682 c 0,9,10
 -189 1766 -189 1766 -137.5 1816 c 128,-1,11
 -86 1866 -86 1866 -2 1866 c 0,0,1
-2 1568 m 256,12,13
 50 1568 50 1568 80.5 1599.5 c 128,-1,14
 111 1631 111 1631 111 1682 c 0,15,16
 111 1736 111 1736 80.5 1767.5 c 128,-1,17
 50 1799 50 1799 -2 1799 c 256,18,19
 -54 1799 -54 1799 -84.5 1767.5 c 128,-1,20
 -115 1736 -115 1736 -115 1682 c 0,21,22
 -115 1631 -115 1631 -84.5 1599.5 c 128,-1,23
 -54 1568 -54 1568 -2 1568 c 256,12,13
EndSplineSet
EndChar

StartChar: uni030B.case
Encoding: 65558 -1 461
Width: 0
GlyphClass: 1
Flags: W
LayerCount: 2
Fore
SplineSet
79 1527 m 1,0,-1
 253 1832 l 1,1,-1
 535 1832 l 1,2,-1
 535 1786 l 1,3,-1
 208 1527 l 1,4,-1
 79 1527 l 1,0,-1
-237 1527 m 1,5,-1
 -165 1832 l 1,6,-1
 96 1832 l 1,7,-1
 96 1792 l 1,8,-1
 -116 1527 l 1,9,-1
 -237 1527 l 1,5,-1
EndSplineSet
EndChar

StartChar: uni030C.case
Encoding: 65559 -1 462
Width: 0
GlyphClass: 1
Flags: W
LayerCount: 2
Fore
SplineSet
29 1650 m 1,0,-1
 -29 1650 l 1,1,-1
 184 1832 l 1,2,-1
 358 1832 l 1,3,-1
 110 1527 l 1,4,-1
 -110 1527 l 1,5,-1
 -358 1832 l 1,6,-1
 -184 1832 l 1,7,-1
 29 1650 l 1,0,-1
EndSplineSet
EndChar

StartChar: uni030F.case
Encoding: 65560 -1 463
Width: 0
GlyphClass: 1
Flags: W
LayerCount: 2
Fore
SplineSet
-79 1527 m 1,0,-1
 -208 1527 l 1,1,-1
 -535 1786 l 1,2,-1
 -535 1832 l 1,3,-1
 -253 1832 l 1,4,-1
 -79 1527 l 1,0,-1
237 1527 m 1,5,-1
 116 1527 l 1,6,-1
 -96 1792 l 1,7,-1
 -96 1832 l 1,8,-1
 165 1832 l 1,9,-1
 237 1527 l 1,5,-1
EndSplineSet
EndChar

StartChar: uni0311.case
Encoding: 65561 -1 464
Width: 0
GlyphClass: 1
Flags: W
LayerCount: 2
Fore
SplineSet
0 1674 m 0,0,1
 -88 1674 -88 1674 -134 1642 c 128,-1,2
 -180 1610 -180 1610 -201 1527 c 1,3,-1
 -322 1527 l 1,4,5
 -303 1648 -303 1648 -265 1714.5 c 128,-1,6
 -227 1781 -227 1781 -162.5 1808.5 c 128,-1,7
 -98 1836 -98 1836 0 1836 c 256,8,9
 98 1836 98 1836 162.5 1808.5 c 128,-1,10
 227 1781 227 1781 265.5 1714.5 c 128,-1,11
 304 1648 304 1648 322 1527 c 1,12,-1
 201 1527 l 1,13,14
 180 1610 180 1610 134.5 1642 c 128,-1,15
 89 1674 89 1674 0 1674 c 0,0,1
EndSplineSet
EndChar

StartChar: uni0312.case
Encoding: 65562 -1 465
Width: 0
GlyphClass: 1
Flags: W
LayerCount: 2
Fore
SplineSet
139 1634 m 0,0,1
 139 1583 139 1583 107.5 1548 c 128,-1,2
 76 1513 76 1513 5 1513 c 0,3,4
 -56 1513 -56 1513 -93.5 1545.5 c 128,-1,5
 -131 1578 -131 1578 -131 1656 c 0,6,7
 -131 1702 -131 1702 -108.5 1746 c 128,-1,8
 -86 1790 -86 1790 -30 1823.5 c 128,-1,9
 26 1857 26 1857 128 1870 c 1,10,-1
 142 1795 l 1,11,12
 74 1786 74 1786 49.5 1767 c 128,-1,13
 25 1748 25 1748 25 1720 c 0,14,15
 25 1698 25 1698 42 1685 c 128,-1,16
 59 1672 59 1672 81.5 1663.5 c 128,-1,17
 104 1655 104 1655 121.5 1649 c 128,-1,18
 139 1643 139 1643 139 1634 c 0,0,1
EndSplineSet
EndChar

StartChar: uni0302_acutecomb.case
Encoding: 65563 -1 466
Width: 0
GlyphClass: 1
Flags: W
LayerCount: 2
Fore
SplineSet
297 1712 m 1,0,-1
 414 1967 l 1,1,-1
 690 1967 l 1,2,-1
 690 1926 l 1,3,-1
 428 1712 l 1,4,-1
 297 1712 l 1,0,-1
-29 1709 m 1,5,-1
 29 1709 l 1,6,-1
 -184 1527 l 1,7,-1
 -358 1527 l 1,8,-1
 -110 1832 l 1,9,-1
 110 1832 l 1,10,-1
 358 1527 l 1,11,-1
 184 1527 l 1,12,-1
 -29 1709 l 1,5,-1
EndSplineSet
EndChar

StartChar: uni0302_gravecomb.case
Encoding: 65564 -1 467
Width: 0
GlyphClass: 1
Flags: W
LayerCount: 2
Fore
SplineSet
-297 1712 m 1,0,-1
 -428 1712 l 1,1,-1
 -690 1926 l 1,2,-1
 -690 1967 l 1,3,-1
 -414 1967 l 1,4,-1
 -297 1712 l 1,0,-1
29 1709 m 1,5,-1
 -184 1527 l 1,6,-1
 -358 1527 l 1,7,-1
 -110 1832 l 1,8,-1
 110 1832 l 1,9,-1
 358 1527 l 1,10,-1
 184 1527 l 1,11,-1
 -29 1709 l 1,12,-1
 29 1709 l 1,5,-1
EndSplineSet
EndChar

StartChar: uni0302_hookabovecomb.case
Encoding: 65565 -1 468
Width: 0
GlyphClass: 1
Flags: W
LayerCount: 2
Fore
SplineSet
29 1709 m 1,0,-1
 -184 1527 l 1,1,-1
 -358 1527 l 1,2,-1
 -110 1832 l 1,3,-1
 110 1832 l 1,4,-1
 358 1527 l 1,5,-1
 184 1527 l 1,6,-1
 -29 1709 l 1,7,-1
 29 1709 l 1,0,-1
299 1776 m 1,8,9
 375 1792 375 1792 398.5 1811.5 c 128,-1,10
 422 1831 422 1831 422 1861 c 0,11,12
 422 1881 422 1881 407 1897.5 c 128,-1,13
 392 1914 392 1914 342.5 1924 c 128,-1,14
 293 1934 293 1934 189 1933 c 1,15,-1
 200 2080 l 1,16,17
 326 2078 326 2078 403 2065.5 c 128,-1,18
 480 2053 480 2053 520 2031 c 128,-1,19
 560 2009 560 2009 574.5 1978.5 c 128,-1,20
 589 1948 589 1948 589 1909 c 0,21,22
 589 1859 589 1859 566.5 1818 c 128,-1,23
 544 1777 544 1777 484.5 1747 c 128,-1,24
 425 1717 425 1717 314 1698 c 1,25,-1
 299 1776 l 1,8,9
EndSplineSet
EndChar

StartChar: uni0302_tildecomb.case
Encoding: 65566 -1 469
Width: 0
GlyphClass: 1
Flags: W
LayerCount: 2
Fore
SplineSet
38 1636 m 1,0,-1
 -178 1491 l 1,1,-1
 -330 1491 l 1,2,-1
 -124 1718 l 1,3,-1
 124 1718 l 1,4,-1
 330 1491 l 1,5,-1
 178 1491 l 1,6,-1
 -39 1636 l 1,7,-1
 38 1636 l 1,0,-1
-192 1765 m 1,8,-1
 -309 1765 l 1,9,10
 -296 1844 -296 1844 -275 1888 c 128,-1,11
 -254 1932 -254 1932 -218 1949.5 c 128,-1,12
 -182 1967 -182 1967 -125 1967 c 0,13,14
 -91 1967 -91 1967 -58.5 1954.5 c 128,-1,15
 -26 1942 -26 1942 5 1926 c 128,-1,16
 36 1910 36 1910 63.5 1898 c 128,-1,17
 91 1886 91 1886 114 1886 c 0,18,19
 148 1886 148 1886 165 1901 c 128,-1,20
 182 1916 182 1916 192 1965 c 1,21,-1
 309 1965 l 1,22,23
 296 1885 296 1885 275 1841 c 128,-1,24
 254 1797 254 1797 218.5 1779.5 c 128,-1,25
 183 1762 183 1762 125 1762 c 0,26,27
 91 1762 91 1762 58.5 1774.5 c 128,-1,28
 26 1787 26 1787 -5 1803 c 128,-1,29
 -36 1819 -36 1819 -63.5 1831 c 128,-1,30
 -91 1843 -91 1843 -114 1843 c 0,31,32
 -148 1843 -148 1843 -164.5 1828 c 128,-1,33
 -181 1813 -181 1813 -192 1765 c 1,8,-1
EndSplineSet
EndChar

StartChar: uni0306_acutecomb.case
Encoding: 65567 -1 470
Width: 0
GlyphClass: 1
Flags: W
LayerCount: 2
Fore
SplineSet
-46 1694 m 1,0,-1
 73 1965 l 1,1,-1
 299 1965 l 1,2,-1
 299 1935 l 1,3,-1
 53 1694 l 1,4,-1
 -46 1694 l 1,0,-1
0 1611 m 256,5,6
 89 1611 89 1611 133 1636 c 128,-1,7
 177 1661 177 1661 194 1717 c 1,8,-1
 309 1717 l 1,9,10
 291 1626 291 1626 252.5 1576 c 128,-1,11
 214 1526 214 1526 152 1506.5 c 128,-1,12
 90 1487 90 1487 0 1487 c 256,13,14
 -90 1487 -90 1487 -152 1506.5 c 128,-1,15
 -214 1526 -214 1526 -252 1576 c 128,-1,16
 -290 1626 -290 1626 -309 1717 c 1,17,-1
 -194 1717 l 1,18,19
 -177 1660 -177 1660 -133 1635.5 c 128,-1,20
 -89 1611 -89 1611 0 1611 c 256,5,6
EndSplineSet
EndChar

StartChar: uni0306_gravecomb.case
Encoding: 65568 -1 471
Width: 0
GlyphClass: 1
Flags: W
LayerCount: 2
Fore
SplineSet
46 1694 m 1,0,-1
 -53 1694 l 1,1,-1
 -299 1935 l 1,2,-1
 -299 1965 l 1,3,-1
 -73 1965 l 1,4,-1
 46 1694 l 1,0,-1
0 1611 m 256,5,6
 89 1611 89 1611 133 1635.5 c 128,-1,7
 177 1660 177 1660 194 1717 c 1,8,-1
 309 1717 l 1,9,10
 291 1626 291 1626 252.5 1576 c 128,-1,11
 214 1526 214 1526 152 1506.5 c 128,-1,12
 90 1487 90 1487 0 1487 c 256,13,14
 -90 1487 -90 1487 -152 1506.5 c 128,-1,15
 -214 1526 -214 1526 -252 1576 c 128,-1,16
 -290 1626 -290 1626 -309 1717 c 1,17,-1
 -194 1717 l 1,18,19
 -177 1661 -177 1661 -133 1636 c 128,-1,20
 -89 1611 -89 1611 0 1611 c 256,5,6
EndSplineSet
EndChar

StartChar: uni0306_hookabovecomb.case
Encoding: 65569 -1 472
Width: 0
GlyphClass: 1
Flags: W
LayerCount: 2
Fore
SplineSet
0 1611 m 256,0,1
 89 1611 89 1611 133 1635.5 c 128,-1,2
 177 1660 177 1660 194 1715 c 1,3,-1
 309 1715 l 1,4,5
 291 1625 291 1625 252.5 1575 c 128,-1,6
 214 1525 214 1525 152 1506 c 128,-1,7
 90 1487 90 1487 0 1487 c 256,8,9
 -90 1487 -90 1487 -152 1506 c 128,-1,10
 -214 1525 -214 1525 -252 1575 c 128,-1,11
 -290 1625 -290 1625 -309 1715 c 1,12,-1
 -194 1715 l 1,13,14
 -177 1659 -177 1659 -133 1635 c 128,-1,15
 -89 1611 -89 1611 0 1611 c 256,0,1
-49 1764 m 1,16,17
 35 1777 35 1777 60 1791.5 c 128,-1,18
 85 1806 85 1806 85 1829 c 0,19,20
 85 1847 85 1847 72 1858.5 c 128,-1,21
 59 1870 59 1870 17 1876.5 c 128,-1,22
 -25 1883 -25 1883 -111 1885 c 1,23,-1
 -99 2011 l 1,24,25
 19 2008 19 2008 85 1988.5 c 128,-1,26
 151 1969 151 1969 178.5 1936.5 c 128,-1,27
 206 1904 206 1904 206 1859 c 0,28,29
 206 1809 206 1809 183 1775 c 128,-1,30
 160 1741 160 1741 107.5 1720 c 128,-1,31
 55 1699 55 1699 -35 1688 c 1,32,-1
 -49 1764 l 1,16,17
EndSplineSet
EndChar

StartChar: uni0306_tildecomb.case
Encoding: 65570 -1 473
Width: 0
GlyphClass: 1
Flags: W
LayerCount: 2
Fore
SplineSet
0 1611 m 256,0,1
 89 1611 89 1611 133 1635.5 c 128,-1,2
 177 1660 177 1660 194 1715 c 1,3,-1
 309 1715 l 1,4,5
 291 1625 291 1625 252.5 1575 c 128,-1,6
 214 1525 214 1525 152 1506 c 128,-1,7
 90 1487 90 1487 0 1487 c 256,8,9
 -90 1487 -90 1487 -152 1506 c 128,-1,10
 -214 1525 -214 1525 -252 1575 c 128,-1,11
 -290 1625 -290 1625 -309 1715 c 1,12,-1
 -194 1715 l 1,13,14
 -177 1659 -177 1659 -133 1635 c 128,-1,15
 -89 1611 -89 1611 0 1611 c 256,0,1
-192 1765 m 1,16,-1
 -309 1765 l 1,17,18
 -296 1844 -296 1844 -275 1888 c 128,-1,19
 -254 1932 -254 1932 -218 1949.5 c 128,-1,20
 -182 1967 -182 1967 -125 1967 c 0,21,22
 -91 1967 -91 1967 -58.5 1954.5 c 128,-1,23
 -26 1942 -26 1942 5 1926 c 128,-1,24
 36 1910 36 1910 63.5 1898 c 128,-1,25
 91 1886 91 1886 114 1886 c 0,26,27
 148 1886 148 1886 165 1901 c 128,-1,28
 182 1916 182 1916 192 1965 c 1,29,-1
 309 1965 l 1,30,31
 296 1885 296 1885 275 1841 c 128,-1,32
 254 1797 254 1797 218.5 1779.5 c 128,-1,33
 183 1762 183 1762 125 1762 c 0,34,35
 91 1762 91 1762 58.5 1774.5 c 128,-1,36
 26 1787 26 1787 -5 1803 c 128,-1,37
 -36 1819 -36 1819 -63.5 1831 c 128,-1,38
 -91 1843 -91 1843 -114 1843 c 0,39,40
 -148 1843 -148 1843 -164.5 1828 c 128,-1,41
 -181 1813 -181 1813 -192 1765 c 1,16,-1
EndSplineSet
EndChar

StartChar: comma
Encoding: 44 44 474
Width: 565
GlyphClass: 1
Flags: W
LayerCount: 2
Fore
SplineSet
58 -286 m 1,0,1
 161 -207 161 -207 202.5 -149.5 c 128,-1,2
 244 -92 244 -92 244 -33 c 0,3,4
 244 4 244 4 222.5 31.5 c 128,-1,5
 201 59 201 59 173 79.5 c 128,-1,6
 145 100 145 100 123.5 117.5 c 128,-1,7
 102 135 102 135 102 154 c 0,8,9
 102 228 102 228 148.5 274 c 128,-1,10
 195 320 195 320 275 320 c 0,11,12
 362 320 362 320 407.5 272.5 c 128,-1,13
 453 225 453 225 453 129 c 0,14,15
 453 65 453 65 437.5 5.5 c 128,-1,16
 422 -54 422 -54 385 -113 c 128,-1,17
 348 -172 348 -172 284 -234.5 c 128,-1,18
 220 -297 220 -297 122 -367 c 1,19,-1
 58 -286 l 1,0,1
EndSplineSet
EndChar

StartChar: semicolon
Encoding: 59 59 475
Width: 623
GlyphClass: 1
Flags: W
LayerCount: 2
Fore
SplineSet
93 -286 m 1,0,1
 196 -207 196 -207 237.5 -149.5 c 128,-1,2
 279 -92 279 -92 279 -33 c 0,3,4
 279 4 279 4 257.5 31.5 c 128,-1,5
 236 59 236 59 208 79.5 c 128,-1,6
 180 100 180 100 158.5 117.5 c 128,-1,7
 137 135 137 135 137 154 c 0,8,9
 137 228 137 228 183 274 c 128,-1,10
 229 320 229 320 310 320 c 0,11,12
 396 320 396 320 442 272.5 c 128,-1,13
 488 225 488 225 488 129 c 0,14,15
 488 65 488 65 472.5 5.5 c 128,-1,16
 457 -54 457 -54 420 -113 c 128,-1,17
 383 -172 383 -172 318.5 -234.5 c 128,-1,18
 254 -297 254 -297 157 -367 c 1,19,-1
 93 -286 l 1,0,1
308 1005 m 0,20,21
 387 1005 387 1005 435 960 c 128,-1,22
 483 915 483 915 483 836 c 0,23,24
 483 758 483 758 435 712.5 c 128,-1,25
 387 667 387 667 308 667 c 0,26,27
 230 667 230 667 182 712.5 c 128,-1,28
 134 758 134 758 134 836 c 0,29,30
 134 915 134 915 182 960 c 128,-1,31
 230 1005 230 1005 308 1005 c 0,20,21
EndSplineSet
EndChar

StartChar: colon
Encoding: 58 58 476
Width: 610
GlyphClass: 1
Flags: W
LayerCount: 2
Fore
SplineSet
305 320 m 256,0,1
 384 320 384 320 432 274.5 c 128,-1,2
 480 229 480 229 480 151 c 0,3,4
 480 72 480 72 432 26.5 c 128,-1,5
 384 -19 384 -19 305 -19 c 256,6,7
 226 -19 226 -19 178 26.5 c 128,-1,8
 130 72 130 72 130 151 c 0,9,10
 130 229 130 229 178 274.5 c 128,-1,11
 226 320 226 320 305 320 c 256,0,1
305 1005 m 256,12,13
 384 1005 384 1005 432 960 c 128,-1,14
 480 915 480 915 480 836 c 0,15,16
 480 758 480 758 432 712.5 c 128,-1,17
 384 667 384 667 305 667 c 256,18,19
 226 667 226 667 178 712.5 c 128,-1,20
 130 758 130 758 130 836 c 0,21,22
 130 915 130 915 178 960 c 128,-1,23
 226 1005 226 1005 305 1005 c 256,12,13
EndSplineSet
EndChar

StartChar: period
Encoding: 46 46 478
Width: 561
GlyphClass: 1
Flags: W
LayerCount: 2
Fore
SplineSet
280 325 m 0,0,1
 359 325 359 325 407 279 c 128,-1,2
 455 233 455 233 455 153 c 0,3,4
 455 74 455 74 407 27.5 c 128,-1,5
 359 -19 359 -19 280 -19 c 0,6,7
 202 -19 202 -19 154 27.5 c 128,-1,8
 106 74 106 74 106 153 c 0,9,10
 106 233 106 233 154 279 c 128,-1,11
 202 325 202 325 280 325 c 0,0,1
EndSplineSet
EndChar

StartChar: hyphen
Encoding: 45 45 479
Width: 812
GlyphClass: 1
Flags: W
LayerCount: 2
Fore
SplineSet
136 600 m 1,0,-1
 677 600 l 1,1,-1
 677 403 l 1,2,-1
 136 403 l 1,3,-1
 136 600 l 1,0,-1
EndSplineSet
Substitution2: "'case' Case-Sensitive Forms in Latin lookup 9 subtable" hyphen.case
EndChar

StartChar: exclam
Encoding: 33 33 483
Width: 648
GlyphClass: 1
Flags: W
LayerCount: 2
Fore
SplineSet
486 1344 m 2,0,-1
 484 1257 l 2,1,2
 483 1237 483 1237 478.5 1187 c 128,-1,3
 474 1137 474 1137 466 1066.5 c 128,-1,4
 458 996 458 996 449 915 c 128,-1,5
 440 834 440 834 430.5 751.5 c 128,-1,6
 421 669 421 669 413 594 c 128,-1,7
 405 519 405 519 398 462 c 1,8,-1
 251 462 l 1,9,10
 244 519 244 519 235.5 594 c 128,-1,11
 227 669 227 669 217.5 751.5 c 128,-1,12
 208 834 208 834 199 915 c 128,-1,13
 190 996 190 996 182.5 1066.5 c 128,-1,14
 175 1137 175 1137 170.5 1187 c 128,-1,15
 166 1237 166 1237 165 1257 c 2,16,-1
 163 1344 l 2,17,18
 163 1367 163 1367 177 1383 c 128,-1,19
 191 1399 191 1399 226 1407 c 128,-1,20
 261 1415 261 1415 324 1415 c 0,21,22
 388 1415 388 1415 423 1407 c 128,-1,23
 458 1399 458 1399 472 1383 c 128,-1,24
 486 1367 486 1367 486 1344 c 2,0,-1
324 313 m 256,25,26
 405 313 405 313 453 269.5 c 128,-1,27
 501 226 501 226 501 148 c 256,28,29
 501 70 501 70 453 25.5 c 128,-1,30
 405 -19 405 -19 324 -19 c 256,31,32
 243 -19 243 -19 195 25.5 c 128,-1,33
 147 70 147 70 147 148 c 256,34,35
 147 226 147 226 195 269.5 c 128,-1,36
 243 313 243 313 324 313 c 256,25,26
EndSplineSet
EndChar

StartChar: exclamdown
Encoding: 161 161 484
Width: 619
GlyphClass: 1
Flags: W
LayerCount: 2
Fore
SplineSet
148 -361 m 2,0,-1
 150 -273 l 2,1,2
 151 -253 151 -253 155.5 -203.5 c 128,-1,3
 160 -154 160 -154 167.5 -83.5 c 128,-1,4
 175 -13 175 -13 184.5 68 c 128,-1,5
 194 149 194 149 203 231.5 c 128,-1,6
 212 314 212 314 221 389.5 c 128,-1,7
 230 465 230 465 236 522 c 1,8,-1
 383 522 l 1,9,10
 390 465 390 465 398.5 389.5 c 128,-1,11
 407 314 407 314 416.5 231.5 c 128,-1,12
 426 149 426 149 435 68 c 128,-1,13
 444 -13 444 -13 451.5 -83.5 c 128,-1,14
 459 -154 459 -154 463.5 -203.5 c 128,-1,15
 468 -253 468 -253 469 -273 c 2,16,-1
 471 -361 l 2,17,18
 471 -384 471 -384 457 -400 c 128,-1,19
 443 -416 443 -416 408 -424 c 128,-1,20
 373 -432 373 -432 309 -432 c 0,21,22
 246 -432 246 -432 211 -424 c 128,-1,23
 176 -416 176 -416 162 -400 c 128,-1,24
 148 -384 148 -384 148 -361 c 2,0,-1
310 671 m 256,25,26
 229 671 229 671 181 714.5 c 128,-1,27
 133 758 133 758 133 835 c 0,28,29
 133 914 133 914 181 958 c 128,-1,30
 229 1002 229 1002 310 1002 c 256,31,32
 391 1002 391 1002 439 958 c 128,-1,33
 487 914 487 914 487 835 c 0,34,35
 487 758 487 758 439 714.5 c 128,-1,36
 391 671 391 671 310 671 c 256,25,26
EndSplineSet
Substitution2: "'case' Case-Sensitive Forms in Latin lookup 9 subtable" exclamdown.case
EndChar

StartChar: question
Encoding: 63 63 486
Width: 1190
GlyphClass: 1
Flags: W
LayerCount: 2
Fore
SplineSet
519 1419 m 0,0,1
 663 1419 663 1419 772.5 1388.5 c 128,-1,2
 882 1358 882 1358 955.5 1303.5 c 128,-1,3
 1029 1249 1029 1249 1065.5 1174.5 c 128,-1,4
 1102 1100 1102 1100 1102 1012 c 0,5,6
 1102 895 1102 895 1053 811.5 c 128,-1,7
 1004 728 1004 728 890.5 682.5 c 128,-1,8
 777 637 777 637 582 634 c 1,9,-1
 654 733 l 1,10,-1
 626 454 l 1,11,-1
 470 454 l 1,12,-1
 419 814 l 1,13,14
 574 811 574 811 663 832.5 c 128,-1,15
 752 854 752 854 789.5 902.5 c 128,-1,16
 827 951 827 951 827 1027 c 0,17,18
 827 1091 827 1091 797 1142 c 128,-1,19
 767 1193 767 1193 705 1222.5 c 128,-1,20
 643 1252 643 1252 545 1252 c 0,21,22
 470 1252 470 1252 417 1228.5 c 128,-1,23
 364 1205 364 1205 326.5 1174.5 c 128,-1,24
 289 1144 289 1144 259 1120.5 c 128,-1,25
 229 1097 229 1097 199 1097 c 0,26,27
 158 1097 158 1097 126 1112.5 c 128,-1,28
 94 1128 94 1128 76 1156.5 c 128,-1,29
 58 1185 58 1185 58 1223 c 0,30,31
 58 1275 58 1275 100 1319.5 c 128,-1,32
 142 1364 142 1364 242.5 1391.5 c 128,-1,33
 343 1419 343 1419 519 1419 c 0,0,1
547 314 m 256,34,35
 628 314 628 314 676 270.5 c 128,-1,36
 724 227 724 227 724 149 c 256,37,38
 724 71 724 71 676 26.5 c 128,-1,39
 628 -18 628 -18 547 -18 c 256,40,41
 466 -18 466 -18 418 26.5 c 128,-1,42
 370 71 370 71 370 149 c 256,43,44
 370 227 370 227 418 270.5 c 128,-1,45
 466 314 466 314 547 314 c 256,34,35
EndSplineSet
EndChar

StartChar: questiondown
Encoding: 191 191 487
Width: 1179
GlyphClass: 1
Flags: W
LayerCount: 2
Fore
SplineSet
669 -434 m 0,0,1
 524 -434 524 -434 415 -404 c 128,-1,2
 306 -374 306 -374 232.5 -319.5 c 128,-1,3
 159 -265 159 -265 122.5 -190.5 c 128,-1,4
 86 -116 86 -116 86 -27 c 0,5,6
 86 90 86 90 135 173 c 128,-1,7
 184 256 184 256 297.5 301.5 c 128,-1,8
 411 347 411 347 606 350 c 1,9,-1
 533 251 l 1,10,-1
 562 530 l 1,11,-1
 717 530 l 1,12,-1
 769 170 l 1,13,14
 613 174 613 174 524.5 152 c 128,-1,15
 436 130 436 130 398.5 81.5 c 128,-1,16
 361 33 361 33 361 -43 c 0,17,18
 361 -107 361 -107 390.5 -158 c 128,-1,19
 420 -209 420 -209 482.5 -238.5 c 128,-1,20
 545 -268 545 -268 643 -268 c 0,21,22
 718 -268 718 -268 770.5 -244.5 c 128,-1,23
 823 -221 823 -221 861 -190 c 128,-1,24
 899 -159 899 -159 928.5 -136 c 128,-1,25
 958 -113 958 -113 988 -113 c 0,26,27
 1030 -113 1030 -113 1062 -128.5 c 128,-1,28
 1094 -144 1094 -144 1111.5 -172 c 128,-1,29
 1129 -200 1129 -200 1129 -239 c 0,30,31
 1129 -290 1129 -290 1087 -335 c 128,-1,32
 1045 -380 1045 -380 945 -407 c 128,-1,33
 845 -434 845 -434 669 -434 c 0,0,1
641 671 m 256,34,35
 560 671 560 671 512 714.5 c 128,-1,36
 464 758 464 758 464 835 c 0,37,38
 464 914 464 914 512 958 c 128,-1,39
 560 1002 560 1002 641 1002 c 256,40,41
 722 1002 722 1002 770 958 c 128,-1,42
 818 914 818 914 818 835 c 0,43,44
 818 758 818 758 770 714.5 c 128,-1,45
 722 671 722 671 641 671 c 256,34,35
EndSplineSet
Substitution2: "'case' Case-Sensitive Forms in Latin lookup 9 subtable" questiondown.case
EndChar

StartChar: quoteleft
Encoding: 8216 8216 489
Width: 567
GlyphClass: 1
Flags: W
LayerCount: 2
Fore
SplineSet
479 1319 m 1,0,1
 376 1272 376 1272 342.5 1235 c 128,-1,2
 309 1198 309 1198 309 1152 c 0,3,4
 309 1121 309 1121 329.5 1098 c 128,-1,5
 350 1075 350 1075 377 1056.5 c 128,-1,6
 404 1038 404 1038 425 1022 c 128,-1,7
 446 1006 446 1006 446 990 c 0,8,9
 446 921 446 921 401 875 c 128,-1,10
 356 829 356 829 275 829 c 0,11,12
 191 829 191 829 142 878 c 128,-1,13
 93 927 93 927 93 1014 c 0,14,15
 93 1103 93 1103 124 1173 c 128,-1,16
 155 1243 155 1243 229 1302 c 128,-1,17
 303 1361 303 1361 431 1415 c 1,18,-1
 479 1319 l 1,0,1
EndSplineSet
EndChar

StartChar: quoteright
Encoding: 8217 8217 490
Width: 565
GlyphClass: 1
Flags: W
LayerCount: 2
Fore
SplineSet
99 923 m 1,0,1
 202 971 202 971 235.5 1007.5 c 128,-1,2
 269 1044 269 1044 269 1091 c 0,3,4
 269 1121 269 1121 248 1144 c 128,-1,5
 227 1167 227 1167 200 1185.5 c 128,-1,6
 173 1204 173 1204 152.5 1220 c 128,-1,7
 132 1236 132 1236 132 1252 c 0,8,9
 132 1322 132 1322 177 1367.5 c 128,-1,10
 222 1413 222 1413 302 1413 c 0,11,12
 387 1413 387 1413 435.5 1364 c 128,-1,13
 484 1315 484 1315 484 1229 c 0,14,15
 484 1140 484 1140 453 1069.5 c 128,-1,16
 422 999 422 999 348.5 940.5 c 128,-1,17
 275 882 275 882 146 828 c 1,18,-1
 99 923 l 1,0,1
EndSplineSet
EndChar

StartChar: quotesinglbase
Encoding: 8218 8218 491
Width: 564
GlyphClass: 1
Flags: W
LayerCount: 2
Fore
SplineSet
68 -170 m 1,0,1
 172 -123 172 -123 205.5 -86.5 c 128,-1,2
 239 -50 239 -50 239 -3 c 0,3,4
 239 28 239 28 218 51 c 128,-1,5
 197 74 197 74 170 92 c 128,-1,6
 143 110 143 110 122 126 c 128,-1,7
 101 142 101 142 101 159 c 0,8,9
 101 228 101 228 146.5 274 c 128,-1,10
 192 320 192 320 272 320 c 0,11,12
 357 320 357 320 405.5 271 c 128,-1,13
 454 222 454 222 454 135 c 0,14,15
 454 46 454 46 423 -24.5 c 128,-1,16
 392 -95 392 -95 318.5 -153.5 c 128,-1,17
 245 -212 245 -212 116 -266 c 1,18,-1
 68 -170 l 1,0,1
EndSplineSet
EndChar

StartChar: quotesingle
Encoding: 39 39 495
Width: 486
GlyphClass: 1
Flags: W
LayerCount: 2
Fore
SplineSet
163 859 m 1,0,-1
 112 1344 l 1,1,-1
 112 1396 l 1,2,-1
 375 1396 l 1,3,-1
 375 1344 l 1,4,-1
 323 859 l 1,5,-1
 163 859 l 1,0,-1
EndSplineSet
EndChar

StartChar: guilsinglleft
Encoding: 8249 8249 497
Width: 717
GlyphClass: 1
Flags: W
LayerCount: 2
Fore
SplineSet
334 551 m 1,0,-1
 625 122 l 1,1,-1
 522 29 l 1,2,-1
 85 426 l 1,3,-1
 85 573 l 1,4,-1
 522 971 l 1,5,-1
 625 877 l 1,6,-1
 334 449 l 1,7,-1
 334 551 l 1,0,-1
EndSplineSet
Substitution2: "'case' Case-Sensitive Forms in Latin lookup 9 subtable" guilsinglleft.case
EndChar

StartChar: guilsinglright
Encoding: 8250 8250 498
Width: 746
GlyphClass: 1
Flags: W
LayerCount: 2
Fore
SplineSet
393 449 m 1,0,-1
 102 877 l 1,1,-1
 205 971 l 1,2,-1
 642 574 l 1,3,-1
 642 426 l 1,4,-1
 205 29 l 1,5,-1
 102 123 l 1,6,-1
 393 551 l 1,7,-1
 393 449 l 1,0,-1
EndSplineSet
Substitution2: "'case' Case-Sensitive Forms in Latin lookup 9 subtable" guilsinglright.case
EndChar

StartChar: guillemotleft
Encoding: 171 171 501
Width: 1240
GlyphClass: 1
Flags: W
LayerCount: 2
Fore
SplineSet
334 551 m 1,0,-1
 625 122 l 1,1,-1
 522 29 l 1,2,-1
 85 426 l 1,3,-1
 85 573 l 1,4,-1
 522 971 l 1,5,-1
 625 877 l 1,6,-1
 334 449 l 1,7,-1
 334 551 l 1,0,-1
856 551 m 1,8,-1
 1148 122 l 1,9,-1
 1045 29 l 1,10,-1
 608 426 l 1,11,-1
 608 573 l 1,12,-1
 1045 971 l 1,13,-1
 1148 877 l 1,14,-1
 856 449 l 1,15,-1
 856 551 l 1,8,-1
EndSplineSet
Substitution2: "'case' Case-Sensitive Forms in Latin lookup 9 subtable" guillemotleft.case
EndChar

StartChar: guillemotright
Encoding: 187 187 502
Width: 1268
GlyphClass: 1
Flags: W
LayerCount: 2
Fore
SplineSet
393 449 m 1,0,-1
 102 877 l 1,1,-1
 205 971 l 1,2,-1
 642 574 l 1,3,-1
 642 426 l 1,4,-1
 205 29 l 1,5,-1
 102 123 l 1,6,-1
 393 551 l 1,7,-1
 393 449 l 1,0,-1
916 449 m 1,8,-1
 625 877 l 1,9,-1
 728 971 l 1,10,-1
 1165 574 l 1,11,-1
 1165 426 l 1,12,-1
 728 29 l 1,13,-1
 625 123 l 1,14,-1
 916 551 l 1,15,-1
 916 449 l 1,8,-1
EndSplineSet
Substitution2: "'case' Case-Sensitive Forms in Latin lookup 9 subtable" guillemotright.case
EndChar

StartChar: slash
Encoding: 47 47 505
Width: 895
GlyphClass: 1
Flags: W
LayerCount: 2
Fore
SplineSet
56 0 m 1,0,-1
 639 1396 l 1,1,-1
 841 1396 l 1,2,-1
 257 0 l 1,3,-1
 56 0 l 1,0,-1
EndSplineSet
EndChar

StartChar: backslash
Encoding: 92 92 506
Width: 895
GlyphClass: 1
Flags: W
LayerCount: 2
Fore
SplineSet
839 0 m 1,0,-1
 637 0 l 1,1,-1
 54 1396 l 1,2,-1
 256 1396 l 1,3,-1
 839 0 l 1,0,-1
EndSplineSet
EndChar

StartChar: bar
Encoding: 124 124 507
Width: 586
GlyphClass: 1
Flags: W
LayerCount: 2
Fore
SplineSet
202 -481 m 1,0,-1
 202 1519 l 1,1,-1
 384 1519 l 1,2,-1
 384 -481 l 1,3,-1
 202 -481 l 1,0,-1
EndSplineSet
EndChar

StartChar: brokenbar
Encoding: 166 166 508
Width: 586
GlyphClass: 1
Flags: W
LayerCount: 2
Fore
SplineSet
384 740 m 1,0,-1
 202 740 l 1,1,-1
 202 1519 l 1,2,-1
 384 1519 l 1,3,-1
 384 740 l 1,0,-1
202 -481 m 1,4,-1
 202 308 l 1,5,-1
 384 308 l 1,6,-1
 384 -481 l 1,7,-1
 202 -481 l 1,4,-1
EndSplineSet
EndChar

StartChar: endash
Encoding: 8211 8211 509
Width: 1075
GlyphClass: 1
Flags: W
LayerCount: 2
Fore
SplineSet
125 576 m 1,0,-1
 950 576 l 1,1,-1
 950 426 l 1,2,-1
 125 426 l 1,3,-1
 125 576 l 1,0,-1
EndSplineSet
Substitution2: "'case' Case-Sensitive Forms in Latin lookup 9 subtable" endash.case
EndChar

StartChar: emdash
Encoding: 8212 8212 512
Width: 1405
GlyphClass: 1
Flags: W
LayerCount: 2
Fore
SplineSet
125 576 m 1,0,-1
 1280 576 l 1,1,-1
 1280 426 l 1,2,-1
 125 426 l 1,3,-1
 125 576 l 1,0,-1
EndSplineSet
Substitution2: "'case' Case-Sensitive Forms in Latin lookup 9 subtable" emdash.case
EndChar

StartChar: bullet
Encoding: 8226 8226 514
Width: 906
GlyphClass: 1
Flags: W
LayerCount: 2
Fore
SplineSet
453 780 m 256,0,1
 538 780 538 780 601.5 746 c 128,-1,2
 665 712 665 712 700.5 649.5 c 128,-1,3
 736 587 736 587 736 502 c 0,4,5
 736 416 736 416 700.5 353 c 128,-1,6
 665 290 665 290 601.5 256 c 128,-1,7
 538 222 538 222 453 222 c 256,8,9
 368 222 368 222 304.5 256 c 128,-1,10
 241 290 241 290 206 353 c 128,-1,11
 171 416 171 416 171 502 c 256,12,13
 171 588 171 588 206 650 c 128,-1,14
 241 712 241 712 304.5 746 c 128,-1,15
 368 780 368 780 453 780 c 256,0,1
EndSplineSet
EndChar

StartChar: parenleft
Encoding: 40 40 517
Width: 690
GlyphClass: 1
Flags: W
LayerCount: 2
Fore
SplineSet
333 609 m 0,0,1
 333 498 333 498 348.5 398.5 c 128,-1,2
 364 299 364 299 398.5 206.5 c 128,-1,3
 433 114 433 114 491.5 23.5 c 128,-1,4
 550 -67 550 -67 635 -161 c 1,5,-1
 546 -252 l 1,6,7
 415 -133 415 -133 327 -26.5 c 128,-1,8
 239 80 239 80 187 182.5 c 128,-1,9
 135 285 135 285 113 389.5 c 128,-1,10
 91 494 91 494 91 609 c 0,11,12
 91 725 91 725 113 829.5 c 128,-1,13
 135 934 135 934 187 1036 c 128,-1,14
 239 1138 239 1138 327 1245 c 128,-1,15
 415 1352 415 1352 546 1471 c 1,16,-1
 635 1380 l 1,17,18
 550 1286 550 1286 491.5 1195.5 c 128,-1,19
 433 1105 433 1105 398.5 1012.5 c 128,-1,20
 364 920 364 920 348.5 820.5 c 128,-1,21
 333 721 333 721 333 609 c 0,0,1
EndSplineSet
Substitution2: "'case' Case-Sensitive Forms in Latin lookup 9 subtable" parenleft.case
EndChar

StartChar: parenright
Encoding: 41 41 518
Width: 690
GlyphClass: 1
Flags: W
LayerCount: 2
Fore
SplineSet
357 610 m 256,0,1
 357 721 357 721 341.5 820.5 c 128,-1,2
 326 920 326 920 291.5 1012.5 c 128,-1,3
 257 1105 257 1105 199 1195.5 c 128,-1,4
 141 1286 141 1286 55 1380 c 1,5,-1
 144 1471 l 1,6,7
 276 1352 276 1352 363.5 1245.5 c 128,-1,8
 451 1139 451 1139 503 1037 c 128,-1,9
 555 935 555 935 577 830 c 128,-1,10
 599 725 599 725 599 610 c 256,11,12
 599 495 599 495 577 390 c 128,-1,13
 555 285 555 285 503 183 c 128,-1,14
 451 81 451 81 363.5 -25.5 c 128,-1,15
 276 -132 276 -132 144 -252 c 1,16,-1
 55 -160 l 1,17,18
 141 -67 141 -67 199 24 c 128,-1,19
 257 115 257 115 291.5 207 c 128,-1,20
 326 299 326 299 341.5 399 c 128,-1,21
 357 499 357 499 357 610 c 256,0,1
EndSplineSet
Substitution2: "'case' Case-Sensitive Forms in Latin lookup 9 subtable" parenright.case
EndChar

StartChar: bracketleft
Encoding: 91 91 521
Width: 770
GlyphClass: 1
Flags: W
LayerCount: 2
Fore
SplineSet
201 -229 m 1,0,-1
 201 1448 l 1,1,-1
 715 1448 l 1,2,-1
 715 1312 l 1,3,-1
 431 1312 l 1,4,-1
 431 -93 l 1,5,-1
 715 -93 l 1,6,-1
 715 -229 l 1,7,-1
 201 -229 l 1,0,-1
EndSplineSet
Substitution2: "'case' Case-Sensitive Forms in Latin lookup 9 subtable" bracketleft.case
EndChar

StartChar: bracketright
Encoding: 93 93 522
Width: 771
GlyphClass: 1
Flags: W
LayerCount: 2
Fore
SplineSet
569 1448 m 1,0,-1
 569 -229 l 1,1,-1
 55 -229 l 1,2,-1
 55 -92 l 1,3,-1
 339 -92 l 1,4,-1
 339 1312 l 1,5,-1
 55 1312 l 1,6,-1
 55 1448 l 1,7,-1
 569 1448 l 1,0,-1
EndSplineSet
Substitution2: "'case' Case-Sensitive Forms in Latin lookup 9 subtable" bracketright.case
EndChar

StartChar: braceleft
Encoding: 123 123 525
Width: 757
GlyphClass: 1
Flags: W
LayerCount: 2
Fore
SplineSet
60 547 m 1,0,-1
 60 670 l 1,1,-1
 135 672 l 2,2,3
 209 675 209 675 242 705.5 c 128,-1,4
 275 736 275 736 275 801 c 0,5,6
 275 867 275 867 261.5 928 c 128,-1,7
 248 989 248 989 234 1049.5 c 128,-1,8
 220 1110 220 1110 220 1174 c 0,9,10
 220 1242 220 1242 254 1303.5 c 128,-1,11
 288 1365 288 1365 358.5 1407.5 c 128,-1,12
 429 1450 429 1450 538 1458 c 2,13,-1
 680 1469 l 1,14,-1
 692 1345 l 1,15,-1
 614 1335 l 2,16,17
 530 1325 530 1325 500 1279.5 c 128,-1,18
 470 1234 470 1234 470 1161 c 0,19,20
 470 1086 470 1086 481.5 1005 c 128,-1,21
 493 924 493 924 493 843 c 0,22,23
 493 742 493 742 432.5 677 c 128,-1,24
 372 612 372 612 235 585 c 1,25,-1
 235 632 l 1,26,27
 372 605 372 605 432.5 540 c 128,-1,28
 493 475 493 475 493 375 c 0,29,30
 493 293 493 293 481.5 212.5 c 128,-1,31
 470 132 470 132 470 56 c 0,32,33
 470 -16 470 -16 500 -62 c 128,-1,34
 530 -108 530 -108 614 -118 c 2,35,-1
 692 -128 l 1,36,-1
 680 -252 l 1,37,-1
 538 -241 l 2,38,39
 429 -232 429 -232 358.5 -190 c 128,-1,40
 288 -148 288 -148 254 -86.5 c 128,-1,41
 220 -25 220 -25 220 43 c 0,42,43
 220 108 220 108 234 168 c 128,-1,44
 248 228 248 228 261.5 289.5 c 128,-1,45
 275 351 275 351 275 417 c 0,46,47
 275 481 275 481 242 512 c 128,-1,48
 209 543 209 543 135 545 c 2,49,-1
 60 547 l 1,0,-1
EndSplineSet
Substitution2: "'case' Case-Sensitive Forms in Latin lookup 9 subtable" braceleft.case
EndChar

StartChar: braceright
Encoding: 125 125 526
Width: 757
GlyphClass: 1
Flags: W
LayerCount: 2
Fore
SplineSet
698 671 m 1,0,-1
 698 548 l 1,1,-1
 623 545 l 2,2,3
 548 543 548 543 515 512 c 128,-1,4
 482 481 482 481 482 417 c 0,5,6
 482 351 482 351 496 289.5 c 128,-1,7
 510 228 510 228 523.5 168 c 128,-1,8
 537 108 537 108 537 44 c 0,9,10
 537 -24 537 -24 503.5 -86 c 128,-1,11
 470 -148 470 -148 400 -190 c 128,-1,12
 330 -232 330 -232 220 -241 c 2,13,-1
 78 -252 l 1,14,-1
 65 -128 l 1,15,-1
 144 -118 l 2,16,17
 227 -107 227 -107 257 -61.5 c 128,-1,18
 287 -16 287 -16 287 56 c 0,19,20
 287 132 287 132 276 213 c 128,-1,21
 265 294 265 294 265 375 c 0,22,23
 265 476 265 476 325 541 c 128,-1,24
 385 606 385 606 523 632 c 1,25,-1
 523 586 l 1,26,27
 385 613 385 613 325 677.5 c 128,-1,28
 265 742 265 742 265 843 c 0,29,30
 265 924 265 924 276 1005 c 128,-1,31
 287 1086 287 1086 287 1162 c 0,32,33
 287 1234 287 1234 257 1279.5 c 128,-1,34
 227 1325 227 1325 144 1336 c 2,35,-1
 65 1346 l 1,36,-1
 78 1469 l 1,37,-1
 220 1458 l 2,38,39
 330 1450 330 1450 400 1408 c 128,-1,40
 470 1366 470 1366 503.5 1304.5 c 128,-1,41
 537 1243 537 1243 537 1175 c 0,42,43
 537 1111 537 1111 523.5 1050 c 128,-1,44
 510 989 510 989 496 928 c 128,-1,45
 482 867 482 867 482 801 c 0,46,47
 482 737 482 737 515 706 c 128,-1,48
 548 675 548 675 623 673 c 2,49,-1
 698 671 l 1,0,-1
EndSplineSet
Substitution2: "'case' Case-Sensitive Forms in Latin lookup 9 subtable" braceright.case
EndChar

StartChar: asterisk
Encoding: 42 42 529
Width: 921
GlyphClass: 1
Flags: W
LayerCount: 2
Fore
SplineSet
648 752 m 1,0,-1
 540 707 l 1,1,-1
 431 931 l 1,2,-1
 227 786 l 1,3,-1
 153 875 l 1,4,-1
 332 1048 l 1,5,-1
 131 1197 l 1,6,-1
 192 1295 l 1,7,-1
 413 1179 l 1,8,-1
 491 1415 l 1,9,-1
 604 1387 l 1,10,-1
 561 1143 l 1,11,-1
 811 1141 l 1,12,-1
 819 1024 l 1,13,-1
 573 989 l 1,14,-1
 648 752 l 1,0,-1
EndSplineSet
EndChar

StartChar: dagger
Encoding: 8224 8224 530
Width: 825
GlyphClass: 1
Flags: W
LayerCount: 2
Fore
SplineSet
413 1247 m 1,0,-1
 714 1278 l 1,1,-1
 714 1094 l 1,2,-1
 413 1125 l 1,3,-1
 111 1094 l 1,4,-1
 111 1278 l 1,5,-1
 413 1247 l 1,0,-1
345 1188 m 1,6,-1
 301 1448 l 1,7,-1
 525 1448 l 1,8,-1
 480 1188 l 1,9,-1
 523 920 l 1,10,-1
 462 679 l 1,11,-1
 360 679 l 1,12,-1
 303 920 l 1,13,-1
 345 1188 l 1,6,-1
EndSplineSet
EndChar

StartChar: daggerdbl
Encoding: 8225 8225 531
Width: 860
GlyphClass: 1
Flags: W
LayerCount: 2
Fore
SplineSet
431 1251 m 1,0,-1
 732 1283 l 1,1,-1
 732 1120 l 1,2,-1
 431 1131 l 1,3,-1
 129 1120 l 1,4,-1
 129 1283 l 1,5,-1
 431 1251 l 1,0,-1
521 1062 m 1,6,-1
 507 915 l 1,7,-1
 543 679 l 1,8,-1
 318 679 l 1,9,-1
 353 915 l 1,10,-1
 340 1062 l 1,11,-1
 353 1212 l 1,12,-1
 318 1448 l 1,13,-1
 543 1448 l 1,14,-1
 507 1212 l 1,15,-1
 521 1062 l 1,6,-1
431 875 m 1,16,-1
 129 844 l 1,17,-1
 129 1007 l 1,18,-1
 431 996 l 1,19,-1
 732 1007 l 1,20,-1
 732 844 l 1,21,-1
 431 875 l 1,16,-1
EndSplineSet
EndChar

StartChar: section
Encoding: 167 167 532
Width: 1297
GlyphClass: 1
Flags: W
LayerCount: 2
Fore
SplineSet
583 -253 m 0,0,1
 426 -253 426 -253 338 -230.5 c 128,-1,2
 250 -208 250 -208 215.5 -168.5 c 128,-1,3
 181 -129 181 -129 181 -78 c 0,4,5
 181 -26 181 -26 219.5 6.5 c 128,-1,6
 258 39 258 39 311 39 c 0,7,8
 330 39 330 39 354 16 c 128,-1,9
 378 -7 378 -7 413.5 -37 c 128,-1,10
 449 -67 449 -67 500 -90 c 128,-1,11
 551 -113 551 -113 623 -113 c 0,12,13
 743 -113 743 -113 796.5 -79 c 128,-1,14
 850 -45 850 -45 850 16 c 0,15,16
 850 72 850 72 809 104 c 128,-1,17
 768 136 768 136 701 154.5 c 128,-1,18
 634 173 634 173 553.5 187 c 128,-1,19
 473 201 473 201 392 220 c 128,-1,20
 311 239 311 239 243.5 272.5 c 128,-1,21
 176 306 176 306 135 362.5 c 128,-1,22
 94 419 94 419 94 509 c 0,23,24
 94 659 94 659 197 742 c 128,-1,25
 300 825 300 825 516 835 c 1,26,-1
 624 787 l 1,27,28
 478 778 478 778 410 728 c 128,-1,29
 342 678 342 678 342 597 c 0,30,31
 342 535 342 535 383 500.5 c 128,-1,32
 424 466 424 466 491 447.5 c 128,-1,33
 558 429 558 429 639 415.5 c 128,-1,34
 720 402 720 402 800.5 383.5 c 128,-1,35
 881 365 881 365 948.5 330.5 c 128,-1,36
 1016 296 1016 296 1057 235 c 128,-1,37
 1098 174 1098 174 1098 75 c 0,38,39
 1098 -20 1098 -20 1046.5 -94.5 c 128,-1,40
 995 -169 995 -169 882 -211 c 128,-1,41
 769 -253 769 -253 583 -253 c 0,0,1
955 573 m 0,42,43
 955 635 955 635 914 669 c 128,-1,44
 873 703 873 703 805.5 721.5 c 128,-1,45
 738 740 738 740 657.5 753.5 c 128,-1,46
 577 767 577 767 496 785 c 128,-1,47
 415 803 415 803 348 837.5 c 128,-1,48
 281 872 281 872 240 933 c 128,-1,49
 199 994 199 994 199 1093 c 0,50,51
 199 1189 199 1189 250.5 1262.5 c 128,-1,52
 302 1336 302 1336 416 1377.5 c 128,-1,53
 530 1419 530 1419 716 1419 c 0,54,55
 875 1419 875 1419 962 1396.5 c 128,-1,56
 1049 1374 1049 1374 1084 1335 c 128,-1,57
 1119 1296 1119 1296 1119 1244 c 256,58,59
 1119 1192 1119 1192 1080.5 1159.5 c 128,-1,60
 1042 1127 1042 1127 988 1127 c 0,61,62
 970 1127 970 1127 946 1150 c 128,-1,63
 922 1173 922 1173 886.5 1203 c 128,-1,64
 851 1233 851 1233 800 1256 c 128,-1,65
 749 1279 749 1279 677 1279 c 0,66,67
 555 1279 555 1279 500.5 1245 c 128,-1,68
 446 1211 446 1211 446 1150 c 0,69,70
 446 1095 446 1095 487 1063.5 c 128,-1,71
 528 1032 528 1032 595.5 1014 c 128,-1,72
 663 996 663 996 743.5 982 c 128,-1,73
 824 968 824 968 904.5 949 c 128,-1,74
 985 930 985 930 1052.5 897 c 128,-1,75
 1120 864 1120 864 1161 807 c 128,-1,76
 1202 750 1202 750 1202 660 c 0,77,78
 1202 507 1202 507 1097 425.5 c 128,-1,79
 992 344 992 344 780 334 c 1,80,-1
 670 382 l 1,81,82
 817 391 817 391 886 441 c 128,-1,83
 955 491 955 491 955 573 c 0,42,43
EndSplineSet
EndChar

StartChar: paragraph
Encoding: 182 182 533
Width: 1356
GlyphClass: 1
Flags: W
LayerCount: 2
Fore
SplineSet
726 1396 m 1,0,-1
 726 679 l 1,1,-1
 452 679 l 2,2,3
 320 679 320 679 233 720.5 c 128,-1,4
 146 762 146 762 103 841.5 c 128,-1,5
 60 921 60 921 60 1034 c 256,6,7
 60 1147 60 1147 103 1228 c 128,-1,8
 146 1309 146 1309 237.5 1352.5 c 128,-1,9
 329 1396 329 1396 475 1396 c 2,10,-1
 726 1396 l 1,0,-1
778 -229 m 1,11,-1
 635 -229 l 1,12,-1
 635 1396 l 1,13,-1
 1005 1396 l 1,14,-1
 1005 1271 l 1,15,-1
 778 1271 l 1,16,-1
 778 -229 l 1,11,-1
1087 -229 m 1,17,-1
 945 -229 l 1,18,-1
 945 1396 l 1,19,-1
 1273 1396 l 1,20,-1
 1273 1311 l 1,21,-1
 1087 1274 l 1,22,-1
 1087 -229 l 1,17,-1
EndSplineSet
EndChar

StartChar: at
Encoding: 64 64 534
Width: 1880
GlyphClass: 1
Flags: W
LayerCount: 2
Fore
SplineSet
1334 182 m 0,0,1
 1212 182 1212 182 1144 231 c 128,-1,2
 1076 280 1076 280 1074 374 c 0,3,4
 1074 400 1074 400 1079 428.5 c 128,-1,5
 1084 457 1084 457 1094 487 c 2,6,-1
 1114 547 l 1,7,-1
 1107 547 l 1,8,9
 1046 442 1046 442 995 373 c 128,-1,10
 944 304 944 304 897.5 264 c 128,-1,11
 851 224 851 224 805 207 c 128,-1,12
 759 190 759 190 708 190 c 0,13,14
 601 190 601 190 543 250 c 128,-1,15
 485 310 485 310 483 411 c 0,16,17
 482 490 482 490 508 575.5 c 128,-1,18
 534 661 534 661 581.5 741 c 128,-1,19
 629 821 629 821 693 885 c 128,-1,20
 757 949 757 949 833.5 986.5 c 128,-1,21
 910 1024 910 1024 992 1024 c 0,22,23
 1072 1024 1072 1024 1124.5 978 c 128,-1,24
 1177 932 1177 932 1212 843 c 1,25,-1
 1187 801 l 1,26,27
 1166 848 1166 848 1138 870 c 128,-1,28
 1110 892 1110 892 1064 892 c 256,29,30
 1018 892 1018 892 972 862 c 128,-1,31
 926 832 926 832 885 782 c 128,-1,32
 844 732 844 732 812 672.5 c 128,-1,33
 780 613 780 613 762 552.5 c 128,-1,34
 744 492 744 492 744 441 c 0,35,36
 745 398 745 398 765 377.5 c 128,-1,37
 785 357 785 357 826 357 c 0,38,39
 860 357 860 357 900 384 c 128,-1,40
 940 411 940 411 980 459 c 128,-1,41
 1020 507 1020 507 1056.5 572 c 128,-1,42
 1093 637 1093 637 1119 713 c 2,43,-1
 1174 870 l 1,44,-1
 1253 1006 l 1,45,-1
 1452 1006 l 1,46,-1
 1303 515 l 2,47,48
 1291 475 1291 475 1286.5 447 c 128,-1,49
 1282 419 1282 419 1282 396 c 0,50,51
 1282 344 1282 344 1308.5 322 c 128,-1,52
 1335 300 1335 300 1385 300 c 0,53,54
 1462 300 1462 300 1528.5 356 c 128,-1,55
 1595 412 1595 412 1636 512 c 128,-1,56
 1677 612 1677 612 1677 748 c 0,57,58
 1677 890 1677 890 1636 997 c 128,-1,59
 1595 1104 1595 1104 1515.5 1176 c 128,-1,60
 1436 1248 1436 1248 1321 1284 c 128,-1,61
 1206 1320 1206 1320 1058 1320 c 0,62,63
 868 1320 868 1320 717.5 1262.5 c 128,-1,64
 567 1205 567 1205 460.5 1098 c 128,-1,65
 354 991 354 991 298 841.5 c 128,-1,66
 242 692 242 692 242 508 c 0,67,68
 242 347 242 347 288 225.5 c 128,-1,69
 334 104 334 104 425.5 23.5 c 128,-1,70
 517 -57 517 -57 654 -97.5 c 128,-1,71
 791 -138 791 -138 972 -138 c 0,72,73
 1069 -138 1069 -138 1167.5 -120 c 128,-1,74
 1266 -102 1266 -102 1363.5 -65.5 c 128,-1,75
 1461 -29 1461 -29 1555 27 c 1,76,-1
 1607 -68 l 1,77,78
 1510 -128 1510 -128 1406 -169.5 c 128,-1,79
 1302 -211 1302 -211 1186.5 -232 c 128,-1,80
 1071 -253 1071 -253 940 -253 c 0,81,82
 737 -253 737 -253 579 -207 c 128,-1,83
 421 -161 421 -161 312.5 -68.5 c 128,-1,84
 204 24 204 24 148 165.5 c 128,-1,85
 92 307 92 307 92 497 c 0,86,87
 92 703 92 703 160 874.5 c 128,-1,88
 228 1046 228 1046 355 1170 c 128,-1,89
 482 1294 482 1294 662 1361.5 c 128,-1,90
 842 1429 842 1429 1066 1429 c 0,91,92
 1241 1429 1241 1429 1380 1386 c 128,-1,93
 1519 1343 1519 1343 1616.5 1260 c 128,-1,94
 1714 1177 1714 1177 1766 1056 c 128,-1,95
 1818 935 1818 935 1818 779 c 0,96,97
 1818 641 1818 641 1782.5 530.5 c 128,-1,98
 1747 420 1747 420 1682 342 c 128,-1,99
 1617 264 1617 264 1528.5 223 c 128,-1,100
 1440 182 1440 182 1334 182 c 0,0,1
EndSplineSet
EndChar

StartChar: registered
Encoding: 174 174 535
Width: 1179
GlyphClass: 1
Flags: W
LayerCount: 2
Fore
SplineSet
587 1419 m 0,0,1
 735 1419 735 1419 840.5 1366 c 128,-1,2
 946 1313 946 1313 1002 1214 c 128,-1,3
 1058 1115 1058 1115 1058 976 c 0,4,5
 1058 838 1058 838 1002 739 c 128,-1,6
 946 640 946 640 840.5 587 c 128,-1,7
 735 534 735 534 587 534 c 0,8,9
 441 534 441 534 336.5 587 c 128,-1,10
 232 640 232 640 176.5 739 c 128,-1,11
 121 838 121 838 121 976 c 0,12,13
 121 1115 121 1115 176.5 1214 c 128,-1,14
 232 1313 232 1313 336.5 1366 c 128,-1,15
 441 1419 441 1419 587 1419 c 0,0,1
587 1331 m 0,16,17
 464 1331 464 1331 383 1289 c 128,-1,18
 302 1247 302 1247 261.5 1168 c 128,-1,19
 221 1089 221 1089 221 976 c 0,20,21
 221 864 221 864 261.5 785 c 128,-1,22
 302 706 302 706 383 664 c 128,-1,23
 464 622 464 622 587 622 c 0,24,25
 711 622 711 622 793.5 664 c 128,-1,26
 876 706 876 706 917 785 c 128,-1,27
 958 864 958 864 958 976 c 0,28,29
 958 1089 958 1089 917 1168 c 128,-1,30
 876 1247 876 1247 793.5 1289 c 128,-1,31
 711 1331 711 1331 587 1331 c 0,16,17
476 1013 m 1,32,-1
 616 1013 l 2,33,34
 649 1013 649 1013 665.5 1028 c 128,-1,35
 682 1043 682 1043 682 1075 c 256,36,37
 682 1107 682 1107 666.5 1121.5 c 128,-1,38
 651 1136 651 1136 610 1136 c 2,39,-1
 476 1136 l 1,40,-1
 471 1209 l 1,41,-1
 651 1209 l 2,42,43
 735 1209 735 1209 771.5 1180.5 c 128,-1,44
 808 1152 808 1152 808 1097 c 0,45,46
 808 1048 808 1048 778 1018 c 128,-1,47
 748 988 748 988 683 983 c 1,48,-1
 685 986 l 1,49,50
 735 984 735 984 756.5 967 c 128,-1,51
 778 950 778 950 783 914 c 2,52,-1
 795 860 l 2,53,54
 799 832 799 832 808.5 825 c 128,-1,55
 818 818 818 818 844 818 c 1,56,-1
 844 769 l 1,57,58
 777 764 777 764 740.5 767.5 c 128,-1,59
 704 771 704 771 688 787 c 128,-1,60
 672 803 672 803 666 834 c 2,61,-1
 653 904 l 2,62,63
 647 936 647 936 635 945 c 128,-1,64
 623 954 623 954 591 954 c 2,65,-1
 478 954 l 1,66,-1
 476 1013 l 1,32,-1
418 1158 m 1,67,-1
 364 1171 l 1,68,-1
 364 1209 l 1,69,-1
 547 1209 l 1,70,-1
 547 821 l 1,71,-1
 594 807 l 1,72,-1
 594 769 l 1,73,-1
 364 769 l 1,74,-1
 364 807 l 1,75,-1
 418 821 l 1,76,-1
 418 1158 l 1,67,-1
EndSplineSet
EndChar

StartChar: copyright
Encoding: 169 169 536
Width: 1698
GlyphClass: 1
Flags: W
LayerCount: 2
Fore
SplineSet
849 1419 m 0,0,1
 1017 1419 1017 1419 1152 1369.5 c 128,-1,2
 1287 1320 1287 1320 1382 1226.5 c 128,-1,3
 1477 1133 1477 1133 1527.5 1000 c 128,-1,4
 1578 867 1578 867 1578 698 c 256,5,6
 1578 529 1578 529 1527.5 395.5 c 128,-1,7
 1477 262 1477 262 1382 168.5 c 128,-1,8
 1287 75 1287 75 1152 26 c 128,-1,9
 1017 -23 1017 -23 849 -23 c 0,10,11
 680 -23 680 -23 545.5 26 c 128,-1,12
 411 75 411 75 316 168.5 c 128,-1,13
 221 262 221 262 171 395.5 c 128,-1,14
 121 529 121 529 121 698 c 256,15,16
 121 867 121 867 171 1000 c 128,-1,17
 221 1133 221 1133 316 1226.5 c 128,-1,18
 411 1320 411 1320 545.5 1369.5 c 128,-1,19
 680 1419 680 1419 849 1419 c 0,0,1
849 1309 m 256,20,21
 661 1309 661 1309 525.5 1236.5 c 128,-1,22
 390 1164 390 1164 317 1027.5 c 128,-1,23
 244 891 244 891 244 698 c 0,24,25
 244 504 244 504 317 367.5 c 128,-1,26
 390 231 390 231 525.5 159 c 128,-1,27
 661 87 661 87 849 87 c 256,28,29
 1037 87 1037 87 1172.5 159 c 128,-1,30
 1308 231 1308 231 1381.5 367.5 c 128,-1,31
 1455 504 1455 504 1455 698 c 0,32,33
 1455 891 1455 891 1381.5 1027.5 c 128,-1,34
 1308 1164 1308 1164 1172.5 1236.5 c 128,-1,35
 1037 1309 1037 1309 849 1309 c 256,20,21
938 410 m 0,36,37
 978 410 978 410 1023 418 c 128,-1,38
 1068 426 1068 426 1109 444 c 1,39,-1
 1027 359 l 1,40,-1
 1123 568 l 1,41,-1
 1194 568 l 1,42,-1
 1160 338 l 1,43,44
 1100 318 1100 318 1035.5 307.5 c 128,-1,45
 971 297 971 297 899 297 c 0,46,47
 750 297 750 297 647.5 340.5 c 128,-1,48
 545 384 545 384 493 472.5 c 128,-1,49
 441 561 441 561 441 693 c 0,50,51
 441 819 441 819 493.5 912 c 128,-1,52
 546 1005 546 1005 648.5 1057 c 128,-1,53
 751 1109 751 1109 900 1109 c 0,54,55
 959 1109 959 1109 1013 1100 c 128,-1,56
 1067 1091 1067 1091 1120 1074 c 1,57,-1
 1060 1058 l 1,58,-1
 1121 1128 l 1,59,-1
 1177 1128 l 1,60,-1
 1187 822 l 1,61,-1
 1112 820 l 1,62,-1
 1039 1029 l 1,63,-1
 1109 939 l 1,64,65
 1061 967 1061 967 1015 979 c 128,-1,66
 969 991 969 991 910 991 c 0,67,68
 785 991 785 991 719.5 924.5 c 128,-1,69
 654 858 654 858 654 707 c 0,70,71
 654 606 654 606 688 540 c 128,-1,72
 722 474 722 474 785.5 442 c 128,-1,73
 849 410 849 410 938 410 c 0,36,37
EndSplineSet
EndChar

StartChar: trademark
Encoding: 8482 8482 537
Width: 1802
GlyphClass: 1
Flags: W
LayerCount: 2
Fore
SplineSet
327 1379 m 1,0,-1
 490 1379 l 1,1,-1
 490 901 l 1,2,-1
 559 883 l 1,3,-1
 559 837 l 1,4,-1
 258 837 l 1,5,-1
 258 883 l 1,6,-1
 327 901 l 1,7,-1
 327 1379 l 1,0,-1
1606 904 m 1,8,-1
 1677 885 l 1,9,-1
 1677 837 l 1,10,-1
 1379 837 l 1,11,-1
 1379 885 l 1,12,-1
 1442 901 l 1,13,-1
 1413 1320 l 1,14,-1
 1419 1319 l 1,15,-1
 1260 836 l 1,16,-1
 1121 836 l 1,17,-1
 958 1313 l 1,18,-1
 966 1314 l 1,19,-1
 942 901 l 1,20,-1
 1003 885 l 1,21,-1
 1003 837 l 1,22,-1
 786 837 l 1,23,-1
 786 885 l 1,24,-1
 857 902 l 1,25,-1
 883 1323 l 1,26,-1
 804 1348 l 1,27,-1
 804 1396 l 1,28,-1
 1099 1396 l 1,29,-1
 1236 975 l 1,30,-1
 1218 975 l 1,31,-1
 1353 1396 l 1,32,-1
 1648 1396 l 1,33,-1
 1648 1348 l 1,34,-1
 1577 1328 l 1,35,-1
 1606 904 l 1,8,-1
653 1310 m 1,36,-1
 165 1310 l 1,37,-1
 216 1352 l 1,38,-1
 152 1192 l 1,39,-1
 88 1193 l 1,40,-1
 115 1431 l 1,41,-1
 165 1431 l 1,42,-1
 209 1382 l 1,43,-1
 152 1396 l 1,44,-1
 667 1396 l 1,45,-1
 609 1382 l 1,46,-1
 652 1431 l 1,47,-1
 702 1431 l 1,48,-1
 730 1193 l 1,49,-1
 665 1192 l 1,50,-1
 602 1352 l 1,51,-1
 653 1310 l 1,36,-1
EndSplineSet
EndChar

StartChar: ordfeminine
Encoding: 170 170 538
Width: 1001
GlyphClass: 1
Flags: W
LayerCount: 2
Fore
SplineSet
143 474 m 1,0,-1
 143 617 l 1,1,-1
 871 617 l 1,2,-1
 871 474 l 1,3,-1
 143 474 l 1,0,-1
600 1072 m 1,4,5
 521 1060 521 1060 471 1047.5 c 128,-1,6
 421 1035 421 1035 394 1020 c 128,-1,7
 367 1005 367 1005 357 986.5 c 128,-1,8
 347 968 347 968 347 943 c 0,9,10
 347 901 347 901 371 881.5 c 128,-1,11
 395 862 395 862 449 862 c 0,12,13
 507 862 507 862 538 891.5 c 128,-1,14
 569 921 569 921 569 966 c 2,15,-1
 569 1193 l 2,16,17
 569 1253 569 1253 540 1283.5 c 128,-1,18
 511 1314 511 1314 438 1314 c 0,19,20
 406 1314 406 1314 376.5 1309.5 c 128,-1,21
 347 1305 347 1305 313 1295 c 1,22,-1
 367 1359 l 1,23,24
 358 1312 358 1312 349.5 1282.5 c 128,-1,25
 341 1253 341 1253 327 1234 c 0,26,27
 312 1214 312 1214 292 1204 c 128,-1,28
 272 1194 272 1194 232 1194 c 0,29,30
 194 1194 194 1194 174 1207 c 128,-1,31
 154 1220 154 1220 154 1243 c 0,32,33
 154 1284 154 1284 207 1324.5 c 128,-1,34
 260 1365 260 1365 343.5 1391.5 c 128,-1,35
 427 1418 427 1418 519 1418 c 0,36,37
 614 1418 614 1418 669.5 1394 c 128,-1,38
 725 1370 725 1370 749.5 1321 c 128,-1,39
 774 1272 774 1272 774 1196 c 2,40,-1
 774 917 l 2,41,42
 774 878 774 878 786 864 c 128,-1,43
 798 850 798 850 827 850 c 0,44,45
 839 850 839 850 851.5 852 c 128,-1,46
 864 854 864 854 883 860 c 1,47,-1
 883 783 l 1,48,49
 841 760 841 760 802 749.5 c 128,-1,50
 763 739 763 739 722 739 c 0,51,52
 649 739 649 739 614 782.5 c 128,-1,53
 579 826 579 826 577 923 c 1,54,-1
 588 926 l 1,55,56
 565 825 565 825 510 780.5 c 128,-1,57
 455 736 455 736 363 736 c 0,58,59
 257 736 257 736 201 780.5 c 128,-1,60
 145 825 145 825 145 914 c 0,61,62
 145 962 145 962 164 999 c 128,-1,63
 183 1036 183 1036 232 1065 c 128,-1,64
 281 1094 281 1094 369.5 1119 c 128,-1,65
 458 1144 458 1144 598 1168 c 1,66,-1
 600 1072 l 1,4,5
EndSplineSet
EndChar

